<?xml version="1.0" encoding="UTF-8" standalone="no"?>
<!-- Generator: Adobe Illustrator 19.0.0, SVG Export Plug-In . SVG Version: 6.00 Build 0)  -->

<svg
   xmlns:dc="http://purl.org/dc/elements/1.1/"
   xmlns:cc="http://creativecommons.org/ns#"
   xmlns:rdf="http://www.w3.org/1999/02/22-rdf-syntax-ns#"
   xmlns:svg="http://www.w3.org/2000/svg"
   xmlns="http://www.w3.org/2000/svg"
   xmlns:sodipodi="http://sodipodi.sourceforge.net/DTD/sodipodi-0.dtd"
   xmlns:inkscape="http://www.inkscape.org/namespaces/inkscape"
   version="1.1"
   id="Layer_1"
   x="0px"
   y="0px"
   viewBox="0 0 455 455"
   style="enable-background:new 0 0 455 455;"
   xml:space="preserve"
   sodipodi:docname="brightness_down.svg"
   inkscape:version="0.92.4 (5da689c313, 2019-01-14)"><metadata
   id="metadata3867"><rdf:RDF><cc:Work
       rdf:about=""><dc:format>image/svg+xml</dc:format><dc:type
         rdf:resource="http://purl.org/dc/dcmitype/StillImage" /></cc:Work></rdf:RDF></metadata><defs
   id="defs3865" /><sodipodi:namedview
   pagecolor="#ffffff"
   bordercolor="#666666"
   borderopacity="1"
   objecttolerance="10"
   gridtolerance="10"
   guidetolerance="10"
   inkscape:pageopacity="0"
   inkscape:pageshadow="2"
   inkscape:window-width="2560"
   inkscape:window-height="1387"
   id="namedview3863"
   showgrid="false"
   inkscape:zoom="2.6769231"
   inkscape:cx="227.5"
   inkscape:cy="227.5"
   inkscape:window-x="-8"
   inkscape:window-y="-8"
   inkscape:window-maximized="1"
   inkscape:current-layer="Layer_1" />
<path
   d="M455,242.5v-30h-59.173c-3.124-35.351-17.174-67.608-38.75-93.364l41.896-41.896L377.76,56.027l-41.896,41.896  c-25.757-21.576-58.013-35.626-93.364-38.75V0h-30v59.173c-35.351,3.124-67.608,17.174-93.364,38.75L77.24,56.027L56.027,77.24  l41.896,41.896c-21.576,25.757-35.626,58.013-38.75,93.364H0v30h59.173c3.124,35.351,17.174,67.608,38.75,93.364L56.027,377.76  l21.213,21.213l41.896-41.896c25.757,21.576,58.013,35.626,93.364,38.75V455h30v-59.173c35.351-3.124,67.608-17.174,93.364-38.75  l41.896,41.896l21.213-21.213l-41.896-41.896c21.576-25.757,35.626-58.013,38.75-93.364H455z"
   id="path3830"
   style="fill:#ffffff" />
<g
   id="g3832">
</g>
<g
   id="g3834">
</g>
<g
   id="g3836">
</g>
<g
   id="g3838">
</g>
<g
   id="g3840">
</g>
<g
   id="g3842">
</g>
<g
   id="g3844">
</g>
<g
   id="g3846">
</g>
<g
   id="g3848">
</g>
<g
   id="g3850">
</g>
<g
   id="g3852">
</g>
<g
   id="g3854">
</g>
<g
   id="g3856">
</g>
<g
   id="g3858">
</g>
<g
   id="g3860">
</g>
</svg>