<?xml version="1.0" encoding="UTF-8" standalone="no"?>
<!-- Generator: Adobe Illustrator 19.0.0, SVG Export Plug-In . SVG Version: 6.00 Build 0)  -->

<svg
   xmlns:dc="http://purl.org/dc/elements/1.1/"
   xmlns:cc="http://creativecommons.org/ns#"
   xmlns:rdf="http://www.w3.org/1999/02/22-rdf-syntax-ns#"
   xmlns:svg="http://www.w3.org/2000/svg"
   xmlns="http://www.w3.org/2000/svg"
   xmlns:sodipodi="http://sodipodi.sourceforge.net/DTD/sodipodi-0.dtd"
   xmlns:inkscape="http://www.inkscape.org/namespaces/inkscape"
   version="1.1"
   id="Layer_1"
   x="0px"
   y="0px"
   viewBox="0 0 455 455"
   style="enable-background:new 0 0 455 455;"
   xml:space="preserve"
   sodipodi:docname="brightness_up.svg"
   inkscape:version="0.92.4 (5da689c313, 2019-01-14)"><metadata
   id="metadata3945"><rdf:RDF><cc:Work
       rdf:about=""><dc:format>image/svg+xml</dc:format><dc:type
         rdf:resource="http://purl.org/dc/dcmitype/StillImage" /></cc:Work></rdf:RDF></metadata><defs
   id="defs3943" /><sodipodi:namedview
   pagecolor="#ffffff"
   bordercolor="#666666"
   borderopacity="1"
   objecttolerance="10"
   gridtolerance="10"
   guidetolerance="10"
   inkscape:pageopacity="0"
   inkscape:pageshadow="2"
   inkscape:window-width="2560"
   inkscape:window-height="1387"
   id="namedview3941"
   showgrid="false"
   inkscape:zoom="0.51868132"
   inkscape:cx="227.5"
   inkscape:cy="227.5"
   inkscape:window-x="-8"
   inkscape:window-y="-8"
   inkscape:window-maximized="1"
   inkscape:current-layer="Layer_1" />
<path
   d="M455,242.5v-30h-59.173c-3.124-35.351-17.174-67.607-38.75-93.364l41.897-41.896l-21.213-21.213l-41.897,41.896  c-25.757-21.576-58.013-35.625-93.364-38.75V0h-30v59.173c-35.351,3.124-67.607,17.174-93.364,38.75L77.239,56.027L56.026,77.24  l41.897,41.896c-21.575,25.756-35.625,58.013-38.75,93.364H0v30h59.173c3.124,35.351,17.174,67.607,38.75,93.364L56.026,377.76  l21.213,21.213l41.897-41.896c25.757,21.576,58.013,35.625,93.364,38.75V455h30v-59.173c35.351-3.124,67.607-17.174,93.364-38.75  l41.897,41.896l21.213-21.213l-41.897-41.896c21.575-25.756,35.625-58.013,38.75-93.364H455z M227.5,366.5  c-76.645,0-139-62.355-139-139s62.355-139,139-139s139,62.355,139,139S304.145,366.5,227.5,366.5z"
   id="path3908"
   style="fill:#ffffff" />
<g
   id="g3910">
</g>
<g
   id="g3912">
</g>
<g
   id="g3914">
</g>
<g
   id="g3916">
</g>
<g
   id="g3918">
</g>
<g
   id="g3920">
</g>
<g
   id="g3922">
</g>
<g
   id="g3924">
</g>
<g
   id="g3926">
</g>
<g
   id="g3928">
</g>
<g
   id="g3930">
</g>
<g
   id="g3932">
</g>
<g
   id="g3934">
</g>
<g
   id="g3936">
</g>
<g
   id="g3938">
</g>
</svg>