<?xml version="1.0" encoding="UTF-8" standalone="no"?>
<!-- Generator: Adobe Illustrator 17.0.0, SVG Export Plug-In . SVG Version: 6.00 Build 0)  -->

<svg
   xmlns:dc="http://purl.org/dc/elements/1.1/"
   xmlns:cc="http://creativecommons.org/ns#"
   xmlns:rdf="http://www.w3.org/1999/02/22-rdf-syntax-ns#"
   xmlns:svg="http://www.w3.org/2000/svg"
   xmlns="http://www.w3.org/2000/svg"
   xmlns:sodipodi="http://sodipodi.sourceforge.net/DTD/sodipodi-0.dtd"
   xmlns:inkscape="http://www.inkscape.org/namespaces/inkscape"
   version="1.1"
   id="_x30_"
   x="0px"
   y="0px"
   width="37.061px"
   height="37.061px"
   viewBox="0 0 37.061 37.061"
   enable-background="new 0 0 37.061 37.061"
   xml:space="preserve"
   sodipodi:docname="button_l2r2.svg"
   inkscape:version="0.92.4 (5da689c313, 2019-01-14)"><metadata
   id="metadata141"><rdf:RDF><cc:Work
       rdf:about=""><dc:format>image/svg+xml</dc:format><dc:type
         rdf:resource="http://purl.org/dc/dcmitype/StillImage" /><dc:title></dc:title></cc:Work></rdf:RDF></metadata><defs
   id="defs139" /><sodipodi:namedview
   pagecolor="#ffffff"
   bordercolor="#666666"
   borderopacity="1"
   objecttolerance="10"
   gridtolerance="10"
   guidetolerance="10"
   inkscape:pageopacity="0"
   inkscape:pageshadow="2"
   inkscape:window-width="2560"
   inkscape:window-height="1387"
   id="namedview137"
   showgrid="false"
   inkscape:pagecheckerboard="true"
   inkscape:zoom="25.940059"
   inkscape:cx="19.080134"
   inkscape:cy="17.028157"
   inkscape:window-x="-8"
   inkscape:window-y="-8"
   inkscape:window-maximized="1"
   inkscape:current-layer="_x30_" />
<g
   id="g128"
   transform="translate(0,-9.7399992)">
	<path
   d="m 29.254,11.526 c 3.478,0 6.307,3.14 6.307,6.997 0,3.866 -2.829,7.011 -6.307,7.011 H 7.76 C 4.308,25.504 1.5,22.357 1.5,18.523 c 0,-3.828 2.808,-6.966 6.247,-6.997 h 21.507 m 0,-1.5 c -0.021,0 -21.507,0 -21.507,0 C 3.466,10.064 0,13.846 0,18.523 c 0,4.678 3.466,8.473 7.747,8.511 0,0 21.483,0 21.507,0 4.313,0 7.807,-3.812 7.807,-8.511 0,-4.699 -3.495,-8.497 -7.807,-8.497 z"
   id="path126"
   inkscape:connector-curvature="0"
   style="fill:#ffffff" />
</g>
<polygon
   points="18.141,22.212 18.141,20.85 14.543,20.85 14.543,14.833 12.92,14.833 12.92,22.212 "
   id="polygon130"
   transform="translate(0,-9.7399992)"
   style="fill:#ffffff" />
<g
   id="g134"
   transform="translate(0,-9.7399992)">
	<path
   d="m 24.737,20.842 v 1.274 h -4.81 c 0.052,-0.482 0.208,-0.938 0.469,-1.37 0.261,-0.431 0.774,-1.003 1.543,-1.716 0.618,-0.577 0.998,-0.967 1.138,-1.172 0.188,-0.283 0.283,-0.563 0.283,-0.84 0,-0.306 -0.082,-0.541 -0.246,-0.706 -0.165,-0.165 -0.392,-0.247 -0.682,-0.247 -0.286,0 -0.515,0.086 -0.684,0.259 -0.169,0.173 -0.267,0.459 -0.293,0.859 l -1.367,-0.137 c 0.081,-0.755 0.337,-1.297 0.767,-1.626 0.43,-0.329 0.967,-0.493 1.611,-0.493 0.706,0 1.262,0.19 1.665,0.571 0.403,0.381 0.605,0.854 0.605,1.421 0,0.322 -0.058,0.629 -0.174,0.92 -0.115,0.292 -0.298,0.597 -0.549,0.916 -0.166,0.211 -0.466,0.516 -0.898,0.914 -0.433,0.396 -0.707,0.66 -0.822,0.791 -0.116,0.13 -0.21,0.257 -0.281,0.381 h 2.725 z"
   id="path132"
   inkscape:connector-curvature="0"
   style="fill:#ffffff" />
</g>
<path
   inkscape:connector-curvature="0"
   style="fill:#ffffff"
   d="m 14.139451,25.613001 h 1.779 c 0.722,0 1.117,0.312 1.117,1.022 0,0.747 -0.396,1.06 -1.117,1.06 h -1.779 z m -1.62,6.126 h 1.62 v -2.886 h 1.625 c 0.816,0 1.117,0.342 1.23,1.118 0.082,0.589 0.061,1.304 0.258,1.769 h 1.621 c -0.289,-0.414 -0.279,-1.28 -0.313,-1.748 -0.051,-0.744 -0.275,-1.521 -1.07,-1.728 0,0 1.166,-0.303 1.166,-1.873 0,-1.118 -0.838,-2.036 -2.16,-2.036 h -3.979 z"
   id="path160" /><g
   transform="translate(0.16645072,9.5270008)"
   id="g164"><path
     style="fill:#ffffff"
     inkscape:connector-curvature="0"
     d="m 29.254,11.526 c 3.478,0 6.307,3.14 6.307,6.996 0,3.866 -2.829,7.012 -6.307,7.012 H 7.76 C 4.308,25.504 1.5,22.357 1.5,18.522 c 0,-3.827 2.808,-6.966 6.247,-6.996 h 21.507 m 0,-1.5 c -0.021,0 -21.507,0 -21.507,0 C 3.466,10.063 0,13.846 0,18.522 c 0,4.679 3.466,8.473 7.747,8.512 0,0 21.483,0 21.507,0 4.313,0 7.807,-3.812 7.807,-8.512 0,-4.699 -3.495,-8.496 -7.807,-8.496 z"
     id="path162" /></g><g
   transform="translate(0.16645072,9.5270008)"
   id="g168"><path
     style="fill:#ffffff"
     inkscape:connector-curvature="0"
     d="m 25.089,20.939 v 1.274 h -4.81 c 0.052,-0.482 0.208,-0.938 0.469,-1.37 0.261,-0.431 0.774,-1.003 1.543,-1.716 0.618,-0.577 0.998,-0.967 1.138,-1.172 0.188,-0.283 0.283,-0.563 0.283,-0.84 0,-0.306 -0.082,-0.541 -0.246,-0.706 -0.165,-0.165 -0.392,-0.247 -0.682,-0.247 -0.286,0 -0.515,0.086 -0.684,0.259 -0.169,0.173 -0.267,0.459 -0.293,0.859 L 20.44,17.143 c 0.081,-0.755 0.337,-1.297 0.767,-1.626 0.43,-0.329 0.967,-0.493 1.611,-0.493 0.706,0 1.262,0.19 1.665,0.571 0.403,0.381 0.605,0.854 0.605,1.421 0,0.322 -0.058,0.629 -0.174,0.92 -0.115,0.292 -0.298,0.597 -0.549,0.916 -0.166,0.211 -0.466,0.516 -0.898,0.914 -0.433,0.396 -0.707,0.66 -0.822,0.791 -0.116,0.13 -0.21,0.257 -0.281,0.381 h 2.725 z"
     id="path166" /></g></svg>