<svg xmlns="http://www.w3.org/2000/svg" viewBox="0 0 84.295 84.295"><radialGradient id="a" cx="-162.886" cy="-325.318" r="1" gradientTransform="matrix(3.7466 15.9046 -16.0675 3.785 -4574.664 3864.118)" gradientUnits="userSpaceOnUse"><stop offset="0" stop-color="#b3b3b3"/><stop offset="1" stop-color="#4d4d4d"/><stop offset="1" stop-color="#4d4d4d"/></radialGradient><circle cx="42.148" cy="42.148" r="16.5" fill="url(#a)"/><path fill="#919191" d="M19.167 52.601h4.666V31.695h-4.666v-8.75L0 42.148l19.167 19.203zM52.601 65.128v-4.667H31.694v4.667h-8.75l19.204 19.167 19.203-19.167zM65.128 31.695h-4.666v20.906h4.666v8.75l19.167-19.203-19.167-19.203zM31.694 19.166v4.667h20.907v-4.667h8.75L42.148 0 22.944 19.166z"/><path d="M33.541 34.079v10.758c0 3.227 1.614 5.379 4.841 5.379h12.371v-3.765H38.382c-1.076 0-1.614-.538-1.614-1.614V34.079h-3.227z" fill="#fff"/></svg>