<svg xmlns="http://www.w3.org/2000/svg" viewBox="0 0 84.295 84.295"><radialGradient id="a" cx="-162.886" cy="-325.318" r="1" gradientTransform="matrix(3.7466 15.9046 -16.0675 3.785 -4574.664 3864.118)" gradientUnits="userSpaceOnUse"><stop offset="0" stop-color="#b3b3b3"/><stop offset="1" stop-color="#4d4d4d"/><stop offset="1" stop-color="#4d4d4d"/></radialGradient><circle cx="42.148" cy="42.148" r="16.5" fill="url(#a)"/><path fill="#919191" d="M19.167 52.601h4.666V31.695h-4.666v-8.75L0 42.148l19.167 19.203zM65.128 31.695h-4.666v20.906h4.666v8.75l19.167-19.203-19.167-19.203z"/><path d="M51.023 38.92c0-3.227-1.614-4.841-5.379-4.841H33.273v16.136h3.765V43.76h8.606c1.076 0 1.614.538 1.614 1.614v4.841h3.765v-4.841c0-1.076-.538-2.152-1.076-3.227.538-.537 1.076-1.613 1.076-3.227zm-3.766 1.614h-10.22v-2.689h10.22v2.689z" fill="#fff"/></svg>