<svg width="1881" height="1138" viewBox="0 0 1881 1138" fill="none" xmlns="http://www.w3.org/2000/svg">
<path d="M1879.48 715.271C1876.49 589.602 1872.75 549.953 1860.04 501.567C1815.93 336.248 1741.93 209.235 1630.54 109.776C1481.78 -23.2857 1304.61 -35.3822 1092.31 73.4861L1033.26 103.727C1033.26 103.727 838.148 101.711 821.702 90.9588C810.489 84.2385 778.344 68.1099 749.938 55.3414C605.662 -9.17316 476.337 -16.5654 361.963 33.8365C207.969 101.711 72.6636 289.207 16.5979 511.647C0.899477 575.49 -0.595703 595.651 0.151841 758.953C0.899384 942.416 4.63692 973.329 34.5387 1026.42C61.4502 1075.48 102.565 1107.73 163.116 1129.24C261.044 1163.51 425.504 1069.43 560.809 900.75L606.409 844.3H1272.47L1318.07 900.75C1424.97 1033.81 1575.97 1137.98 1661.94 1137.98C1732.96 1137.98 1808.46 1090.93 1845.09 1022.39C1877.23 963.249 1884.71 899.407 1879.48 715.271V715.271ZM693.125 474.686H592.206V565.409C592.206 593.634 566.042 617.155 534.645 617.155C503.249 617.155 477.084 593.634 477.084 565.409V474.686H376.166C344.769 474.686 318.605 451.165 318.605 422.94C318.605 394.715 344.769 371.194 376.166 371.194H477.084V280.47C477.084 252.245 503.249 228.724 534.645 228.724C566.042 228.724 592.206 252.245 592.206 280.47V371.194H693.125C724.521 371.194 750.685 394.715 750.685 422.94C749.938 451.837 724.521 474.686 693.125 474.686V474.686ZM1436.18 191.091C1484.77 191.091 1524.39 226.708 1524.39 270.39C1524.39 314.072 1484.77 349.689 1436.18 349.689C1387.59 349.689 1347.97 314.072 1347.97 270.39C1348.72 226.708 1387.59 191.091 1436.18 191.091ZM1149.87 344.313C1149.87 300.631 1189.49 265.014 1238.08 265.014C1286.67 265.014 1326.29 300.631 1326.29 344.313C1326.29 387.994 1286.67 423.612 1238.08 423.612C1189.49 423.612 1149.87 387.994 1149.87 344.313ZM1333.02 612.451C1284.43 612.451 1244.81 576.834 1244.81 533.152C1244.81 489.47 1284.43 453.853 1333.02 453.853C1381.61 453.853 1421.23 489.47 1421.23 533.152C1421.23 576.834 1381.61 612.451 1333.02 612.451ZM1518.41 533.152C1469.82 533.152 1430.2 497.535 1430.2 453.853C1430.2 410.171 1469.82 374.554 1518.41 374.554C1567 374.554 1606.62 410.171 1606.62 453.853C1606.62 498.207 1567 533.152 1518.41 533.152Z" fill="white"/>
</svg>
