<?xml version="1.0" encoding="utf-8"?>
<!-- Generator: Adobe Illustrator 21.0.2, SVG Export Plug-In . SVG Version: 6.00 Build 0)  -->
<svg version="1.0" id="Calque_1" xmlns="http://www.w3.org/2000/svg" xmlns:xlink="http://www.w3.org/1999/xlink" x="0px" y="0px"
	 viewBox="0 0 512 393.9" enable-background="new 0 0 512 393.9" xml:space="preserve">
<g>
	<path d="M512,370.7c-0.7,2.9-1.2,5.8-2.1,8.6c-2.8,9.7-13,15.9-22.4,13.9c-10.6-2.3-17.8-11.7-16-21.9c3-17.3-1.3-32.3-13.6-44.9
		c-2.8-2.9-3.3-5.6-1.9-9.3c6.2-17.3,7.3-34.8-0.3-52c-7.2-16.3-19.3-27.6-35.6-34.6c-11.2-4.9-11.1-5.1-9.3-17.1
		c5.7-37-17.6-74.1-52.3-83.1c-11.3-2.9-22.8-2.1-34.2-1.1c-4.2,0.4-5.7-0.5-6.4-4.8c-2.2-14.3-4.9-28.5-11.8-41.5
		c-16-30.2-41.6-44.4-75.1-43c-30.9,1.3-51.8,18.8-65.4,45.5c-9.6,18.8-11.1,39.1-9,59.8c0.8,7.7,1.8,15.5,2.7,23.6
		c-6.2,1.3-11.9,2.6-17.8,3.8c-31.4,6.6-52.8,28.5-58.1,60.1c-2.3,13.4,0.3,26.5,3,39.6c0.1,0.6,0.2,1.3,0.4,2.2
		c-2.5,1.4-4.9,2.8-7.4,4c-28.9,13.5-41.5,36.6-39.5,68c0.4,6.6,2,13.1,3.8,19.5c3.4,12.2-1.6,23.3-12.6,26.6
		c-11.3,3.4-21.6-2.5-25.2-14.8c-2.4-8.2-4-16.7-5.9-25.1c0-8,0-16,0-24c1.9-8.2,3.4-16.6,5.9-24.6c6.1-19.7,17.9-35.5,34.2-47.9
		c2.5-1.9,3.1-3.7,3-6.7c-1.1-28.9,6.6-55,25.3-77.3c11.9-14.1,26.5-24.7,43.6-31.6c3.1-1.2,4.1-2.8,4.1-6.2
		c-0.4-31.4,6.4-60.9,25.8-86.3c24.6-32.1,56.9-49.8,98-48c52,2.2,92.7,33.6,108.9,83c1.6,4.7,3.9,6.2,8.7,6.8
		c22.2,2.7,41,12.9,57.1,28.2c20.2,19.1,32.5,42.2,36,69.9c0,0.3,0.2,0.7,0.1,1c-1.7,10.1,4.1,15.3,11.3,21.4
		c31.3,26,42.6,59.9,36.7,99.9c-0.2,1.7-0.3,3.8,0.5,5.1c6.4,10.5,10.5,21.8,12.1,34c0.1,0.5,0.4,0.9,0.7,1.3
		C512,357.4,512,364.1,512,370.7z"/>
	<path d="M324.8,392.7c22.7-6.7,45.3-13.4,68-20.2c0-0.4-0.1-0.7-0.1-1.1c-26.7,0.6-53.5,1.3-81.8,2c24.4-23,47.8-45,71.2-67
		c-0.2-0.4-0.5-0.7-0.7-1.1c-28.2,13.9-56.5,27.8-86.1,42.3c11.4-41.1,22.4-81,33.4-120.8c-0.2-0.1-0.5-0.3-0.7-0.4
		c-20.3,27-40.5,54-61.5,81.9c-10.7-47.5-21.2-94-31.7-140.5c-0.4,0-0.8,0-1.2,0c-1.7,50.4-3.4,100.8-5.1,152.3
		c-24.7-19.1-48.8-37.6-72.9-56.2c-0.3,0.2-0.5,0.4-0.8,0.5c15.7,30.9,31.3,61.8,47.4,93.7c-22.4,1.1-44.2,2.2-66,3.2
		c-0.1,0.4-0.2,0.8-0.3,1.2c19.3,10,38.6,20.1,58,30.1c-0.1,0.3-0.2,0.7-0.2,1c-1.6,0-3.1,0-4.7,0c-21.8,0-43.7-0.9-65.5,0.3
		c-20.4,1-39.2-15.1-43-33.9c-1.5-7.5-2.1-15.7-0.9-23.2c3.9-23.6,26.9-38.2,51.2-33.5c1.1,0.2,2.2,0.3,4.1,0.6
		c-8.4-10.6-14-21.8-16.5-34.4c-4-20.2,2.8-38.9,19.2-49.5c17.4-11.3,35.7-12.7,54.1-2.1c2.4,1.4,4.4,3.2,6.7,4.9
		c-3.7-11.3-7.8-22.3-10.9-33.6c-5.1-19-6.7-38.3-0.6-57.6c7.3-22.7,27.8-39.1,48.5-39.1c28.4,0.1,48.3,15.9,55.3,44
		c4.2,16.6,4.3,33.2,0.4,49.9c-0.2,0.9-0.2,1.9-0.4,3.5c10.5-10.5,22.7-16.1,36.8-17.2c23-1.8,43.4,12.7,49.2,35
		c5,19.4-1.6,36-12.9,51.3c-1.3,1.7-2.7,3.4-4.7,5.9c23.9-9.1,43.9-6.1,57.9,15.8c10.5,16.5,6.9,34.8-9.2,55.1
		c5.2,2.9,10.9,5.2,15.7,8.8c9.5,7.2,11.9,19,7.4,31.6c-4.1,11.3-12.6,17.3-24.6,17.3c-27.2,0-54.3,0-81.5,0
		C325,393.3,324.9,393,324.8,392.7z"/>
</g>
</svg>
