<?xml version="1.0" standalone="no"?>
<!DOCTYPE svg PUBLIC "-//W3C//DTD SVG 20010904//EN"
 "http://www.w3.org/TR/2001/REC-SVG-20010904/DTD/svg10.dtd">
<svg version="1.0" xmlns="http://www.w3.org/2000/svg"
 width="512.000000pt" height="512.000000pt" viewBox="0 0 512.000000 512.000000"
 preserveAspectRatio="xMidYMid meet">
<metadata>
Created by potrace 1.13, written by Peter Selinger 2001-2015
</metadata>
<g transform="translate(0.000000,512.000000) scale(0.100000,-0.100000)"
fill="#000000" stroke="none">
<path d="M335 4967 c-131 -34 -241 -124 -297 -244 -28 -58 -33 -82 -36 -165
-5 -116 17 -196 78 -281 216 -301 693 -208 786 153 54 212 -67 442 -274 520
-70 27 -188 34 -257 17z"/>
<path d="M1390 4844 c-57 -25 -99 -63 -124 -112 -12 -26 -70 -178 -127 -339
l-104 -292 -55 -20 c-30 -10 -75 -26 -100 -34 -25 -8 -117 -43 -205 -76 -88
-34 -180 -68 -204 -77 -92 -35 -150 -115 -151 -209 0 -46 167 -595 455 -1500
42 -131 46 -155 69 -390 l25 -250 -254 -520 c-193 -394 -256 -532 -261 -571
-14 -110 48 -226 146 -277 113 -57 227 -44 317 37 46 42 68 83 326 609 165
337 281 584 286 613 7 34 -1 155 -30 458 -21 226 -40 430 -43 453 l-5 41 70
42 c39 23 161 75 271 116 198 73 202 74 222 56 215 -192 421 -364 456 -383 36
-18 61 -23 120 -23 85 0 128 15 184 64 62 55 89 112 94 199 3 69 1 81 -27 136
-16 32 -29 61 -27 62 1 2 95 -31 209 -72 113 -41 211 -75 217 -75 7 0 9 -7 6
-16 -3 -9 24 -237 61 -506 l67 -489 -33 -497 c-37 -543 -37 -537 19 -625 36
-57 104 -102 176 -117 141 -29 291 64 324 200 5 25 26 273 44 552 l35 506 -54
393 -54 392 70 91 c38 50 156 206 261 346 105 140 194 258 197 263 6 6 285
-114 303 -131 4 -4 23 -137 42 -295 38 -317 48 -352 114 -407 49 -41 130 -64
190 -55 126 19 212 116 212 239 0 74 -78 721 -93 771 -7 24 -30 58 -57 85 -38
38 -85 63 -310 164 -270 121 -773 367 -800 391 -8 8 -114 56 -236 108 l-221
95 -389 82 c-415 87 -438 89 -514 50 -81 -42 -130 -122 -130 -213 0 -64 14
-110 47 -155 52 -69 74 -77 474 -161 298 -63 392 -87 460 -117 l87 -37 -121
-161 c-66 -89 -122 -163 -124 -165 -1 -2 -315 110 -695 250 -664 243 -696 254
-763 253 -58 0 -79 -5 -123 -29 -158 -86 -200 -291 -87 -422 19 -23 31 -44 27
-47 -20 -12 -205 -76 -210 -72 -6 6 -160 580 -156 584 1 2 28 10 61 18 78 21
138 57 168 102 13 20 88 215 166 432 128 353 143 402 143 460 0 78 -24 131
-84 182 -66 57 -174 75 -250 42z"/>
<path d="M4270 4526 c-192 -52 -330 -230 -330 -426 1 -259 209 -452 474 -438
72 4 96 10 159 41 91 45 166 121 210 214 30 64 32 74 32 183 0 109 -2 119 -32
182 -36 77 -107 158 -171 195 -99 58 -237 78 -342 49z"/>
</g>
</svg>
