<?xml version="1.0" standalone="no"?>
<!DOCTYPE svg PUBLIC "-//W3C//DTD SVG 20010904//EN"
 "http://www.w3.org/TR/2001/REC-SVG-20010904/DTD/svg10.dtd">
<svg version="1.0" xmlns="http://www.w3.org/2000/svg"
 width="441.500000pt" height="511.979840pt" viewBox="0 0 441.500000 511.979840"
 preserveAspectRatio="xMidYMid meet">
<metadata>
Created by potrace 1.13, written by Peter Selinger 2001-2015
</metadata>
<g transform="translate(-35.000000,512.052792) scale(0.100000,-0.100000)"
fill="#000000" stroke="none">
<path d="M2115 5104 c-229 -40 -487 -167 -653 -321 l-63 -58 -31 -120 c-147
-586 -839 -3489 -854 -3585 l-6 -38 283 -7 c329 -8 3334 -3 3344 6 3 4 -33
170 -80 370 -338 1431 -349 1480 -342 1510 12 46 454 488 475 475 4 -2 42 -11
85 -20 189 -39 375 49 466 219 24 47 26 58 26 185 l0 136 -35 58 c-44 73 -123
146 -198 183 -51 25 -68 27 -162 28 -100 0 -108 -2 -174 -35 -91 -45 -159
-112 -199 -197 -30 -64 -32 -74 -31 -178 0 -76 5 -123 16 -152 l17 -41 -181
-177 c-99 -98 -183 -173 -188 -169 -8 9 -75 281 -195 789 -100 424 -175 716
-192 753 -27 58 -209 192 -364 269 -236 117 -518 160 -764 117z m422 -330 c78
-16 184 -56 260 -100 49 -28 173 -123 173 -133 0 -3 65 -280 145 -615 269
-1130 245 -1017 224 -1046 -9 -14 -259 -269 -554 -568 l-537 -542 -603 2
c-332 2 -607 6 -611 11 -8 7 10 86 121 557 30 124 120 504 200 845 81 341 189
789 240 995 l94 375 44 40 c90 82 310 177 449 194 90 11 259 4 355 -15z m947
-2405 c83 -341 137 -582 130 -588 -3 -3 -231 -7 -507 -8 l-502 -2 410 404
c266 264 412 401 416 392 4 -6 28 -96 53 -198z"/>
<path d="M1980 4215 l0 -125 345 0 345 0 0 125 0 125 -345 0 -345 0 0 -125z"/>
<path d="M1980 3610 l0 -130 345 0 345 0 0 130 0 130 -345 0 -345 0 0 -130z"/>
<path d="M1980 3005 l0 -125 345 0 345 0 0 125 0 125 -345 0 -345 0 0 -125z"/>
<path d="M1980 2405 l0 -124 343 -3 c188 -2 343 -3 344 -3 1 1 -1 58 -4 128
l-6 127 -339 0 -338 0 0 -125z"/>
<path d="M350 710 c0 -216 8 -248 79 -321 75 -77 118 -89 319 -92 l152 -2 0
-28 c0 -141 134 -269 278 -266 58 1 98 15 156 56 60 43 94 97 109 174 l12 64
873 0 872 0 0 -43 c0 -59 21 -103 75 -161 102 -109 263 -120 373 -25 49 42 77
92 95 169 l12 54 150 6 c179 6 235 20 297 75 75 66 89 112 95 322 l6 178
-1976 0 -1977 0 0 -160z"/>
</g>
</svg>
