<?xml version="1.0" standalone="no"?>
<!DOCTYPE svg PUBLIC "-//W3C//DTD SVG 20010904//EN"
 "http://www.w3.org/TR/2001/REC-SVG-20010904/DTD/svg10.dtd">
<svg version="1.0" xmlns="http://www.w3.org/2000/svg"
 width="445.852992pt" height="511.918352pt" viewBox="0 0 445.852992 511.918352"
 preserveAspectRatio="xMidYMid meet">
<metadata>
Created by potrace 1.13, written by Peter Selinger 2001-2015
</metadata>
<g transform="translate(-33.057696,511.943355) scale(0.100000,-0.100000)"
fill="#000000" stroke="none">
<path d="M1728 5101 c-209 -67 -342 -282 -310 -501 55 -370 508 -521 775 -258
102 100 151 249 130 389 -28 177 -147 318 -311 369 -83 26 -205 26 -284 1z"/>
<path d="M3463 4385 c-66 -29 -81 -125 -28 -175 20 -19 40 -25 89 -28 l63 -4
-14 -30 c-19 -38 -13 -130 10 -156 16 -18 3 -20 -341 -71 l-357 -52 -215 40
c-450 84 -571 102 -730 108 -94 3 -182 1 -225 -5 -141 -23 -248 -101 -306
-227 l-30 -63 -357 -168 c-196 -92 -374 -179 -394 -192 -73 -47 -113 -138
-106 -236 6 -75 35 -134 86 -176 20 -18 213 -116 427 -219 l390 -186 5 -101 5
-101 -225 -510 -225 -511 -302 -415 c-167 -229 -313 -435 -325 -459 -31 -58
-36 -167 -13 -237 26 -79 83 -144 159 -181 62 -31 70 -32 153 -28 99 5 149 25
206 82 53 52 662 897 695 962 16 33 109 242 207 466 l179 407 205 -367 206
-367 5 -485 5 -485 29 -53 c36 -65 83 -107 154 -139 46 -22 65 -24 135 -21
132 5 221 63 276 178 l26 55 3 530 c2 362 -1 544 -8 574 -6 25 -141 279 -300
565 l-288 521 -27 499 c-14 274 -25 499 -23 501 2 2 111 -17 243 -41 132 -25
265 -45 295 -45 30 0 210 23 399 51 189 28 345 49 347 47 2 -2 14 -23 27 -47
13 -25 37 -50 57 -61 61 -33 151 -19 194 29 10 12 80 142 155 289 l137 268
245 5 c275 6 288 9 329 83 18 30 21 50 18 91 -8 102 -66 146 -190 146 l-73 0
3 44 c3 37 -1 49 -26 77 l-30 34 -489 2 c-405 2 -494 0 -520 -12z"/>
</g>
</svg>
