<?xml version="1.0" standalone="no"?>
<!DOCTYPE svg PUBLIC "-//W3C//DTD SVG 20010904//EN"
 "http://www.w3.org/TR/2001/REC-SVG-20010904/DTD/svg10.dtd">
<svg version="1.0" xmlns="http://www.w3.org/2000/svg"
 width="512.000000pt" height="512.000000pt" viewBox="0 0 512.000000 512.000000"
 preserveAspectRatio="xMidYMid meet">
<metadata>
Created by potrace 1.13, written by Peter Selinger 2001-2015
</metadata>
<g transform="translate(0.000000,512.000000) scale(0.100000,-0.100000)"
fill="#000000" stroke="none">
<path d="M2361 5099 c-77 -47 -91 -91 -91 -293 0 -141 -1 -146 -21 -146 -48 0
-234 -45 -363 -87 -457 -151 -843 -451 -1116 -868 -79 -122 -172 -317 -223
-471 -42 -129 -87 -315 -87 -363 0 -20 -5 -21 -146 -21 -202 0 -246 -14 -293
-91 -19 -31 -21 -50 -21 -199 0 -149 2 -168 21 -199 47 -77 91 -91 293 -91
141 0 146 -1 146 -21 0 -49 44 -234 87 -363 152 -458 451 -842 868 -1116 118
-77 321 -173 475 -224 125 -42 310 -86 359 -86 20 0 21 -5 21 -146 0 -202 14
-246 91 -293 31 -19 50 -21 198 -21 189 0 220 10 262 84 22 38 24 54 27 209 4
158 5 167 23 167 47 0 235 45 359 86 461 153 846 451 1120 869 77 118 173 322
224 475 41 125 86 312 86 359 0 20 5 21 146 21 202 0 246 14 293 91 19 31 21
50 21 199 0 149 -2 168 -21 199 -47 77 -91 91 -293 91 -141 0 -146 1 -146 21
0 47 -45 234 -86 359 -153 461 -451 846 -869 1120 -195 127 -496 248 -731 292
l-124 23 0 143 c0 200 -14 244 -91 291 -31 19 -50 21 -199 21 -149 0 -168 -2
-199 -21z m-89 -1161 c4 -161 12 -187 75 -235 l36 -28 177 0 177 0 36 28 c62
47 71 74 75 235 l4 142 37 -6 c20 -4 70 -17 111 -29 500 -150 895 -545 1045
-1045 12 -41 25 -91 29 -112 l7 -36 -143 -4 c-161 -4 -187 -12 -235 -75 l-28
-36 0 -177 0 -177 28 -36 c47 -62 74 -71 235 -75 l142 -4 -6 -37 c-4 -20 -17
-70 -29 -111 -150 -499 -546 -895 -1045 -1045 -41 -12 -91 -25 -111 -29 l-37
-6 -4 142 c-4 161 -13 188 -75 235 l-36 28 -177 0 -177 0 -36 -28 c-63 -48
-71 -74 -75 -235 l-4 -143 -36 7 c-21 4 -71 17 -112 29 -500 150 -895 545
-1045 1045 -12 41 -25 91 -29 111 l-6 37 142 4 c161 4 188 13 235 75 l28 36 0
177 0 177 -28 36 c-47 62 -74 71 -235 75 l-142 4 6 37 c9 50 48 175 73 240
148 369 444 679 806 843 103 46 275 102 332 107 8 1 12 -42 15 -141z"/>
<path d="M2433 2889 c-71 -27 -155 -106 -190 -177 -23 -49 -27 -70 -28 -147 0
-79 4 -97 28 -147 37 -75 98 -134 175 -171 54 -25 76 -30 142 -30 66 0 88 5
142 30 77 37 138 96 175 171 24 50 28 68 28 147 -1 77 -5 98 -28 147 -36 73
-119 150 -192 177 -74 28 -180 27 -252 0z"/>
</g>
</svg>
