<?xml version="1.0" standalone="no"?>
<!DOCTYPE svg PUBLIC "-//W3C//DTD SVG 20010904//EN"
 "http://www.w3.org/TR/2001/REC-SVG-20010904/DTD/svg10.dtd">
<svg version="1.0" xmlns="http://www.w3.org/2000/svg"
 width="512.000000pt" height="512.000000pt" viewBox="0 0 512.000000 512.000000"
 preserveAspectRatio="xMidYMid meet">
<metadata>
Created by potrace 1.13, written by Peter Selinger 2001-2015
</metadata>
<g transform="translate(0.000000,512.000000) scale(0.100000,-0.100000)"
fill="#000000" stroke="none">
<path d="M4529 4747 c-19 -13 -128 -98 -242 -190 -114 -92 -212 -167 -217
-167 -5 0 -59 72 -121 161 -61 88 -120 169 -131 179 -40 37 -108 32 -140 -11
-27 -36 -94 -569 -77 -611 26 -63 100 -78 148 -30 25 24 29 40 45 157 9 71 21
134 25 138 5 5 34 -29 66 -75 88 -127 111 -148 161 -148 37 0 54 9 149 83 165
127 185 141 190 136 2 -3 -13 -59 -35 -124 -46 -139 -48 -165 -17 -200 29 -34
78 -44 206 -45 125 0 125 0 -28 -94 -122 -74 -151 -103 -151 -151 0 -36 13
-55 153 -215 54 -62 96 -115 93 -117 -2 -3 -81 16 -174 41 -93 25 -181 46
-196 46 -17 0 -39 -11 -56 -28 -29 -30 -33 -44 -45 -184 -4 -37 -10 -70 -15
-73 -5 -3 -45 37 -90 88 -75 88 -111 117 -145 117 -30 0 -65 -24 -80 -55 -23
-51 -5 -86 130 -247 180 -215 225 -258 266 -258 45 0 75 22 87 63 6 17 16 100
22 182 7 83 16 155 21 161 7 8 38 3 112 -18 350 -98 461 -128 482 -128 67 0
115 63 95 124 -6 20 -88 119 -205 247 -107 118 -194 219 -195 226 0 15 19 28
260 173 113 67 213 130 223 138 13 11 17 31 17 78 0 94 1 94 -315 94 -140 0
-255 3 -255 8 0 4 32 99 70 211 80 233 84 268 41 312 -37 36 -84 39 -132 6z"/>
<path d="M3212 4225 c-23 -7 -50 -19 -58 -26 -8 -7 -56 -70 -105 -141 l-91
-128 -66 -19 c-76 -23 -405 -109 -1162 -306 -317 -83 -541 -146 -565 -160 -46
-27 -87 -91 -95 -150 l-5 -40 -60 -2 c-262 -11 -489 -83 -545 -175 -26 -43
-25 -77 3 -119 33 -49 59 -55 175 -39 55 7 115 10 133 6 38 -7 89 -51 89 -77
0 -22 -60 -75 -138 -124 -49 -30 -62 -43 -60 -59 2 -15 14 -23 43 -30 353 -75
521 -147 718 -307 97 -79 151 -145 206 -254 55 -106 118 -189 178 -232 129
-94 262 -126 430 -105 261 33 453 156 555 357 61 119 78 189 78 317 0 98 -5
124 -70 373 -39 148 -67 272 -63 276 8 7 407 113 752 199 90 23 173 45 183 51
11 6 18 21 18 41 0 46 -169 681 -185 698 -13 12 -24 12 -76 1 -35 -7 -65 -9
-70 -4 -5 5 -18 43 -29 84 -12 43 -29 81 -41 92 -24 20 -21 20 -77 2z m-1017
-940 c31 -30 31 -37 3 -69 -19 -21 -65 -36 -277 -91 -139 -37 -257 -63 -261
-58 -14 17 -31 96 -22 105 10 10 475 135 510 137 13 1 34 -10 47 -24z m87
-322 c24 -22 23 -58 -3 -82 -11 -10 -55 -28 -97 -39 -42 -11 -155 -40 -251
-66 -95 -25 -175 -46 -178 -46 -8 0 -33 70 -33 94 0 29 -18 23 280 101 226 59
255 63 282 38z m318 -403 c11 -11 20 -23 20 -27 1 -5 5 -28 9 -52 23 -117 -31
-276 -123 -364 -70 -67 -119 -94 -217 -118 -159 -41 -289 -11 -378 87 -81 88
-108 215 -56 264 l24 23 53 -59 c77 -85 80 -88 132 -123 91 -63 188 -88 263
-70 87 22 81 89 -16 163 -81 63 -183 173 -179 193 2 13 42 27 168 60 189 48
268 55 300 23z"/>
<path d="M3831 4207 c-6 -8 -16 -61 -21 -118 -6 -57 -12 -109 -15 -116 -2 -7
-30 -13 -71 -15 -49 -2 -70 -7 -77 -19 -8 -13 3 -61 43 -195 71 -241 72 -244
108 -244 16 0 35 7 42 15 22 27 52 16 121 -45 62 -55 100 -73 113 -52 3 5 8
46 12 91 5 56 12 85 21 88 7 3 62 -7 122 -22 124 -30 155 -30 159 2 2 15 -18
45 -72 104 -42 45 -76 90 -76 99 0 13 28 32 93 63 52 25 99 53 106 61 18 21 4
56 -22 56 -77 1 -189 10 -202 17 -13 8 -9 21 25 88 23 46 40 91 38 105 -5 46
-38 35 -154 -49 -60 -45 -112 -81 -115 -81 -4 0 -34 38 -68 84 -51 70 -76 96
-96 96 -1 0 -8 -6 -14 -13z"/>
<path d="M584 2489 c-68 -16 -145 -69 -178 -122 -39 -63 -46 -161 -21 -281 11
-50 15 -98 11 -119 -4 -21 -54 -107 -117 -204 -130 -197 -209 -349 -244 -469
-24 -81 -25 -100 -25 -328 0 -274 8 -327 67 -438 59 -114 138 -162 263 -161
60 0 125 14 323 66 137 37 287 76 334 87 203 48 289 125 333 295 37 144 25
301 -44 608 -75 335 -58 428 90 477 75 25 104 56 104 111 0 57 -14 85 -78 151
-111 117 -367 264 -538 309 -92 24 -221 32 -280 18z m319 -428 c39 -36 42 -44
42 -90 0 -43 -4 -55 -34 -85 -58 -60 -129 -60 -188 -1 -29 29 -33 39 -33 85 0
47 4 56 39 91 34 34 44 39 85 39 41 0 52 -5 89 -39z"/>
</g>
</svg>
