<?xml version="1.0" standalone="no"?>
<!DOCTYPE svg PUBLIC "-//W3C//DTD SVG 20010904//EN"
 "http://www.w3.org/TR/2001/REC-SVG-20010904/DTD/svg10.dtd">
<svg version="1.0" xmlns="http://www.w3.org/2000/svg"
 width="512.000000pt" height="512.000000pt" viewBox="0 0 512.000000 512.000000"
 preserveAspectRatio="xMidYMid meet">
<metadata>
Created by potrace 1.13, written by Peter Selinger 2001-2015
</metadata>
<g transform="translate(0.000000,512.000000) scale(0.100000,-0.100000)"
fill="#000000" stroke="none">
<path d="M2470 5099 c-20 -11 -45 -35 -57 -52 -35 -52 -836 -1481 -836 -1492
0 -6 112 -201 249 -435 l249 -425 3 -1005 3 -1005 149 -110 150 -109 0 -162
c0 -173 6 -202 48 -247 39 -42 75 -57 132 -57 57 0 93 15 132 57 42 45 48 74
48 247 l0 162 150 109 149 110 3 1005 3 1005 249 425 c137 234 249 429 249
435 0 19 -825 1480 -852 1508 -14 16 -38 35 -53 43 -40 21 -126 17 -168 -7z
m256 -1130 c87 -26 161 -67 245 -135 136 -109 160 -215 70 -305 -78 -78 -163
-73 -260 16 -149 139 -281 139 -441 0 -37 -32 -80 -60 -104 -66 -57 -15 -117
4 -160 52 -60 65 -65 135 -16 214 47 76 232 196 357 230 78 21 229 19 309 -6z"/>
<path d="M1026 2583 l-346 -617 0 229 c0 127 -5 247 -10 267 -14 48 -55 97
-97 114 -77 33 -178 4 -223 -63 l-25 -37 0 -635 0 -636 163 -265 c90 -146 175
-282 189 -302 30 -45 95 -78 149 -77 21 0 235 30 474 67 l435 68 3 947 2 947
-177 305 c-98 167 -181 304 -184 305 -3 0 -162 -278 -353 -617z"/>
<path d="M3557 2895 l-177 -305 2 -947 3 -947 435 -68 c239 -37 453 -67 474
-67 54 -1 119 32 149 77 14 20 99 156 189 302 l163 265 0 636 0 635 -25 37
c-58 86 -194 103 -268 34 -54 -50 -57 -65 -62 -328 l-5 -245 -344 613 c-189
337 -346 613 -350 613 -3 0 -86 -138 -184 -305z"/>
</g>
</svg>
