<?xml version="1.0" standalone="no"?>
<!DOCTYPE svg PUBLIC "-//W3C//DTD SVG 20010904//EN"
 "http://www.w3.org/TR/2001/REC-SVG-20010904/DTD/svg10.dtd">
<svg version="1.0" xmlns="http://www.w3.org/2000/svg"
 width="512.000000pt" height="510.739338pt" viewBox="0 0 512.000000 510.739338"
 preserveAspectRatio="xMidYMid meet">
<metadata>
Created by potrace 1.13, written by Peter Selinger 2001-2015
</metadata>
<g transform="translate(0.000000,510.739338) scale(0.100000,-0.100000)"
fill="#000000" stroke="none">
<path d="M3244 5096 c-90 -29 -181 -115 -226 -212 -19 -40 -23 -66 -23 -144 0
-88 3 -101 33 -162 79 -161 256 -246 420 -204 65 16 151 66 188 107 105 117
130 278 65 414 -39 83 -88 135 -163 175 -57 31 -72 34 -158 37 -60 2 -110 -2
-136 -11z"/>
<path d="M1380 4764 c-49 -21 -70 -42 -96 -99 -46 -96 -26 -212 46 -282 56
-54 375 -169 710 -254 41 -11 98 -26 125 -34 28 -8 86 -21 130 -30 44 -9 97
-21 117 -27 l37 -11 -45 -56 c-130 -162 -227 -316 -322 -508 -102 -207 -233
-393 -391 -556 -229 -236 -402 -348 -713 -461 -49 -18 -89 -52 -119 -101 -14
-23 -19 -50 -19 -111 0 -73 3 -85 29 -120 15 -22 43 -52 60 -67 29 -24 40 -27
111 -27 93 0 180 29 355 117 323 162 635 434 870 758 l20 28 121 -22 c522 -93
863 -252 1009 -471 45 -68 85 -166 99 -245 32 -173 254 -210 379 -64 60 70 69
137 37 265 -94 373 -418 652 -967 834 l-143 47 66 96 c76 112 183 237 275 321
l65 59 209 2 c193 1 220 3 329 29 145 34 270 80 401 150 217 115 276 174 283
282 5 69 -15 125 -63 182 -33 39 -97 72 -141 72 -38 0 -112 -30 -157 -64 -46
-34 -172 -100 -247 -130 -142 -55 -207 -68 -375 -73 l-160 -5 -53 61 c-68 78
-135 116 -226 131 -39 6 -89 15 -111 20 -22 5 -92 16 -155 25 -63 9 -128 20
-145 25 -16 5 -59 14 -95 21 -36 6 -92 18 -125 27 -33 8 -86 20 -117 27 -32 7
-81 20 -110 28 -29 9 -102 30 -163 48 -99 29 -254 82 -450 153 -80 29 -125 32
-175 10z"/>
<path d="M2170 1455 l0 -485 -1085 0 -1085 0 0 -485 0 -485 2560 0 2560 0 0
485 0 485 -990 0 -990 0 0 485 0 485 -485 0 -485 0 0 -485z"/>
</g>
</svg>
