<?xml version="1.0" standalone="no"?>
<!DOCTYPE svg PUBLIC "-//W3C//DTD SVG 20010904//EN"
 "http://www.w3.org/TR/2001/REC-SVG-20010904/DTD/svg10.dtd">
<svg version="1.0" xmlns="http://www.w3.org/2000/svg"
 width="307.840919pt" height="431.920564pt" viewBox="0 0 307.840919 431.920564"
 preserveAspectRatio="xMidYMid meet">
<metadata>
Created by potrace 1.13, written by Peter Selinger 2001-2015
</metadata>
<g transform="translate(-119.074000,473.920564) scale(0.100000,-0.100000)"
fill="#000000" stroke="none">
<path d="M1805 4725 c-84 -18 -102 -26 -259 -113 -163 -90 -233 -153 -290
-261 -99 -189 -87 -353 45 -595 100 -183 149 -231 268 -262 76 -19 159 -8 234
31 l47 24 46 -69 46 -68 261 -4 c144 -2 263 -3 265 -2 2 1 -22 41 -54 88 -31
47 -55 88 -53 90 2 1 49 27 103 56 166 89 213 150 204 264 -4 46 -24 89 -143
307 -75 140 -150 272 -165 294 -99 144 -281 237 -455 234 -22 0 -67 -7 -100
-14z m335 -297 c140 -71 100 -271 -57 -285 -56 -6 -102 20 -140 76 -63 93 13
225 132 230 12 1 41 -9 65 -21z"/>
<path d="M2520 3413 c-8 -2 -22 -7 -30 -10 -8 -3 20 -17 62 -32 162 -58 302
-185 368 -334 13 -28 28 -47 42 -51 13 -3 194 -6 402 -6 l379 0 91 -88 c108
-105 155 -128 242 -119 105 11 180 86 191 191 10 97 -10 130 -180 304 l-151
152 -700 -1 c-386 0 -708 -3 -716 -6z"/>
<path d="M2090 3111 c-105 -22 -173 -105 -173 -211 0 -88 21 -120 180 -281
l147 -149 536 0 535 0 85 -86 c91 -91 134 -120 199 -130 84 -13 181 38 221
117 27 51 27 146 1 197 -11 20 -83 100 -161 177 l-140 140 52 6 c29 3 -212 6
-536 7 l-589 2 -94 91 c-115 111 -173 138 -263 120z"/>
<path d="M1700 1490 l0 -1070 326 0 327 0 -7 62 c-9 95 -61 193 -141 266 l-65
59 0 376 0 375 28 6 c96 20 399 66 414 64 10 -2 211 -223 446 -492 235 -269
432 -491 439 -493 16 -6 495 416 487 428 -3 6 -33 30 -66 55 -75 55 -166 84
-263 84 l-72 0 -282 331 -281 331 0 134 0 134 -428 0 -427 0 -210 210 c-115
116 -213 210 -217 210 -5 0 -8 -481 -8 -1070z"/>
</g>
</svg>
