<?xml version="1.0" standalone="no"?>
<!DOCTYPE svg PUBLIC "-//W3C//DTD SVG 20010904//EN"
 "http://www.w3.org/TR/2001/REC-SVG-20010904/DTD/svg10.dtd">
<svg version="1.0" xmlns="http://www.w3.org/2000/svg"
 width="512.000000pt" height="311.000000pt" viewBox="0 0 512.000000 311.000000"
 preserveAspectRatio="xMidYMid meet">
<metadata>
Created by potrace 1.13, written by Peter Selinger 2001-2015
</metadata>
<g transform="translate(0.000000,412.000000) scale(0.100000,-0.100000)"
fill="#000000" stroke="none">
<path d="M540 2790 l0 -1330 208 0 c500 0 935 -54 1217 -150 66 -23 203 -81
304 -130 113 -56 181 -84 177 -74 -3 9 -6 225 -6 480 l0 464 -25 0 c-41 0 -82
27 -125 81 -43 55 -43 53 -34 87 5 18 13 22 44 22 29 0 49 -9 86 -40 l49 -40
3 797 3 798 -54 50 c-230 215 -734 315 -1588 315 l-259 0 0 -1330z m1261 61
c21 -17 22 -21 10 -50 -14 -33 -64 -81 -85 -81 -7 0 -21 -10 -32 -21 -24 -27
-91 -58 -126 -59 -20 0 -28 7 -37 31 -20 58 24 105 159 167 78 36 82 37 111
13z m280 -214 c27 -28 48 -57 49 -62 0 -6 8 -15 18 -22 22 -13 52 -72 52 -100
0 -28 -13 -42 -47 -49 -27 -5 -36 -1 -71 34 -50 50 -119 144 -136 184 -12 28
-11 33 8 55 31 36 69 24 127 -40z m-731 -117 c29 -15 9 -59 -53 -117 -92 -88
-205 -109 -200 -38 3 37 52 87 128 130 63 35 94 42 125 25z m-347 -299 c14
-14 -11 -78 -40 -101 -14 -11 -43 -25 -65 -32 -37 -11 -41 -10 -66 15 -26 26
-26 27 -9 62 21 45 85 78 136 71 19 -3 39 -10 44 -15z"/>
<path d="M3855 4109 c-579 -34 -931 -129 -1122 -303 l-53 -48 1 -807 c1 -443
3 -799 6 -790 2 9 23 26 46 39 23 13 64 39 90 58 39 28 57 34 99 35 38 1 54
-4 64 -18 33 -45 13 -83 -74 -140 -37 -24 -78 -53 -92 -64 -14 -11 -51 -26
-82 -33 l-58 -12 0 -452 c0 -249 -3 -459 -6 -468 -4 -10 64 18 177 74 101 49
238 107 304 130 282 96 717 150 1217 150 l208 0 0 1330 0 1330 -292 -1 c-161
-1 -356 -6 -433 -10z m-100 -710 c20 -18 53 -61 75 -98 21 -36 52 -81 68 -100
l29 -34 54 11 c30 6 87 21 128 32 107 29 181 27 220 -6 35 -29 40 -66 16 -101
-17 -25 -58 -40 -205 -79 -58 -15 -107 -29 -108 -30 -9 -6 14 -50 70 -135 33
-51 70 -118 80 -147 l19 -55 -27 -28 c-22 -23 -37 -29 -68 -29 -60 0 -99 30
-153 115 -96 153 -129 198 -153 216 -25 18 -28 18 -155 -13 -168 -40 -303 -45
-336 -11 -52 51 31 124 156 137 84 9 235 45 235 56 0 5 -18 46 -40 91 -22 46
-40 95 -40 111 0 42 28 104 53 116 34 17 44 14 82 -19z m-36 -533 c39 -21 32
-66 -18 -104 -78 -60 -140 -93 -168 -90 -24 3 -28 8 -31 39 -4 45 13 66 98
123 74 50 80 51 119 32z m-314 -298 c30 -13 32 -32 6 -75 -33 -54 -180 -153
-227 -153 -25 0 -64 31 -64 51 0 24 59 101 96 126 48 33 114 63 141 63 12 0
34 -5 48 -12z"/>
<path d="M0 2430 l0 -1420 1128 1 1127 0 -75 36 c-384 181 -672 230 -1402 240
l-408 6 0 1278 0 1279 -185 0 -185 0 0 -1420z"/>
<path d="M4750 2571 l0 -1278 -407 -6 c-731 -10 -1019 -59 -1403 -240 l-75
-36 1128 0 1127 -1 0 1420 0 1420 -185 0 -185 0 0 -1279z"/>
</g>
</svg>
