<?xml version="1.0" standalone="no"?>
<!DOCTYPE svg PUBLIC "-//W3C//DTD SVG 20010904//EN"
 "http://www.w3.org/TR/2001/REC-SVG-20010904/DTD/svg10.dtd">
<svg version="1.0" xmlns="http://www.w3.org/2000/svg"
 width="512.000000pt" height="512.000000pt" viewBox="0 0 512.000000 512.000000"
 preserveAspectRatio="xMidYMid meet">
<metadata>
Created by potrace 1.13, written by Peter Selinger 2001-2015
</metadata>
<g transform="translate(0.000000,512.000000) scale(0.100000,-0.100000)"
fill="#000000" stroke="none">
<path d="M3748 4810 c-36 -11 -74 -38 -182 -133 -50 -44 -140 -112 -201 -152
-60 -39 -200 -131 -310 -203 -110 -71 -218 -146 -240 -165 -22 -19 -54 -41
-70 -50 -17 -8 -38 -24 -48 -35 l-19 -20 -46 21 c-101 47 -415 237 -517 313
-42 31 -336 178 -415 207 -91 34 -163 41 -230 22 -30 -8 -77 -20 -105 -27 -28
-7 -108 -48 -180 -91 -71 -43 -317 -172 -545 -287 -228 -115 -451 -231 -494
-257 l-80 -48 -16 -67 c-9 -36 -23 -74 -31 -84 -12 -15 -14 -185 -12 -1230 2
-1169 7 -1376 35 -1594 6 -47 10 -152 9 -235 -2 -190 9 -249 52 -275 17 -10
34 -17 39 -14 18 11 77 -20 88 -47 20 -48 44 -62 108 -61 33 0 72 7 88 15 16
8 77 59 135 114 457 425 605 552 784 672 l80 54 70 -37 c39 -20 159 -91 268
-158 108 -68 240 -148 293 -178 52 -30 128 -81 167 -112 59 -48 278 -168 305
-168 4 0 12 -10 17 -23 8 -17 20 -23 50 -25 51 -3 149 50 253 137 40 34 109
88 155 120 45 32 105 78 132 103 28 24 70 56 95 70 25 14 78 53 118 87 40 33
87 68 104 77 18 9 39 23 47 31 8 8 32 26 55 40 22 15 63 44 90 65 27 22 66 48
86 58 l36 19 68 -51 c37 -28 174 -154 304 -281 130 -126 253 -240 273 -253 20
-12 50 -40 67 -62 18 -22 48 -47 67 -56 19 -9 43 -29 52 -43 33 -48 81 -93
100 -93 11 0 32 -14 49 -31 63 -66 132 -78 178 -30 41 43 56 107 56 244 0 106
3 129 29 206 56 165 80 638 81 1591 0 342 5 586 13 675 6 77 12 287 12 466 l0
325 -28 42 c-25 38 -68 75 -236 199 -57 42 -213 140 -326 203 -34 19 -77 49
-97 66 -48 43 -263 195 -323 229 -62 35 -150 102 -190 145 -34 36 -95 70 -122
69 -10 0 -30 -4 -45 -9z m275 -1162 c36 -40 63 -84 118 -196 11 -24 28 -52 37
-63 10 -10 25 -28 35 -39 11 -13 25 -19 40 -16 85 18 173 40 177 46 18 24 202
45 249 27 51 -18 82 -81 70 -139 -5 -24 -19 -51 -32 -60 -12 -10 -27 -22 -34
-28 -7 -5 -56 -21 -110 -35 -53 -14 -100 -29 -103 -34 -3 -5 -31 -14 -63 -22
-58 -12 -59 -13 -53 -43 4 -16 10 -32 14 -36 4 -3 21 -30 36 -60 16 -30 32
-57 35 -60 16 -11 88 -158 98 -200 22 -85 22 -86 -12 -126 -30 -35 -37 -39
-78 -38 -99 2 -124 29 -233 244 -15 30 -30 57 -34 60 -3 3 -15 25 -28 50 -12
25 -39 65 -60 88 l-38 44 -63 -12 c-35 -6 -71 -15 -80 -21 -73 -41 -355 -73
-408 -45 -35 17 -70 65 -56 75 6 3 13 17 16 31 3 14 20 33 37 43 17 10 42 29
57 43 18 17 38 24 64 24 53 0 193 20 199 29 3 4 33 15 68 26 38 11 62 24 62
32 0 8 -20 57 -45 109 -25 51 -45 103 -45 114 0 11 -4 20 -10 20 -5 0 -10 13
-10 29 0 17 5 33 10 36 6 3 10 16 10 28 1 35 33 90 60 104 41 21 61 15 103
-29z m-63 -736 c0 -5 11 -14 25 -20 46 -21 22 -114 -40 -152 -19 -12 -35 -25
-35 -29 0 -3 -15 -14 -33 -24 -18 -10 -46 -29 -62 -43 -22 -18 -38 -24 -65
-22 -21 2 -34 8 -32 16 1 6 -3 12 -8 12 -5 0 -10 17 -10 38 0 43 42 109 84
132 14 7 26 17 26 21 0 4 20 19 45 33 25 15 45 31 45 36 0 6 14 10 30 10 17 0
30 -4 30 -8z m-2322 -35 c17 -13 28 -28 23 -33 -4 -5 -16 -29 -25 -54 -18 -46
-69 -100 -94 -100 -7 0 -33 -20 -57 -45 -33 -33 -54 -46 -84 -51 -23 -4 -41
-10 -41 -15 0 -5 -8 -9 -19 -9 -26 0 -45 50 -38 106 4 37 13 54 43 84 22 20
55 45 74 55 19 10 37 21 40 25 9 14 105 59 126 60 11 0 34 -10 52 -23z m291
-246 c90 -97 101 -111 101 -126 0 -8 9 -23 21 -33 11 -9 28 -30 37 -47 20 -39
43 -135 31 -135 -5 0 -9 -7 -9 -15 0 -8 -7 -15 -15 -15 -7 0 -19 -8 -24 -17
-6 -10 -11 -12 -11 -5 0 6 -9 12 -19 12 -21 0 -81 46 -81 62 0 5 -16 28 -35
51 -19 22 -35 44 -35 49 0 5 -16 31 -35 60 -19 28 -38 61 -41 74 -3 13 -10 24
-15 24 -15 0 -10 16 18 59 35 54 63 54 112 2z m1661 -146 c20 -11 30 -23 30
-39 0 -40 -30 -99 -70 -136 -48 -45 -118 -102 -139 -114 -9 -5 -22 -16 -29
-23 -23 -23 -88 -16 -117 12 -26 27 -33 59 -15 70 6 4 8 11 5 16 -4 5 -2 9 3
9 6 0 17 19 27 42 16 41 65 93 98 104 9 3 17 9 17 14 0 10 51 39 90 51 40 12
69 10 100 -6z m-2503 -70 c18 -12 20 -20 13 -50 -10 -44 -26 -67 -83 -125 -66
-66 -78 -75 -127 -94 -45 -18 -103 -15 -116 5 -3 6 -3 30 0 53 7 48 66 120
121 150 17 9 48 30 70 46 44 33 89 38 122 15z m1971 -326 c24 -8 33 -18 38
-44 12 -65 -24 -124 -105 -173 -18 -11 -55 -41 -81 -66 -27 -26 -65 -53 -85
-62 -50 -21 -129 -20 -161 1 -24 15 -26 22 -21 63 3 26 10 48 16 50 6 2 11 10
11 18 0 8 9 14 19 14 11 0 21 9 25 23 3 13 20 30 41 40 19 9 35 21 35 25 0 5
11 14 24 20 14 6 43 28 66 48 54 49 117 64 178 43z m-2413 -83 c33 -14 46 -38
26 -51 -5 -3 -13 -19 -16 -36 -10 -44 -63 -96 -118 -115 -57 -19 -71 -15 -92
27 -32 62 12 146 92 174 49 18 66 18 108 1z m1685 -26 c22 -22 44 -40 49 -40
22 0 69 -85 72 -133 4 -46 3 -47 -28 -58 -66 -21 -133 22 -205 133 -37 56 -46
87 -30 102 4 4 8 12 8 17 1 5 2 11 3 14 0 3 21 5 46 5 40 0 51 -5 85 -40z"/>
</g>
</svg>
