<?xml version="1.0" standalone="no"?>
<!DOCTYPE svg PUBLIC "-//W3C//DTD SVG 20010904//EN"
 "http://www.w3.org/TR/2001/REC-SVG-20010904/DTD/svg10.dtd">
<svg version="1.0" xmlns="http://www.w3.org/2000/svg"
 width="481.638778pt" height="491.952871pt" viewBox="0 0 481.638778 491.952871"
 preserveAspectRatio="xMidYMid meet">
<metadata>
Created by potrace 1.13, written by Peter Selinger 2001-2015
</metadata>
<g transform="translate(-17.126731,501.952871) scale(0.100000,-0.100000)"
fill="#000000" stroke="none">
<path d="M3618 4972 c-36 -26 -96 -68 -131 -95 -58 -42 -456 -275 -597 -349
-30 -16 -64 -37 -75 -47 -11 -10 -34 -26 -51 -34 -17 -9 -36 -23 -43 -31 -8
-9 -21 -16 -31 -16 -28 0 -190 79 -380 185 -213 119 -204 114 -315 164 -155
69 -239 99 -316 110 -110 16 -233 -15 -399 -102 -130 -68 -285 -138 -555 -252
-88 -37 -235 -104 -328 -148 l-167 -80 -15 -50 c-8 -28 -22 -61 -30 -74 -14
-21 -16 -139 -12 -1086 3 -995 5 -1071 24 -1207 13 -96 18 -177 15 -240 -5
-124 8 -176 51 -195 18 -8 49 -17 69 -20 29 -4 42 -13 53 -35 20 -39 43 -50
109 -50 49 0 62 5 123 47 37 25 91 66 118 90 190 166 534 422 703 523 l73 43
52 -24 c29 -13 102 -50 162 -83 61 -32 198 -105 307 -161 108 -57 221 -121
252 -144 30 -23 58 -41 62 -41 3 0 46 -18 95 -40 49 -22 95 -40 103 -40 7 0
16 -9 19 -20 4 -17 13 -20 54 -20 55 0 126 35 245 119 117 83 285 193 352 231
33 20 86 55 117 77 30 23 70 49 89 58 19 8 46 24 60 34 43 32 188 121 213 130
17 7 32 4 58 -13 61 -38 141 -101 269 -212 69 -60 140 -120 157 -132 18 -13
56 -43 85 -68 28 -24 57 -44 63 -44 6 0 29 -18 50 -41 22 -22 57 -48 77 -56
22 -9 46 -29 59 -49 20 -33 64 -64 91 -64 7 0 33 -16 57 -35 74 -59 144 -44
182 39 14 32 19 65 19 147 0 93 3 114 26 164 57 123 73 360 86 1235 21 1399
21 1267 -2 1300 -18 25 -109 93 -233 172 -40 26 -140 79 -293 157 -38 20 -92
52 -120 72 -55 40 -233 147 -334 202 -36 19 -86 54 -112 76 -98 87 -162 92
-260 23z m323 -896 c23 -16 59 -62 97 -123 33 -54 72 -110 86 -125 30 -31 34
-31 186 10 67 18 122 25 188 26 91 1 94 0 118 -27 48 -55 27 -129 -45 -155
-35 -14 -205 -62 -261 -74 -25 -6 -47 -12 -48 -13 -5 -5 43 -87 104 -177 29
-43 60 -99 69 -125 9 -26 20 -54 24 -62 5 -9 -5 -27 -27 -50 -31 -32 -41 -36
-82 -35 -57 2 -104 25 -127 62 -9 15 -41 65 -71 112 -159 246 -137 229 -255
206 -51 -10 -126 -26 -167 -37 -52 -12 -105 -17 -172 -16 -90 2 -100 4 -123
28 -22 22 -24 29 -16 52 6 15 34 42 64 61 44 28 66 35 132 41 44 4 122 18 174
31 51 13 95 24 98 24 12 0 -11 59 -49 123 -51 88 -58 131 -28 192 20 41 57 73
85 75 6 0 27 -11 46 -24z m-41 -622 c33 -13 40 -21 40 -44 0 -38 -29 -71 -113
-126 -58 -39 -81 -48 -117 -48 l-45 -1 -3 41 c-4 53 20 82 109 135 38 23 72
45 75 50 7 12 7 12 54 -7z m-2192 -20 c28 -20 28 -35 -4 -85 -16 -26 -40 -47
-67 -59 -24 -11 -53 -31 -67 -45 -22 -24 -102 -55 -141 -55 -12 0 -22 13 -30
38 -21 72 15 112 163 182 93 43 114 47 146 24z m307 -230 c31 -31 62 -69 70
-85 9 -16 20 -29 25 -29 14 0 60 -84 60 -111 0 -29 -8 -40 -38 -57 -19 -10
-28 -10 -57 4 -33 15 -63 48 -160 177 -57 76 -61 90 -35 127 34 48 69 41 135
-26z m1536 -91 c31 -18 31 -38 3 -95 -14 -26 -135 -124 -190 -153 -38 -20 -93
-19 -116 2 -57 51 38 177 185 244 52 23 81 24 118 2z m-2358 -58 c29 -22 6
-73 -61 -137 -87 -83 -210 -121 -229 -72 -12 33 16 92 60 123 133 95 190 117
230 86z m1849 -264 c13 -5 30 -21 37 -35 23 -43 -5 -87 -90 -143 -39 -27 -89
-60 -111 -75 -52 -35 -123 -50 -171 -37 -50 14 -60 36 -40 88 12 32 21 41 40
41 13 0 23 6 23 15 0 8 28 30 63 50 34 21 77 48 96 62 48 37 110 51 153 34z
m-2263 -72 c28 -10 45 -39 22 -39 -5 0 -12 -12 -16 -27 -10 -41 -40 -69 -102
-94 l-56 -22 -28 34 c-16 19 -29 37 -29 41 0 4 10 23 22 44 35 60 116 88 187
63z m1624 -52 c65 -57 72 -67 75 -104 3 -35 0 -41 -20 -47 -64 -17 -133 15
-189 89 -59 79 -53 125 17 125 40 0 51 -6 117 -63z"/>
<path d="M1156 1296 c-21 -13 -49 -41 -62 -62 l-24 -39 0 -484 c0 -482 0 -483
22 -523 13 -22 41 -51 64 -64 l41 -24 1423 0 1422 0 40 22 c22 13 51 41 64 64
l24 41 0 483 0 483 -24 41 c-13 23 -42 51 -64 64 l-40 22 -1423 0 -1424 0 -39
-24z m954 -261 l0 -105 -135 0 -135 0 0 -330 0 -330 -130 0 -130 0 0 330 0
330 -140 0 -140 0 0 105 0 105 405 0 405 0 0 -105z m443 -13 c37 -65 72 -125
79 -135 11 -14 23 1 88 118 l75 135 143 0 c112 0 142 -3 136 -12 -5 -7 -66
-102 -136 -211 l-128 -198 150 -224 150 -225 -148 0 -149 0 -83 135 c-46 75
-86 138 -91 140 -4 3 -44 -56 -90 -131 -45 -75 -88 -138 -94 -140 -6 -3 -72
-3 -148 -2 l-136 3 144 219 c80 120 145 224 145 231 0 7 -49 86 -108 176 -59
90 -118 181 -131 202 l-23 37 144 0 144 0 67 -118z m1387 13 l0 -105 -135 0
-135 0 0 -330 0 -330 -130 0 -130 0 0 330 0 330 -140 0 -140 0 0 105 0 105
405 0 405 0 0 -105z"/>
</g>
</svg>
