<?xml version="1.0" standalone="no"?>
<!DOCTYPE svg PUBLIC "-//W3C//DTD SVG 20010904//EN"
 "http://www.w3.org/TR/2001/REC-SVG-20010904/DTD/svg10.dtd">
<svg version="1.0" xmlns="http://www.w3.org/2000/svg"
 width="511.505983pt" height="445.951953pt" viewBox="0 0 511.505983 445.951953"
 preserveAspectRatio="xMidYMid meet">
<metadata>
Created by potrace 1.13, written by Peter Selinger 2001-2015
</metadata>
<g transform="translate(-0.500000,478.890009) scale(0.100000,-0.100000)"
fill="#000000" stroke="none">
<path d="M846 4780 c-217 -34 -406 -129 -557 -280 -124 -124 -211 -272 -261
-445 -20 -71 -23 -101 -23 -265 0 -163 3 -194 23 -264 130 -451 534 -742 1002
-723 156 6 261 31 395 97 269 130 463 369 530 650 10 41 21 84 26 95 7 18 8
17 8 -6 2 -48 43 -184 80 -265 56 -119 113 -198 211 -294 199 -194 451 -289
735 -277 146 6 255 32 384 93 121 57 198 113 291 210 127 134 200 264 247 443
22 82 26 117 26 246 0 128 -4 164 -25 245 -173 650 -899 947 -1481 606 -143
-84 -266 -210 -353 -363 -47 -82 -99 -228 -112 -316 l-8 -52 -13 60 c-68 329
-276 594 -569 727 -153 69 -394 103 -556 78z m311 -624 c77 -35 163 -123 200
-203 23 -50 27 -72 27 -158 1 -89 -2 -107 -26 -158 -59 -126 -154 -204 -285
-233 -65 -14 -86 -15 -141 -5 -306 57 -443 409 -253 650 37 47 93 86 168 117
50 21 71 24 153 22 80 -3 105 -8 157 -32z m1989 -4 c81 -41 150 -112 188 -192
28 -59 31 -74 31 -165 0 -92 -3 -106 -32 -167 -58 -123 -167 -206 -302 -229
-201 -36 -408 114 -452 327 -31 153 49 328 189 411 72 42 119 53 222 50 83 -3
102 -7 156 -35z"/>
<path d="M1562 2775 c-30 -18 -90 -47 -134 -65 -294 -116 -605 -114 -882 5
-45 19 -87 35 -93 35 -20 0 -125 -103 -159 -156 -18 -28 -42 -79 -53 -112 -21
-60 -21 -80 -21 -895 0 -917 -3 -877 63 -1000 60 -113 203 -218 335 -246 75
-16 2659 -16 2734 0 186 39 350 201 388 384 7 33 10 326 8 880 l-3 830 -23 57
c-35 87 -98 175 -159 220 -52 40 -56 41 -86 29 -218 -88 -327 -113 -502 -114
-207 -1 -366 39 -552 138 l-85 45 -362 -1 -361 -1 -53 -33z m1458 -865 l0
-340 -340 0 -340 0 0 115 0 115 -180 0 -180 0 0 -335 0 -335 180 0 180 0 0
115 0 115 340 0 340 0 0 -340 0 -340 -340 0 -340 0 0 120 0 120 -285 0 -285 0
0 220 0 220 -160 0 -160 0 0 -115 0 -115 -340 0 -340 0 0 340 0 340 340 0 340
0 0 -120 0 -120 160 0 160 0 0 220 0 220 285 0 285 0 0 120 0 120 340 0 340 0
0 -340z"/>
<path d="M4845 2589 c-16 -5 -230 -125 -475 -267 l-445 -259 0 -497 0 -497
459 -267 459 -266 63 0 c87 0 148 37 187 113 l27 55 0 869 c0 969 5 903 -70
971 -56 51 -132 67 -205 45z"/>
</g>
</svg>
