<?xml version="1.0" standalone="no"?>
<!DOCTYPE svg PUBLIC "-//W3C//DTD SVG 20010904//EN"
 "http://www.w3.org/TR/2001/REC-SVG-20010904/DTD/svg10.dtd">
<svg version="1.0" xmlns="http://www.w3.org/2000/svg"
 width="512.000000pt" height="512.000000pt" viewBox="0 0 512.000000 512.000000"
 preserveAspectRatio="xMidYMid meet">
<metadata>
Created by potrace 1.13, written by Peter Selinger 2001-2015
</metadata>
<g transform="translate(0.000000,512.000000) scale(0.100000,-0.100000)"
fill="#000000" stroke="none">
<path d="M2265 5105 c-428 -56 -796 -192 -1135 -420 -377 -254 -665 -584 -865
-990 -120 -244 -200 -496 -241 -755 -22 -141 -30 -490 -15 -633 141 -1320
1232 -2307 2551 -2307 667 0 1290 251 1779 716 265 252 502 618 629 969 47
129 105 358 128 500 25 155 30 500 10 665 -161 1313 -1248 2277 -2561 2269
-99 -1 -225 -7 -280 -14z m600 -354 l110 -16 3 -259 c2 -227 1 -258 -13 -252
-8 3 -54 13 -102 23 -125 25 -481 25 -606 0 -48 -10 -94 -20 -102 -23 -14 -6
-15 25 -13 252 l3 258 45 8 c178 32 499 36 675 9z m-1674 -871 l165 -95 -79
-90 c-140 -161 -274 -386 -328 -554 -13 -39 -28 -71 -33 -71 -6 0 -106 56
-222 123 l-212 123 32 79 c77 189 203 401 336 564 l65 79 55 -31 c30 -17 130
-74 221 -127z m3147 -8 c106 -144 201 -312 267 -477 l33 -79 -212 -123 c-116
-67 -216 -123 -222 -123 -5 0 -20 32 -33 71 -54 168 -188 393 -328 554 l-79
90 219 126 220 127 40 -47 c22 -25 65 -79 95 -119z m-1462 15 c174 -44 294
-98 442 -197 285 -190 488 -485 573 -830 21 -84 24 -119 24 -300 0 -181 -3
-216 -24 -300 -85 -345 -288 -640 -573 -830 -149 -100 -268 -153 -447 -198
-98 -25 -122 -27 -311 -27 -189 0 -213 2 -311 27 -179 45 -298 98 -447 198
-285 190 -488 485 -573 830 -21 84 -24 119 -24 300 0 190 2 213 27 311 45 179
98 298 198 447 177 265 461 472 760 554 150 41 207 48 400 44 158 -3 200 -8
286 -29z m-1940 -1865 c64 -197 198 -435 320 -570 40 -45 45 -55 33 -66 -8 -7
-106 -66 -218 -131 l-205 -117 -28 33 c-56 68 -198 286 -247 382 -54 106 -134
303 -129 318 4 11 431 259 437 253 3 -3 19 -48 37 -102z m3527 -31 c108 -63
197 -118 197 -123 0 -21 -83 -220 -131 -313 -51 -100 -194 -320 -248 -383
l-29 -34 -203 118 c-112 64 -210 123 -218 130 -12 11 -7 21 33 66 121 133 254
371 317 561 17 51 32 98 35 106 3 11 8 11 27 -1 12 -8 111 -65 220 -127z
m-2206 -1118 c125 -25 481 -25 606 0 48 10 94 20 102 23 14 6 15 -25 13 -252
l-3 -259 -110 -16 c-73 -11 -175 -17 -305 -17 -130 0 -232 6 -305 17 l-110 16
-3 259 c-2 227 -1 258 13 252 8 -3 54 -13 102 -23z"/>
<path d="M2531 3620 c-68 -16 -100 -75 -101 -186 l0 -50 -72 -23 c-193 -60
-314 -185 -348 -358 -37 -185 50 -355 234 -458 57 -31 101 -50 283 -119 139
-53 203 -113 203 -191 0 -153 -205 -197 -519 -110 -112 31 -191 -28 -191 -142
0 -84 47 -141 137 -168 43 -12 226 -45 256 -45 4 0 7 -30 7 -68 0 -81 21 -127
71 -154 41 -22 68 -23 114 -4 55 23 75 67 75 163 0 82 0 83 28 89 181 40 318
139 382 277 81 174 51 377 -74 503 -65 64 -145 108 -330 183 -172 69 -231 103
-264 151 -42 63 -14 137 66 173 63 27 206 26 324 -2 98 -24 138 -18 183 29 22
23 29 41 33 85 5 65 -9 106 -50 140 -35 30 -76 42 -195 57 l-93 11 0 64 c0 36
-6 76 -14 92 -27 51 -84 75 -145 61z"/>
</g>
</svg>
