<?xml version="1.0" standalone="no"?>
<!DOCTYPE svg PUBLIC "-//W3C//DTD SVG 20010904//EN"
 "http://www.w3.org/TR/2001/REC-SVG-20010904/DTD/svg10.dtd">
<svg version="1.0" xmlns="http://www.w3.org/2000/svg"
 width="512.000000pt" height="512.000000pt" viewBox="0 0 512.000000 512.000000"
 preserveAspectRatio="xMidYMid meet">
<metadata>
Created by potrace 1.13, written by Peter Selinger 2001-2015
</metadata>
<g transform="translate(0.000000,512.000000) scale(0.100000,-0.100000)"
fill="#000000" stroke="none">
<path d="M3935 4683 c-170 -35 -312 -66 -314 -69 -5 -5 80 -429 89 -444 5 -8
103 8 319 53 171 35 313 66 315 68 5 6 -85 443 -92 450 -4 3 -146 -23 -317
-58z"/>
<path d="M0 4495 l0 -235 460 0 460 0 0 235 0 235 -460 0 -460 0 0 -235z"/>
<path d="M2570 4495 l0 -235 465 0 465 0 0 235 0 235 -465 0 -465 0 0 -235z"/>
<path d="M4320 4104 c-30 -7 -171 -36 -312 -65 -197 -40 -258 -56 -258 -67 0
-11 621 -3052 624 -3058 2 -3 631 128 635 132 5 5 -620 3057 -628 3065 -3 3
-31 0 -61 -7z m307 -2295 c57 -28 117 -98 144 -168 29 -77 24 -197 -12 -261
-92 -164 -289 -139 -377 49 -29 63 -40 166 -23 226 18 67 64 129 112 153 55
28 101 28 156 1z"/>
<path d="M0 2515 l0 -1565 460 0 460 0 0 1565 0 1565 -460 0 -460 0 0 -1565z
m578 -736 c106 -53 157 -133 157 -249 -1 -62 -5 -84 -27 -126 -52 -99 -141
-154 -248 -153 -109 0 -186 41 -241 127 -151 239 106 528 359 401z"/>
<path d="M2570 3940 l0 -140 465 0 465 0 0 140 0 140 -465 0 -465 0 0 -140z"/>
<path d="M1100 3641 l0 -170 57 -21 c175 -66 343 -92 583 -93 244 0 427 32
528 93 l32 20 0 170 0 170 -600 0 -600 0 0 -169z"/>
<path d="M2570 2515 l0 -1105 465 0 465 0 0 1105 0 1105 -465 0 -465 0 0
-1105z"/>
<path d="M1100 2156 c0 -619 2 -1126 5 -1126 3 0 52 13 109 29 178 50 298 65
526 65 127 1 236 -4 285 -13 70 -12 207 -47 258 -66 16 -7 17 50 17 1109 0
614 -1 1116 -2 1116 -2 0 -28 -9 -58 -21 -114 -43 -226 -60 -435 -66 -265 -7
-445 17 -682 92 l-23 7 0 -1126z"/>
<path d="M2570 1090 l0 -140 465 0 465 0 0 140 0 140 -465 0 -465 0 0 -140z"/>
<path d="M1535 943 c-118 -14 -235 -39 -327 -70 l-108 -35 0 -224 0 -224 600
0 600 0 0 225 0 225 -47 24 c-121 61 -277 86 -513 84 -96 0 -188 -3 -205 -5z"/>
<path d="M4717 805 c-163 -34 -299 -64 -301 -66 -3 -2 12 -85 32 -184 29 -140
40 -180 52 -178 33 4 615 125 619 129 4 3 -53 305 -65 347 -3 9 -13 17 -22 16
-9 -1 -151 -29 -315 -64z"/>
<path d="M0 580 l0 -190 460 0 460 0 0 190 0 190 -460 0 -460 0 0 -190z"/>
<path d="M2570 580 l0 -190 465 0 465 0 0 190 0 190 -465 0 -465 0 0 -190z"/>
</g>
</svg>
