<?xml version="1.0" standalone="no"?>
<!DOCTYPE svg PUBLIC "-//W3C//DTD SVG 20010904//EN"
 "http://www.w3.org/TR/2001/REC-SVG-20010904/DTD/svg10.dtd">
<svg version="1.0" xmlns="http://www.w3.org/2000/svg"
 width="414.312093pt" height="416.302851pt" viewBox="0 0 414.312093 416.302851"
 preserveAspectRatio="xMidYMid meet">
<metadata>
Created by potrace 1.13, written by Peter Selinger 2001-2015
</metadata>
<g transform="translate(-49.356598,462.634160) scale(0.100000,-0.100000)"
fill="#000000" stroke="none">
<path d="M2290 4624 c-14 -2 -70 -11 -125 -20 -310 -49 -658 -205 -910 -407
-76 -62 -270 -254 -334 -332 -215 -261 -364 -585 -427 -930 -27 -146 -27 -634
0 -780 61 -332 209 -660 409 -910 62 -76 254 -270 332 -334 261 -215 585 -364
930 -427 146 -27 634 -27 780 0 345 63 669 212 930 427 78 64 270 258 332 334
200 250 348 578 409 910 27 146 27 634 0 780 -61 332 -209 660 -409 910 -62
76 -254 270 -332 334 -205 169 -461 303 -715 376 -206 59 -277 68 -575 71
-148 1 -281 0 -295 -2z m57 -170 c-3 -3 -12 -4 -19 -1 -8 3 -5 6 6 6 11 1 17
-2 13 -5z m-37 -17 c0 -13 23 -23 213 -89 l118 -41 -33 -20 c-120 -72 -356
-296 -463 -439 -27 -37 -56 -67 -63 -68 -12 0 -524 184 -549 199 -11 6 -1 19
39 53 191 163 446 309 651 374 31 10 57 24 57 31 0 7 7 13 15 13 8 0 15 -6 15
-13z m848 -67 c23 -7 42 -19 42 -25 0 -7 -16 -56 -36 -108 l-36 -95 -97 34
c-220 79 -351 129 -351 135 0 7 120 62 170 78 106 33 143 30 308 -19z m482
-243 c115 -77 210 -158 262 -224 l47 -60 -107 39 c-59 22 -135 49 -169 61 -35
12 -63 27 -63 34 0 25 -51 126 -95 190 l-46 66 48 -28 c26 -15 82 -50 123 -78z
m-316 -71 c94 -35 196 -72 227 -81 l57 -18 21 -71 c45 -155 79 -490 64 -627
l-8 -66 -380 138 c-209 76 -386 139 -394 139 -7 0 -11 6 -8 13 2 6 55 153 118
325 62 171 118 312 123 312 5 0 86 -29 180 -64z m-1905 -52 l71 -26 -83 -88
c-98 -103 -183 -213 -260 -337 -78 -128 -130 -231 -187 -380 l-9 -21 -92 34
c-51 19 -94 36 -96 38 -2 2 16 48 40 102 52 118 144 274 223 382 60 80 294
322 312 322 6 0 43 -12 81 -26z m2591 -206 c95 -101 236 -330 311 -504 48
-113 127 -360 117 -369 -3 -3 -37 7 -76 21 -68 25 -72 29 -78 63 -50 293 -147
565 -267 754 -39 61 -41 71 -7 35z m-1440 -213 c162 -59 299 -111 303 -115 7
-6 -303 -884 -317 -897 -3 -3 -905 323 -912 329 -5 5 86 219 146 345 65 137
143 272 237 415 l64 97 92 -34 c51 -18 225 -81 387 -140z m1332 -486 c106 -39
234 -84 285 -102 l91 -31 8 -96 c17 -229 -14 -513 -82 -751 -19 -66 -34 -122
-34 -125 0 -11 -47 4 -300 97 -151 55 -298 108 -326 117 l-51 16 18 47 c78
203 155 557 184 837 4 34 9 62 11 62 2 0 90 -32 196 -71z m-2597 -89 c171 -62
312 -114 314 -116 2 -2 -14 -61 -37 -131 -76 -236 -129 -478 -152 -703 -7 -58
-13 -106 -14 -108 -2 -1 -132 44 -289 100 l-285 103 -8 95 c-16 221 15 523 76
730 43 142 48 153 68 148 9 -3 157 -56 327 -118z m1636 -596 c206 -75 410
-149 453 -165 44 -16 81 -30 82 -32 7 -7 -93 -238 -171 -392 -80 -158 -211
-379 -262 -442 l-18 -21 -390 142 c-317 116 -390 146 -388 160 1 17 314 886
318 886 2 0 171 -61 376 -136z m-2149 -253 c32 -11 38 -18 44 -49 53 -306 144
-563 267 -755 l37 -57 -37 15 c-20 8 -42 23 -50 33 -153 196 -281 446 -348
682 -18 63 -35 130 -38 147 l-6 32 47 -18 c26 -10 64 -24 84 -30z m3486 -233
c95 -35 93 -20 27 -168 -51 -115 -144 -273 -222 -378 -57 -77 -244 -277 -273
-292 -9 -5 -47 4 -98 22 l-83 30 83 87 c96 99 150 168 238 301 72 109 169 299
196 383 14 43 23 56 34 51 8 -3 52 -19 98 -36z m-2372 -172 c160 -58 297 -106
304 -106 7 0 10 -6 8 -12 -3 -7 -56 -154 -119 -325 -62 -172 -118 -313 -123
-313 -5 0 -86 29 -180 64 -94 35 -197 72 -228 82 -40 12 -58 23 -63 38 -20 70
-45 180 -54 236 -18 112 -31 341 -24 427 l6 81 91 -33 c50 -18 222 -81 382
-139z m1405 -512 c145 -52 270 -99 278 -103 10 -6 -6 -25 -63 -72 -177 -146
-398 -273 -596 -343 -52 -19 -96 -38 -98 -44 -1 -5 10 -14 25 -20 l28 -10 -25
-6 c-69 -16 -196 -26 -323 -25 l-142 2 126 8 c69 4 159 15 200 23 41 9 77 16
82 16 21 0 2 28 -25 38 -160 53 -279 100 -277 108 2 5 34 31 72 57 92 65 271
239 374 365 47 56 88 102 93 102 4 0 126 -43 271 -96z m-1991 -21 c52 -19 116
-42 141 -50 40 -14 47 -20 58 -59 20 -67 80 -162 151 -237 72 -78 69 -77 -76
8 -124 73 -318 248 -393 354 l-24 33 24 -7 c13 -4 67 -23 119 -42z m1005 -365
c61 -22 112 -42 114 -45 9 -7 -36 -33 -104 -59 -38 -14 -118 -34 -178 -45
-107 -18 -107 -18 -177 3 -39 12 -70 26 -70 32 0 6 18 61 41 122 l40 111 112
-39 c62 -21 162 -57 222 -80z"/>
</g>
</svg>
