<?xml version="1.0" standalone="no"?>
<!DOCTYPE svg PUBLIC "-//W3C//DTD SVG 20010904//EN"
 "http://www.w3.org/TR/2001/REC-SVG-20010904/DTD/svg10.dtd">
<svg version="1.0" xmlns="http://www.w3.org/2000/svg"
 width="512.000000pt" height="512.000000pt" viewBox="0 0 512.000000 512.000000"
 preserveAspectRatio="xMidYMid meet">
<metadata>
Created by potrace 1.13, written by Peter Selinger 2001-2015
</metadata>
<g transform="translate(0.000000,512.000000) scale(0.100000,-0.100000)"
fill="#000000" stroke="none">
<path d="M3235 4974 c-220 -35 -931 -141 -1580 -234 -649 -93 -1202 -175
-1230 -181 -93 -21 -175 -69 -255 -149 -119 -118 -170 -237 -170 -394 0 -54
83 -605 265 -1770 146 -930 272 -1717 280 -1748 47 -187 213 -354 400 -403
100 -26 199 -19 571 41 430 69 654 84 755 53 58 -18 110 -19 1259 -19 1148 0
1201 1 1259 19 147 46 272 172 315 320 14 49 16 239 16 1837 0 1749 0 1783
-20 1846 -39 125 -122 225 -237 283 -86 43 -168 55 -375 55 l-188 0 -5 28
c-26 123 -59 198 -124 280 -58 73 -167 147 -263 177 -123 39 -205 34 -673 -41z
m658 -158 c31 -15 78 -48 103 -74 48 -48 104 -150 104 -189 l0 -23 -852 0
c-527 0 -878 -4 -918 -10 -190 -30 -354 -189 -390 -379 -15 -78 -14 -3522 1
-3593 6 -29 21 -74 34 -101 l22 -47 -29 0 c-45 0 -130 45 -183 97 -98 97 -74
-25 -375 1893 -216 1373 -270 1736 -265 1780 7 62 40 142 82 195 36 47 128
108 184 124 24 6 539 90 1144 186 1231 195 1229 195 1338 141z m-2845 -363
c-78 -156 -103 -248 -95 -353 9 -111 535 -3442 553 -3500 23 -76 49 -125 100
-192 l44 -56 -27 -6 c-152 -32 -489 -77 -553 -74 -90 4 -167 36 -233 97 -43
40 -99 131 -110 181 -3 14 -126 788 -272 1720 -211 1340 -266 1710 -263 1765
5 87 39 165 102 233 81 86 119 99 439 147 309 47 320 48 315 38z m1452 -295
c13 -40 51 -160 86 -265 l62 -193 -49 0 -48 0 -24 78 -23 77 -92 3 c-64 2 -92
-1 -92 -9 0 -6 -9 -42 -21 -80 l-21 -69 -45 0 c-33 0 -44 4 -41 14 2 8 39 127
83 265 l80 251 61 0 60 0 24 -72z m795 -1008 c70 -24 129 -63 186 -122 l47
-49 60 61 c104 104 252 154 385 131 235 -41 406 -260 383 -491 -28 -270 -200
-603 -451 -870 -112 -118 -253 -247 -295 -267 -19 -9 -63 -19 -97 -21 -97 -7
-132 15 -318 202 -179 180 -262 289 -354 466 -98 190 -142 348 -142 510 0 114
21 192 76 274 114 171 325 243 520 176z m1227 -2242 l25 -73 91 -3 91 -3 22
76 22 75 44 0 c23 0 43 -3 43 -7 0 -5 -37 -124 -82 -265 l-82 -258 -61 0 -60
0 -83 258 c-45 141 -83 260 -82 265 0 4 20 7 44 7 l44 0 24 -72z"/>
<path d="M2400 4136 c-5 -15 -10 -31 -10 -36 0 -5 -11 -44 -25 -86 -14 -42
-25 -80 -25 -85 0 -5 34 -9 75 -9 41 0 75 1 75 3 -1 10 -70 230 -74 234 -3 3
-10 -6 -16 -21z"/>
<path d="M4565 743 c11 -30 43 -136 55 -180 6 -24 14 -43 18 -43 7 0 58 158
69 213 l5 27 -77 0 c-69 0 -76 -2 -70 -17z"/>
</g>
</svg>
