<?xml version="1.0" standalone="no"?>
<!DOCTYPE svg PUBLIC "-//W3C//DTD SVG 20010904//EN"
 "http://www.w3.org/TR/2001/REC-SVG-20010904/DTD/svg10.dtd">
<svg version="1.0" xmlns="http://www.w3.org/2000/svg"
 width="512.000000pt" height="512.000000pt" viewBox="0 0 512.000000 512.000000"
 preserveAspectRatio="xMidYMid meet">
<metadata>
Created by potrace 1.13, written by Peter Selinger 2001-2015
</metadata>
<g transform="translate(0.000000,512.000000) scale(0.100000,-0.100000)"
fill="#000000" stroke="none">
<path d="M3335 4950 c-613 -55 -1122 -336 -1310 -725 -99 -205 -110 -399 -33
-612 77 -215 314 -459 561 -579 31 -16 56 -33 53 -39 -2 -5 -65 -116 -139
-245 -113 -197 -132 -236 -116 -238 20 -4 389 60 659 114 264 52 594 130 790
186 744 210 1205 539 1295 922 21 88 19 237 -4 328 -112 437 -605 784 -1239
872 -140 20 -388 27 -517 16z m688 -762 c79 -40 101 -142 52 -246 -24 -51
-110 -147 -190 -210 l-40 -31 118 -1 117 0 0 -44 c0 -74 -6 -76 -208 -76 -209
0 -222 4 -222 75 0 24 3 50 6 59 3 8 50 51 104 95 120 99 177 162 186 208 8
44 -16 73 -62 73 -40 0 -69 -33 -79 -90 -6 -36 -10 -40 -37 -40 -41 0 -63 14
-78 49 -24 60 13 141 82 177 71 37 181 38 251 2z m-1205 -13 c2 -22 -24 -85
-95 -230 -54 -110 -115 -238 -136 -284 l-37 -84 -52 5 c-65 7 -93 34 -77 76 6
14 57 115 115 222 57 108 104 199 104 203 0 4 -49 7 -110 7 l-110 0 0 40 c0
27 7 47 20 60 19 19 31 20 198 18 l177 -3 3 -30z m442 -115 c15 -15 20 -33 20
-75 l0 -54 63 -3 62 -3 -3 -35 c-5 -50 -17 -59 -80 -62 l-57 -3 -5 -72 c-3
-39 -8 -75 -12 -79 -14 -13 -73 11 -86 36 -8 16 -11 42 -7 73 l6 47 -66 0 -65
0 0 30 c0 46 31 70 90 70 l50 0 0 44 c0 24 3 58 6 75 6 26 11 31 35 31 16 0
38 -9 49 -20z m1500 -86 c0 -74 -1 -74 -185 -74 l-165 0 0 37 c0 68 12 73 192
73 l158 0 0 -36z m-30 -232 c0 -74 -7 -77 -192 -77 l-163 0 3 40 c5 69 20 75
198 75 l154 0 0 -38z"/>
<path d="M1020 3584 c-82 -15 -174 -41 -234 -66 -234 -96 -420 -290 -507 -529
-184 -505 90 -1048 606 -1205 80 -24 106 -27 245 -28 169 -1 228 10 363 65
150 62 317 201 410 342 160 242 193 569 86 848 -58 150 -196 324 -333 418 -71
49 -203 109 -291 132 -78 20 -286 34 -345 23z"/>
<path d="M625 1599 c-71 -10 -228 -31 -348 -47 -119 -16 -221 -33 -226 -38 -4
-5 -14 -220 -20 -479 -7 -259 -16 -519 -22 -580 -10 -126 -12 -256 -3 -279 6
-14 115 -16 1137 -16 l1130 0 -6 198 c-4 108 -12 411 -18 672 -6 261 -15 479
-19 483 -6 7 -109 23 -575 87 -77 11 -147 19 -156 20 -8 0 -89 -88 -178 -196
-90 -107 -166 -194 -170 -192 -9 3 -204 227 -283 323 -61 75 -46 72 -243 44z"/>
</g>
</svg>
