<?xml version="1.0" standalone="no"?>
<!DOCTYPE svg PUBLIC "-//W3C//DTD SVG 20010904//EN"
 "http://www.w3.org/TR/2001/REC-SVG-20010904/DTD/svg10.dtd">
<svg version="1.0" xmlns="http://www.w3.org/2000/svg"
 width="512.000000pt" height="512.000000pt" viewBox="0 0 512.000000 512.000000"
 preserveAspectRatio="xMidYMid meet">
<metadata>
Created by potrace 1.13, written by Peter Selinger 2001-2015
</metadata>
<g transform="translate(0.000000,512.000000) scale(0.100000,-0.100000)"
fill="#000000" stroke="none">
<path d="M2105 4724 c-319 -70 -544 -369 -522 -694 33 -485 545 -769 980 -543
98 50 220 172 270 270 198 381 8 832 -403 958 -78 24 -238 28 -325 9z m204
-188 c24 -29 24 -72 -1 -101 -21 -24 -36 -30 -93 -36 -164 -20 -274 -130 -294
-294 -6 -57 -12 -72 -36 -93 -33 -28 -79 -25 -107 9 -37 44 -13 204 45 299 30
49 104 127 153 161 112 77 291 106 333 55z"/>
<path d="M3083 3613 l-103 -35 0 -57 c0 -31 -9 -90 -21 -131 -61 -222 -207
-368 -429 -429 -94 -26 -156 -26 -250 0 -140 39 -269 125 -345 232 l-20 28
-113 -38 -113 -39 40 -61 c60 -89 213 -231 297 -275 118 -62 195 -78 379 -78
184 0 260 16 380 78 98 51 276 229 327 327 63 121 79 200 76 367 l-3 145 -102
-34z"/>
<path d="M3293 2973 l-103 -35 0 -57 c0 -31 -9 -90 -21 -131 -61 -222 -207
-368 -429 -429 -94 -26 -156 -26 -250 0 -140 39 -269 125 -345 232 l-20 28
-113 -38 -113 -39 40 -61 c60 -89 213 -231 297 -275 118 -62 195 -78 379 -78
184 0 260 16 380 78 98 51 276 229 327 327 63 121 79 200 76 367 l-3 145 -102
-34z"/>
<path d="M462 1685 c-220 -50 -405 -236 -453 -456 -17 -82 -7 -248 21 -328 49
-137 162 -266 291 -332 110 -55 377 -119 792 -189 680 -114 1201 -130 1376
-40 187 95 29 319 -459 649 -388 262 -1009 600 -1250 681 -85 28 -231 35 -318
15z"/>
<path d="M3015 1619 c-263 -21 -429 -69 -489 -139 -113 -135 133 -354 729
-653 338 -169 776 -353 1040 -437 256 -81 482 -35 651 134 117 117 174 254
174 423 0 171 -52 295 -175 419 -122 123 -202 156 -469 193 -427 60 -1117 88
-1461 60z"/>
</g>
</svg>
