<?xml version="1.0" standalone="no"?>
<!DOCTYPE svg PUBLIC "-//W3C//DTD SVG 20010904//EN"
 "http://www.w3.org/TR/2001/REC-SVG-20010904/DTD/svg10.dtd">
<svg version="1.0" xmlns="http://www.w3.org/2000/svg"
 width="512.000000pt" height="512.000000pt" viewBox="0 0 512.000000 512.000000"
 preserveAspectRatio="xMidYMid meet">
<metadata>
Created by potrace 1.13, written by Peter Selinger 2001-2015
</metadata>
<g transform="translate(0.000000,512.000000) scale(0.100000,-0.100000)"
fill="#000000" stroke="none">
<path d="M1254 4736 c-310 -81 -541 -314 -626 -630 -30 -113 -30 -307 1 -421
45 -167 124 -298 255 -422 71 -67 105 -91 198 -136 156 -77 220 -92 393 -91
122 1 151 4 228 27 312 95 533 326 609 635 29 118 28 294 -1 407 -82 314 -332
561 -641 635 -122 29 -294 27 -416 -4z"/>
<path d="M3434 4736 c-481 -127 -761 -635 -608 -1103 60 -183 181 -345 337
-452 68 -46 199 -106 282 -127 98 -26 313 -25 410 0 153 41 275 108 382 210
129 121 210 257 254 421 31 113 31 307 1 421 -69 260 -229 456 -467 570 -131
63 -187 76 -355 80 -128 4 -155 1 -236 -20z"/>
<path d="M905 2965 c-208 -33 -427 -150 -589 -313 -157 -158 -262 -355 -301
-564 -13 -70 -15 -168 -13 -606 l3 -523 70 -24 c175 -59 497 -137 686 -166 74
-11 150 -24 169 -30 51 -13 238 -28 443 -36 l177 -6 0 219 c0 300 18 401 94
544 88 163 255 303 444 371 l63 22 -49 51 c-91 95 -148 215 -172 362 -28 174
46 384 185 525 33 33 74 69 92 80 18 12 33 24 33 28 0 12 -160 61 -235 71
-108 15 -1002 11 -1100 -5z"/>
<path d="M3090 2965 c-82 -15 -210 -55 -210 -66 0 -4 29 -29 64 -54 56 -41
130 -127 178 -205 60 -98 85 -309 54 -445 -23 -97 -80 -207 -144 -276 -51 -55
-59 -79 -27 -79 23 0 179 -75 229 -110 63 -42 155 -134 195 -193 41 -61 104
-196 122 -262 8 -32 15 -144 18 -310 l6 -260 175 2 c371 4 811 81 1275 221
l90 28 3 514 c3 569 0 617 -53 762 -56 156 -103 237 -204 358 -167 199 -425
345 -674 379 -118 17 -1001 13 -1097 -4z"/>
<path d="M2455 2871 c-209 -46 -364 -195 -417 -402 -37 -150 -10 -297 79 -432
111 -166 321 -259 521 -229 308 47 517 351 447 651 -57 242 -254 406 -500 416
-49 2 -108 0 -130 -4z"/>
<path d="M2230 1774 c-14 -3 -63 -17 -109 -31 -201 -63 -379 -240 -448 -447
l-28 -81 -3 -347 c-3 -326 -2 -347 15 -356 56 -30 431 -111 633 -138 151 -20
474 -23 610 -5 197 25 490 103 558 147 l23 15 -3 342 -4 342 -31 89 c-72 205
-234 367 -439 439 l-89 31 -330 2 c-181 1 -341 0 -355 -2z"/>
</g>
</svg>
