<?xml version="1.0" standalone="no"?>
<!DOCTYPE svg PUBLIC "-//W3C//DTD SVG 20010904//EN"
 "http://www.w3.org/TR/2001/REC-SVG-20010904/DTD/svg10.dtd">
<svg version="1.0" xmlns="http://www.w3.org/2000/svg"
 width="512.000000pt" height="512.000000pt" viewBox="0 0 512.000000 512.000000"
 preserveAspectRatio="xMidYMid meet">
<metadata>
Created by potrace 1.13, written by Peter Selinger 2001-2015
</metadata>
<g transform="translate(0.000000,512.000000) scale(0.100000,-0.100000)"
fill="#000000" stroke="none">
<path d="M2560 4630 c0 -269 3 -490 6 -490 3 0 27 18 52 40 130 115 241 162
382 162 433 0 660 -512 370 -835 -95 -106 -230 -167 -369 -167 -140 1 -221 33
-357 142 l-84 67 0 -494 0 -495 476 -2 476 -3 -65 -97 c-36 -54 -75 -123 -88
-155 -27 -70 -37 -215 -20 -293 39 -183 196 -341 382 -385 423 -99 769 340
573 728 -15 28 -49 84 -75 124 -27 40 -49 75 -49 78 0 3 214 5 475 5 l475 0 0
1198 c0 1136 -1 1199 -19 1237 -19 43 -78 100 -118 116 -14 5 -506 9 -1224 9
l-1199 0 0 -490z"/>
<path d="M1156 3494 c-222 -54 -386 -263 -386 -494 0 -118 35 -215 131 -357
27 -40 49 -75 49 -78 0 -3 -177 -5 -392 -5 -434 0 -439 -1 -500 -66 -61 -66
-58 2 -58 -1216 0 -1055 1 -1115 19 -1153 19 -43 78 -100 118 -116 14 -5 475
-9 1144 -9 l1119 0 0 339 0 339 -72 -26 c-99 -34 -245 -41 -353 -17 -186 41
-361 178 -443 345 -55 112 -72 184 -72 300 1 110 10 160 47 250 79 192 251
342 453 396 122 32 254 22 423 -33 16 -5 17 15 17 331 l0 336 -396 2 -396 3
57 85 c95 141 125 225 125 350 0 140 -48 257 -145 355 -128 130 -312 182 -489
139z"/>
<path d="M2560 2010 c0 -220 -2 -400 -5 -400 -2 0 -51 31 -107 68 -131 86
-207 112 -327 112 -388 0 -628 -395 -455 -748 36 -73 142 -179 216 -215 192
-92 360 -74 574 64 50 33 94 59 97 59 4 0 7 -214 7 -475 l0 -475 1198 0 c1144
0 1199 1 1237 19 22 10 52 31 67 47 61 66 58 -3 58 1224 l0 1120 -341 0 c-321
0 -341 -1 -334 -17 45 -112 48 -129 49 -263 1 -113 -3 -146 -21 -205 -62 -197
-229 -366 -428 -432 -70 -24 -96 -27 -210 -27 -115 0 -138 3 -203 26 -107 39
-177 83 -263 169 -63 62 -85 93 -122 170 -25 52 -51 121 -58 154 -18 91 -13
228 11 310 12 39 24 80 27 93 l5 22 -336 0 -336 0 0 -400z"/>
</g>
</svg>
