<?xml version="1.0" standalone="no"?>
<!DOCTYPE svg PUBLIC "-//W3C//DTD SVG 20010904//EN"
 "http://www.w3.org/TR/2001/REC-SVG-20010904/DTD/svg10.dtd">
<svg version="1.0" xmlns="http://www.w3.org/2000/svg"
 width="512.012194pt" height="512.151564pt" viewBox="0 0 512.012194 512.151564"
 preserveAspectRatio="xMidYMid meet">
<metadata>
Created by potrace 1.13, written by Peter Selinger 2001-2015
</metadata>
<g transform="translate(0.000000,512.000279) scale(0.100000,-0.100000)"
fill="#000000" stroke="none">
<path d="M123 5099 c-48 -23 -89 -67 -110 -116 -11 -27 -13 -440 -13 -2423 l0
-2390 21 -45 c23 -49 66 -91 116 -112 48 -20 2468 -20 2516 0 184 78 192 337
14 434 -30 17 -105 18 -1114 21 l-1083 2 0 925 0 924 113 3 c61 2 502 2 980 0
l867 -3 0 -345 0 -344 -633 0 c-695 0 -697 0 -769 -60 -52 -43 -78 -103 -78
-178 0 -101 40 -169 125 -215 40 -22 43 -22 820 -25 543 -2 796 0 831 8 61 13
124 63 157 124 22 41 22 47 25 539 l3 497 309 0 309 0 3 -497 c3 -463 4 -500
22 -533 80 -151 267 -185 384 -69 77 77 72 -22 72 1429 0 1443 4 1364 -67
1432 -58 55 -99 72 -173 72 -97 0 -168 -44 -216 -134 -18 -33 -19 -72 -22
-627 l-3 -593 -1529 0 -1530 0 0 925 0 925 603 0 c647 1 641 0 711 54 104 79
109 263 9 358 -63 60 -31 58 -865 58 -755 0 -763 0 -805 -21z"/>
<path d="M2575 5106 c-46 -20 -94 -64 -118 -110 -22 -41 -22 -46 -25 -578 l-3
-538 -604 0 c-399 0 -613 -4 -632 -11 -96 -36 -153 -119 -153 -223 0 -37 8
-77 19 -101 23 -51 89 -111 138 -124 25 -7 289 -11 784 -11 l745 0 52 26 c29
14 64 41 78 60 53 68 54 86 54 641 l0 513 870 0 870 0 0 -2090 0 -2090 -598 0
c-357 0 -611 -4 -631 -10 -81 -23 -145 -95 -162 -183 -21 -102 32 -212 124
-256 43 -21 53 -21 805 -21 498 0 770 4 788 10 47 18 101 68 123 115 l21 45
-2 2403 -3 2403 -28 42 c-15 23 -46 54 -69 69 l-42 28 -1185 2 c-963 2 -1192
0 -1216 -11z"/>
</g>
</svg>
