<?xml version="1.0" standalone="no"?>
<!DOCTYPE svg PUBLIC "-//W3C//DTD SVG 20010904//EN"
 "http://www.w3.org/TR/2001/REC-SVG-20010904/DTD/svg10.dtd">
<svg version="1.0" xmlns="http://www.w3.org/2000/svg"
 width="511.798925pt" height="510.837884pt" viewBox="0 0 511.798925 510.837884"
 preserveAspectRatio="xMidYMid meet">
<metadata>
Created by potrace 1.13, written by Peter Selinger 2001-2015
</metadata>
<g transform="translate(-0.152923,511.884759) scale(0.100000,-0.100000)"
fill="#000000" stroke="none">
<path d="M4817 5114 c-1 -2 -14 -5 -28 -7 -73 -14 -289 -110 -414 -185 -106
-63 -124 -80 -495 -449 l-366 -363 -1533 0 -1533 0 -34 -21 c-38 -23 -74 -84
-74 -123 0 -35 17 -77 43 -105 24 -25 63 -45 177 -89 41 -16 84 -33 95 -37 11
-5 22 -9 25 -9 3 -1 16 -8 30 -16 14 -7 26 -13 27 -12 5 3 35 -8 160 -60 15
-6 33 -12 38 -14 6 -1 24 -8 40 -15 17 -6 35 -13 40 -14 6 -2 33 -13 60 -26
28 -12 56 -24 62 -25 13 -2 1010 -396 1048 -414 11 -5 45 -19 75 -31 30 -11
66 -26 80 -32 14 -6 28 -11 33 -12 4 -2 8 -3 10 -5 1 -1 10 -3 20 -5 11 -2 20
-5 22 -7 2 -2 -271 -279 -605 -615 l-608 -613 -589 0 c-580 0 -590 0 -608 -20
-15 -16 -17 -26 -9 -48 8 -23 29 -35 139 -80 72 -29 164 -66 205 -82 41 -15
89 -34 105 -41 17 -7 32 -13 35 -14 3 -1 13 -5 23 -8 41 -16 53 -20 62 -22 6
-2 33 -13 60 -26 28 -12 55 -24 61 -25 28 -5 230 -89 236 -99 4 -5 8 -7 8 -3
0 4 14 2 31 -4 21 -7 36 -22 46 -46 14 -34 13 -36 -15 -66 -41 -43 -55 -74
-58 -122 -3 -52 29 -111 74 -137 67 -39 121 -33 192 24 49 39 50 39 82 23 28
-13 38 -29 67 -102 19 -48 58 -148 87 -222 29 -74 98 -252 154 -395 56 -143
106 -265 112 -272 15 -19 52 -16 71 5 15 17 17 73 17 593 l0 574 620 620 c340
340 621 617 624 614 4 -4 168 -422 373 -949 52 -135 118 -306 148 -380 52
-133 109 -277 201 -515 79 -206 101 -235 181 -242 58 -5 107 18 141 67 l22 33
0 1531 0 1530 358 361 c380 382 416 425 516 619 123 240 166 446 114 545 -36
68 -90 93 -196 90 -45 -2 -84 -4 -85 -5z"/>
</g>
</svg>
