<?xml version="1.0" standalone="no"?>
<!DOCTYPE svg PUBLIC "-//W3C//DTD SVG 20010904//EN"
 "http://www.w3.org/TR/2001/REC-SVG-20010904/DTD/svg10.dtd">
<svg version="1.0" xmlns="http://www.w3.org/2000/svg"
 width="512.000000pt" height="512.000000pt" viewBox="0 0 512.000000 512.000000"
 preserveAspectRatio="xMidYMid meet">
<metadata>
Created by potrace 1.13, written by Peter Selinger 2001-2015
</metadata>
<g transform="translate(0.000000,512.000000) scale(0.100000,-0.100000)"
fill="#000000" stroke="none">
<path d="M340 5103 c-46 -32 -59 -56 -60 -108 0 -94 60 -296 131 -437 91 -184
264 -379 437 -497 145 -98 371 -198 581 -257 9 -3 2 -16 -22 -43 -19 -21 -39
-46 -44 -55 -8 -15 -18 -12 -96 24 -193 89 -346 125 -504 118 -92 -3 -108 -7
-170 -39 -61 -31 -68 -38 -66 -63 7 -101 279 -373 406 -407 45 -12 136 -5 217
16 47 12 51 12 45 -3 -3 -9 -11 -52 -17 -95 -19 -147 1 -219 147 -522 140
-291 236 -540 280 -725 21 -90 49 -131 118 -170 52 -30 53 -30 212 -30 159 0
160 0 212 30 65 37 97 80 113 150 40 179 134 421 290 750 134 282 153 339 153
455 0 61 -5 102 -16 129 -16 36 -16 38 1 31 42 -16 141 -35 187 -35 65 0 149
40 237 114 121 100 249 276 233 318 -8 21 -95 67 -159 84 -142 38 -358 -2
-591 -110 -71 -33 -80 -35 -88 -20 -5 9 -25 33 -43 54 l-33 36 137 46 c286 95
470 203 647 382 117 118 179 203 243 332 72 145 132 341 132 434 0 50 -25 96
-62 116 -37 21 -111 17 -142 -7 -36 -29 -44 -46 -76 -173 -66 -261 -192 -464
-374 -601 -39 -30 -72 -52 -74 -51 -1 2 2 16 8 31 43 112 79 309 86 470 5 110
4 123 -15 153 -31 48 -78 74 -125 68 -83 -10 -126 -72 -126 -181 -1 -190 -58
-422 -151 -607 -56 -112 -68 -123 -161 -146 -242 -61 -417 -85 -518 -71 -177
24 -416 78 -456 104 -12 7 -39 49 -62 92 -100 194 -144 357 -161 605 -7 97
-12 122 -31 148 -24 34 -73 60 -112 60 -33 0 -85 -35 -109 -72 -19 -30 -20
-43 -15 -153 7 -160 43 -358 85 -468 13 -34 6 -34 -44 4 -201 151 -341 375
-401 641 -20 88 -35 119 -70 147 -34 27 -109 28 -144 4z m1190 -1838 c77 -40
113 -139 73 -206 -63 -106 -243 -22 -243 113 1 93 82 137 170 93z m958 -12
c47 -52 17 -156 -61 -206 -52 -34 -96 -35 -135 -2 -55 46 -47 124 19 187 64
61 133 69 177 21z m-371 -965 c13 -12 23 -32 23 -45 0 -32 -65 -159 -85 -167
-27 -10 -195 -7 -215 4 -20 11 -100 155 -100 179 0 8 7 23 17 33 14 16 34 18
176 18 151 0 162 -1 184 -22z"/>
<path d="M4421 3795 c-52 -44 -64 -95 -59 -247 7 -199 33 -249 238 -462 176
-184 195 -221 194 -391 0 -139 -21 -216 -76 -272 -80 -82 -287 -85 -371 -5
-54 51 -107 192 -107 288 0 21 -9 57 -19 80 -62 135 -258 117 -290 -27 -18
-82 25 -307 79 -407 64 -121 187 -227 316 -274 82 -29 253 -36 348 -14 109 26
190 70 266 145 81 80 115 137 146 244 21 70 24 102 24 243 0 269 -30 332 -299
619 -124 133 -131 148 -131 280 0 120 -11 157 -59 198 -28 24 -41 27 -101 27
-59 0 -73 -4 -99 -25z"/>
<path d="M2975 2200 c-100 -11 -225 -37 -340 -70 -155 -45 -175 -53 -174 -64
0 -6 26 -23 58 -38 84 -40 170 -118 209 -191 25 -45 30 -63 20 -66 -7 -2 -62
-28 -123 -58 -157 -78 -393 -228 -515 -328 l-105 -85 -20 27 c-199 269 -403
404 -642 427 -29 3 -53 2 -53 -1 0 -3 29 -63 64 -132 146 -287 186 -490 137
-688 -34 -134 -56 -191 -138 -355 -35 -69 -63 -129 -63 -132 0 -24 173 10 275
54 123 53 320 222 403 347 l35 54 56 -54 c139 -135 475 -348 686 -435 118 -48
398 -111 498 -112 33 0 36 -2 29 -17 -10 -19 -66 -207 -76 -256 -6 -25 -4 -27
23 -27 34 0 174 58 246 102 85 52 178 132 220 190 39 54 42 56 115 73 213 50
511 192 725 348 126 91 156 127 118 141 -24 9 -262 169 -263 177 0 3 32 28 70
55 120 83 215 155 218 164 2 4 -17 35 -41 67 -169 221 -365 371 -624 476 -49
20 -79 43 -155 119 -138 140 -277 225 -440 270 -83 22 -315 32 -433 18z m863
-725 c-14 -30 4 -77 40 -105 60 -48 155 -1 156 77 1 36 3 39 19 29 33 -21 67
-82 73 -133 8 -65 -19 -129 -72 -169 -34 -26 -45 -29 -118 -29 -68 0 -87 4
-120 24 -39 24 -86 104 -86 146 0 50 24 102 66 143 51 49 58 51 42 17z"/>
</g>
</svg>
