<?xml version="1.0" standalone="no"?>
<!DOCTYPE svg PUBLIC "-//W3C//DTD SVG 20010904//EN"
 "http://www.w3.org/TR/2001/REC-SVG-20010904/DTD/svg10.dtd">
<svg version="1.0" xmlns="http://www.w3.org/2000/svg"
 width="505.000000pt" height="511.000000pt" viewBox="0 0 505.000000 511.000000"
 preserveAspectRatio="xMidYMid meet">
<metadata>
Created by potrace 1.13, written by Peter Selinger 2001-2015
</metadata>
<g transform="translate(-3.000000,512.000000) scale(0.100000,-0.100000)"
fill="#000000" stroke="none">
<path d="M1876 5098 c-76 -45 -76 -46 -76 -453 0 -268 4 -375 14 -418 32 -137
157 -251 300 -272 l46 -7 0 -1251 c0 -1234 0 -1251 20 -1292 11 -23 37 -54 58
-69 l37 -26 -262 0 -262 0 -20 -26 c-20 -25 -21 -40 -21 -215 l0 -189 -267 0
-268 0 33 26 c72 57 66 -52 72 1349 5 1252 5 1260 25 1260 20 0 20 -8 25 -585
6 -654 2 -624 77 -675 71 -48 161 -28 217 48 20 27 21 42 24 325 1 163 -1 446
-6 627 -7 327 -8 331 -33 385 -36 77 -97 141 -165 175 -52 26 -70 30 -147 30
l-89 0 -124 -259 -124 -259 26 -23 c83 -78 65 -218 -36 -271 -24 -13 -59 -23
-79 -23 -150 1 -226 184 -120 289 l29 29 -127 261 -127 261 -72 0 c-64 0 -81
-4 -145 -37 -86 -44 -146 -111 -178 -197 -20 -54 -21 -75 -23 -670 -3 -610 -3
-615 18 -643 58 -78 149 -96 221 -44 75 54 73 39 73 682 0 513 2 570 16 576 9
3 20 0 25 -8 5 -8 9 -555 9 -1257 0 -1385 -5 -1281 69 -1342 l36 -30 -248 0
-248 0 -24 -25 -25 -24 0 -384 c0 -374 1 -385 21 -411 l20 -26 2483 0 2483 0
21 23 c21 22 22 32 22 199 l0 177 -26 20 c-25 20 -39 21 -273 21 -208 1 -242
3 -222 14 13 7 36 32 52 56 l29 43 0 1252 c0 911 3 1254 11 1262 6 6 18 9 25
6 12 -4 14 -99 14 -567 0 -360 4 -574 11 -599 13 -50 61 -103 105 -117 69 -23
149 12 184 79 19 39 20 56 19 498 0 252 -4 530 -7 618 -7 149 -9 164 -36 218
-35 71 -100 136 -175 173 -43 21 -75 29 -138 32 -52 3 -83 1 -83 -6 0 -5 -54
-121 -120 -257 -66 -135 -120 -249 -120 -252 0 -3 13 -21 30 -39 118 -135 -18
-333 -186 -269 -63 24 -97 72 -102 144 -4 62 9 101 47 135 12 11 21 23 21 27
0 5 -43 98 -96 206 -52 109 -107 224 -121 257 l-27 58 -80 -4 c-106 -6 -182
-43 -255 -124 -90 -102 -88 -87 -96 -772 l-7 -592 22 -45 c31 -65 101 -103
166 -90 36 6 96 52 117 89 9 15 13 174 17 606 5 577 5 585 25 585 20 0 20 -8
25 -1261 l5 -1260 24 -36 c14 -20 36 -43 50 -52 24 -14 7 -15 -241 -16 l-268
0 0 408 0 409 -23 21 c-23 21 -30 22 -272 22 l-250 0 38 25 c20 14 46 43 57
65 20 39 20 58 20 1293 l0 1255 47 7 c116 17 230 103 281 213 26 56 27 62 33
332 11 430 9 497 -20 543 -48 78 -153 99 -225 44 -65 -50 -66 -58 -66 -429 0
-183 -3 -342 -6 -353 -4 -18 -12 -20 -67 -17 l-62 3 -118 -249 -119 -249 31
-33 c134 -148 -46 -364 -216 -259 -86 53 -98 196 -24 263 12 11 21 23 21 28 0
5 -52 119 -116 253 l-117 245 -53 0 c-30 0 -55 1 -56 3 -1 1 -5 165 -8 364 -5
345 -6 363 -26 389 -53 72 -138 93 -208 52z m724 -2960 c0 -674 1 -693 20
-732 11 -23 37 -53 57 -68 l36 -28 -149 0 -149 0 38 25 c20 14 46 43 57 65 19
38 20 59 20 735 l0 695 35 0 35 0 0 -692z m-1690 -434 c0 -775 -3 -735 69
-794 l36 -30 -140 0 -140 0 33 26 c18 14 41 43 52 65 19 37 20 61 20 734 l0
695 35 0 35 0 0 -696z m3360 -436 c0 -678 0 -693 21 -734 11 -24 35 -52 52
-63 l32 -21 -140 1 c-129 0 -138 1 -113 15 15 8 39 34 53 58 l25 43 0 696 0
697 35 0 35 0 0 -692z"/>
<path d="M2160 5050 c0 -40 4 -70 10 -70 6 0 10 30 10 70 0 40 -4 70 -10 70
-6 0 -10 -30 -10 -70z"/>
<path d="M2451 4992 c-24 -9 -65 -36 -90 -59 -135 -120 -148 -313 -30 -446
169 -193 484 -114 545 137 27 108 -3 213 -82 293 -66 66 -115 86 -214 90 -63
2 -96 -2 -129 -15z"/>
<path d="M772 4562 c-66 -24 -118 -65 -159 -126 -43 -63 -56 -116 -51 -197 23
-321 447 -403 600 -117 20 37 23 58 23 143 0 90 -3 104 -27 145 -82 139 -244
202 -386 152z"/>
<path d="M2333 4283 c2 -5 53 -110 112 -235 60 -126 111 -228 115 -228 3 0 12
16 19 35 7 19 55 123 107 230 52 107 94 197 94 200 0 3 -102 5 -226 5 -124 0
-223 -3 -221 -7z"/>
<path d="M4184 4140 c-99 -20 -185 -84 -232 -175 -24 -43 -27 -62 -27 -140 0
-81 3 -96 30 -143 33 -60 84 -111 147 -144 63 -33 204 -33 268 0 216 113 248
391 61 538 -71 56 -165 80 -247 64z"/>
<path d="M630 3852 c0 -2 38 -83 86 -180 47 -97 99 -207 116 -244 18 -38 34
-68 37 -68 4 0 215 433 239 489 1 3 -106 6 -238 6 -132 0 -240 -1 -240 -3z"/>
<path d="M4000 3417 c0 -2 51 -111 114 -242 102 -214 136 -272 136 -235 0 7
23 60 51 118 128 264 169 352 169 357 0 3 -106 5 -235 5 -129 0 -235 -1 -235
-3z"/>
</g>
</svg>
