<?xml version="1.0" standalone="no"?>
<!DOCTYPE svg PUBLIC "-//W3C//DTD SVG 20010904//EN"
 "http://www.w3.org/TR/2001/REC-SVG-20010904/DTD/svg10.dtd">
<svg version="1.0" xmlns="http://www.w3.org/2000/svg"
 width="512.000000pt" height="511.813211pt" viewBox="0 0 512.000000 511.813211"
 preserveAspectRatio="xMidYMid meet">
<metadata>
Created by potrace 1.13, written by Peter Selinger 2001-2015
</metadata>
<g transform="translate(0.000000,511.854743) scale(0.100000,-0.100000)"
fill="#000000" stroke="none">
<path d="M2247 5105 c-216 -26 -440 -85 -656 -171 -322 -129 -580 -302 -841
-564 -262 -261 -435 -519 -564 -841 -129 -323 -186 -619 -186 -969 0 -575 173
-1092 521 -1557 95 -126 356 -387 482 -482 377 -282 801 -453 1253 -506 149
-17 432 -20 572 -5 473 52 902 222 1289 511 126 95 387 356 482 482 349 466
521 981 521 1557 0 576 -172 1089 -521 1557 -94 126 -356 388 -482 482 -381
284 -798 453 -1255 506 -154 18 -464 18 -615 0z m-371 -321 c149 -59 399 -205
391 -228 -2 -6 -66 -198 -142 -426 -75 -228 -142 -420 -149 -426 -6 -6 -49
-26 -96 -45 -129 -50 -479 -227 -629 -318 -74 -45 -139 -81 -144 -81 -9 0
-515 297 -551 323 -17 12 -15 21 34 153 29 76 83 204 122 284 67 141 71 147
167 241 230 223 487 394 770 510 64 26 121 48 127 48 6 1 51 -15 100 -35z
m1728 -73 c418 -204 754 -510 998 -907 51 -83 128 -226 128 -239 0 -2 -31 15
-68 39 -85 56 -262 146 -368 189 l-80 32 -364 410 c-199 226 -369 417 -376
425 -12 14 -9 110 4 110 3 0 60 -27 126 -59z m-328 -129 c39 -7 59 -27 418
-431 207 -234 376 -431 376 -438 0 -25 -73 -232 -157 -443 -47 -118 -86 -216
-87 -217 -1 -2 -251 -28 -556 -60 -514 -52 -554 -55 -565 -40 -26 36 -424 485
-499 563 l-78 83 153 460 c85 253 160 463 167 466 21 8 408 46 558 54 182 10
221 11 270 3z m-2530 -1314 l274 -162 0 -101 c0 -196 30 -503 71 -722 l21
-113 -223 -349 -223 -349 -75 51 c-83 55 -208 156 -258 209 -54 56 -129 350
-154 605 -27 278 9 671 74 803 55 110 187 302 204 296 8 -3 138 -79 289 -168z
m3188 -530 c117 -180 205 -329 288 -488 l66 -125 -274 -509 c-150 -281 -279
-513 -286 -517 -18 -10 -350 -56 -493 -69 -66 -6 -185 -12 -263 -13 l-144 -2
-274 473 -273 473 108 203 c60 111 155 291 211 399 56 109 102 197 103 198 3
2 1090 117 1115 118 19 1 39 -24 116 -141z m986 -563 c-79 -467 -272 -866
-593 -1226 -76 -86 -228 -225 -319 -293 l-36 -27 -5 28 c-3 15 -8 46 -12 68
-3 22 -20 96 -37 165 l-30 125 283 529 284 528 134 70 c74 38 182 100 240 138
127 83 123 87 91 -105z m-3545 -184 c204 -50 686 -141 750 -141 21 0 24 -5
458 -757 l99 -172 -93 -128 c-190 -263 -230 -313 -250 -313 -20 0 -1082 187
-1111 196 -37 11 -243 300 -372 521 l-76 131 223 351 c155 245 226 349 237
346 8 -2 69 -17 135 -34z m505 -1606 l435 -76 107 -50 c59 -27 131 -59 160
-70 l53 -19 -165 4 c-341 10 -647 86 -955 237 -66 32 -109 57 -95 55 14 -3
221 -39 460 -81z"/>
</g>
</svg>
