<?xml version="1.0" standalone="no"?>
<!DOCTYPE svg PUBLIC "-//W3C//DTD SVG 20010904//EN"
 "http://www.w3.org/TR/2001/REC-SVG-20010904/DTD/svg10.dtd">
<svg version="1.0" xmlns="http://www.w3.org/2000/svg"
 width="373.998219pt" height="511.751248pt" viewBox="0 0 373.998219 511.751248"
 preserveAspectRatio="xMidYMid meet">
<metadata>
Created by potrace 1.13, written by Peter Selinger 2001-2015
</metadata>
<g transform="translate(-69.000000,511.743483) scale(0.100000,-0.100000)"
fill="#000000" stroke="none">
<path d="M3399 5100 c-251 -45 -466 -137 -964 -415 -495 -276 -763 -365 -1095
-367 -138 -1 -176 -7 -192 -32 -21 -31 -24 -18 427 -1681 48 -177 85 -293 100
-316 41 -63 90 -79 241 -79 340 0 597 90 1169 408 381 212 642 324 850 366
113 23 276 36 365 29 67 -5 78 -3 103 17 19 15 27 31 27 53 0 52 -514 1934
-536 1964 -48 64 -62 68 -232 70 -119 2 -183 -2 -263 -17z m352 -475 c38 -137
68 -250 69 -251 0 -1 -39 -4 -88 -7 -108 -8 -250 -37 -371 -76 -64 -20 -93
-26 -96 -18 -2 7 -33 119 -68 250 -58 214 -62 239 -47 247 75 40 406 110 504
106 l29 -1 68 -250z m-1107 -401 c36 -135 64 -249 61 -254 -7 -12 -270 -158
-410 -228 l-121 -60 -64 241 c-36 133 -65 247 -65 253 0 7 68 46 150 88 83 41
200 104 260 140 61 35 113 65 116 65 3 1 36 -110 73 -245z m697 -266 l76 -282
-146 -71 c-80 -39 -199 -102 -265 -139 -65 -37 -122 -64 -126 -59 -5 4 -42
132 -82 283 l-74 275 65 39 c96 57 447 236 463 236 9 0 38 -94 89 -282z m649
-215 c5 -21 36 -135 68 -253 l58 -215 -100 -11 c-132 -15 -245 -39 -353 -74
-49 -15 -90 -27 -92 -25 -1 2 -33 115 -71 252 -78 288 -86 254 70 299 117 33
276 62 352 63 l57 1 11 -37z m-1816 -90 c20 -69 146 -542 146 -550 0 -11 -198
-75 -300 -97 -69 -16 -269 -41 -274 -35 -1 2 -35 128 -76 279 -40 151 -75 281
-78 288 -3 8 10 12 44 12 110 0 347 50 469 98 64 25 63 25 69 5z m711 -335 c8
-29 39 -143 69 -253 l54 -200 -122 -69 c-115 -65 -409 -217 -412 -213 -4 5
-134 490 -134 500 0 7 48 35 108 64 59 28 175 90 257 136 83 47 153 86 157 86
4 1 14 -23 23 -51z"/>
<path d="M790 4369 c-59 -24 -100 -85 -100 -148 0 -50 1022 -4093 1047 -4141
67 -130 276 -94 299 51 8 47 -1028 4139 -1058 4182 -38 53 -128 80 -188 56z"/>
</g>
</svg>
