<?xml version="1.0" standalone="no"?>
<!DOCTYPE svg PUBLIC "-//W3C//DTD SVG 20010904//EN"
 "http://www.w3.org/TR/2001/REC-SVG-20010904/DTD/svg10.dtd">
<svg version="1.0" xmlns="http://www.w3.org/2000/svg"
 width="512.000000pt" height="512.000000pt" viewBox="0 0 512.000000 512.000000"
 preserveAspectRatio="xMidYMid meet">
<metadata>
Created by potrace 1.13, written by Peter Selinger 2001-2015
</metadata>
<g transform="translate(0.000000,512.000000) scale(0.100000,-0.100000)"
fill="#000000" stroke="none">
<path d="M3503 5108 c-31 -15 -724 -820 -746 -866 -20 -43 -15 -91 14 -138 34
-56 66 -64 263 -64 l176 0 0 -197 c0 -154 -4 -218 -19 -288 -58 -284 -246
-520 -514 -645 -120 -57 -226 -79 -424 -90 -267 -14 -475 -66 -680 -168 -452
-227 -761 -629 -874 -1137 -22 -96 -23 -123 -27 -715 -2 -434 0 -626 8 -653
14 -49 65 -106 115 -128 34 -16 68 -19 234 -19 177 0 199 2 238 21 51 25 96
76 112 128 8 27 11 201 11 573 0 434 3 552 15 623 50 286 241 536 508 664 124
60 216 80 410 91 188 11 305 28 433 66 253 73 473 200 666 382 248 237 404
516 479 857 18 84 22 142 26 368 l5 267 177 0 c193 0 224 7 264 61 29 41 34
111 10 152 -33 55 -705 828 -738 848 -33 21 -106 24 -142 7z"/>
<path d="M671 4858 c-42 -12 -254 -215 -282 -270 -23 -45 -24 -106 -4 -155 9
-21 83 -105 182 -204 l167 -169 -166 -168 c-91 -92 -173 -181 -182 -199 -9
-18 -16 -54 -16 -81 0 -66 32 -113 163 -238 91 -88 112 -103 153 -112 26 -6
52 -9 58 -7 6 2 25 6 41 10 21 5 83 59 207 183 l178 176 167 -166 c93 -91 183
-173 202 -183 43 -21 118 -22 157 -2 42 22 261 247 273 280 14 36 14 88 1 124
-6 15 -91 108 -188 206 l-177 177 177 178 c97 97 182 190 188 205 33 90 2 154
-145 295 -134 131 -168 146 -259 121 -32 -9 -77 -48 -218 -187 l-178 -176
-178 176 c-142 142 -185 178 -217 187 -47 13 -58 13 -104 -1z"/>
<path d="M3665 1984 c-224 -36 -411 -129 -561 -278 -388 -388 -374 -1021 31
-1394 96 -88 211 -157 332 -198 133 -45 223 -58 368 -51 259 12 465 106 647
295 191 198 277 428 265 707 -12 259 -93 448 -271 633 -174 181 -398 279 -656
287 -69 2 -138 1 -155 -1z m187 -615 c113 -24 207 -99 254 -202 25 -53 29 -74
29 -147 -1 -71 -5 -94 -28 -140 -89 -184 -294 -258 -474 -170 -242 119 -265
456 -40 605 49 32 136 63 184 64 12 1 46 -4 75 -10z"/>
</g>
</svg>
