<?xml version="1.0" standalone="no"?>
<!DOCTYPE svg PUBLIC "-//W3C//DTD SVG 20010904//EN"
 "http://www.w3.org/TR/2001/REC-SVG-20010904/DTD/svg10.dtd">
<svg version="1.0" xmlns="http://www.w3.org/2000/svg"
 width="512.000000pt" height="512.000000pt" viewBox="0 0 512.000000 512.000000"
 preserveAspectRatio="xMidYMid meet">
<metadata>
Created by potrace 1.13, written by Peter Selinger 2001-2015
</metadata>
<g transform="translate(0.000000,512.000000) scale(0.100000,-0.100000)"
fill="#000000" stroke="none">
<path d="M2340 5010 c-14 -5 -45 -8 -69 -9 -81 -2 -304 -42 -461 -83 -467
-121 -886 -359 -1204 -683 -168 -171 -349 -442 -432 -644 -38 -95 -92 -273
-111 -365 -21 -105 -30 -535 -13 -616 54 -256 96 -383 179 -550 164 -331 418
-615 749 -839 l62 -43 0 -56 c0 -59 -14 -235 -30 -367 -18 -156 -44 -521 -37
-538 3 -9 17 -17 30 -17 13 0 129 64 258 141 128 78 351 211 494 297 l260 155
95 -12 c52 -7 140 -17 195 -23 135 -14 530 -4 675 17 575 84 1087 325 1470
692 207 199 344 382 449 605 72 151 104 238 143 393 30 116 31 130 35 382 5
253 4 267 -21 385 -149 709 -668 1284 -1433 1586 -234 93 -461 148 -748 183
-116 14 -498 20 -535 9z m450 -951 c343 -79 542 -363 503 -717 -8 -76 -19
-116 -46 -175 -53 -113 -82 -151 -276 -350 -98 -100 -185 -195 -193 -212 -23
-45 -38 -127 -38 -211 0 -127 -23 -144 -191 -144 l-111 0 -34 34 -34 34 0 113
c0 65 7 141 15 177 28 118 54 154 250 347 186 184 227 233 272 332 23 50 25
64 21 143 -8 142 -73 241 -196 298 -50 24 -69 27 -157 27 -82 -1 -108 -5 -145
-23 -101 -49 -164 -125 -212 -251 -15 -42 -35 -82 -45 -88 -21 -16 -90 -16
-208 -2 -104 13 -122 20 -136 56 -22 57 46 232 134 349 176 232 505 337 827
263z m-162 -2074 c79 -34 122 -101 122 -193 0 -49 -5 -66 -29 -99 -46 -63 -86
-87 -156 -91 -75 -4 -133 23 -177 85 -44 61 -49 125 -14 197 48 98 156 141
254 101z"/>
</g>
</svg>
