<?xml version="1.0" encoding="UTF-8" standalone="no"?>
<svg xmlns:rdf="http://www.w3.org/1999/02/22-rdf-syntax-ns#" xmlns="http://www.w3.org/2000/svg" enable-background="new 0 0 21.002 22.002" xml:space="preserve" height="22px" viewBox="0 0 21.002 22.002" width="21px" version="1.1" y="0px" x="0px" xmlns:cc="http://creativecommons.org/ns#" xmlns:dc="http://purl.org/dc/elements/1.1/"><g fill="#fff"><g opacity=".5"><path d="m21 21c0 0.39-0.32 0.71-0.71 0.71h-7.9c-0.39 0-0.71-0.32-0.71-0.71v-8.4c0-0.39 0.32-0.71 0.71-0.71h7.9c0.39 0 0.71 0.32 0.71 0.71v8z" fill="#fff"/></g><g opacity=".5"><path d="m21 9.1c0 0.39-0.32 0.71-0.71 0.71h-7.9c-0.39 0-0.71-0.32-0.71-0.71v-8.4c0-0.39 0.32-0.71 0.71-0.71h7.9c0.39 0 0.71 0.32 0.71 0.71v8.4z" fill="#fff"/></g><g opacity=".5"><path d="m9.4 21c0 0.39-0.32 0.71-0.71 0.71h-8c-0.38 0-0.7 0-0.7-1v-8.4c0-0.39 0.32-0.71 0.71-0.71h7.9c0.39 0 0.71 0.32 0.71 0.71v8z" fill="#fff"/></g></g><g fill="#f2f2f2"><path d="m9.4 9.1c0 0.39-0.32 0.71-0.71 0.71h-8c-0.38 0-0.7-0.3-0.7-0.7v-8.4c0-0.38 0.32-0.7 0.71-0.7h7.9c0.39 0 0.71 0.32 0.71 0.71v8.4z" fill="#f2f2f2"/></g></svg>
