<?xml version="1.0" encoding="utf-8"?>
<!-- Generator: Adobe Illustrator 21.0.2, SVG Export Plug-In . SVG Version: 6.00 Build 0)  -->
<svg version="1.0" xmlns="http://www.w3.org/2000/svg" xmlns:xlink="http://www.w3.org/1999/xlink" x="0px" y="0px"
	 viewBox="0 0 312.4 112.1" enable-background="new 0 0 312.4 112.1" xml:space="preserve">
<g id="Calque_2">
	<g>
		<g>
			<path d="M4,49.5c-1.1,0-2-0.9-2-2V10c0-0.8,0.5-1.5,1.2-1.8c0.2-0.4,0.6-0.8,1-1c0.2-0.4,0.6-0.8,1-1c0.2-0.4,0.6-0.8,1-1
				C6.3,4.8,6.6,4.5,7,4.3V4c0-1.1,0.9-2,2-2h51.1c1.1,0,2,0.9,2,2v23.9c0,0.8-0.5,1.5-1.2,1.8c-0.2,0.4-0.6,0.8-1,1
				c-0.2,0.4-0.6,0.8-1,1c-0.2,0.4-0.6,0.8-1,1c-0.2,0.4-0.6,0.8-1,1c-0.3,0.7-1,1.2-1.8,1.2H25.6v7.6c0,0.8-0.5,1.5-1.2,1.8
				c-0.2,0.4-0.6,0.8-1,1c-0.2,0.4-0.6,0.8-1,1c-0.2,0.4-0.6,0.8-1,1c-0.2,0.4-0.6,0.8-1,1c-0.3,0.7-1,1.2-1.8,1.2H4z"/>
			<path d="M60.1,4v1v1v19.9v1v1h-1v1h-1v1h-1v1h-1v1h-1v1H23.6v7.6v1v1h-1v1h-1v1h-1v1h-1v1h-1v1H4v-1V11v-1h1V9h1V8h1V7h1V6h1V5V4
				H60.1 M23.6,18.6h16.9v-0.3H23.6V18.6 M60.1,0H9C7,0,5.4,1.4,5.1,3.3C4.9,3.4,4.8,3.6,4.7,3.7C4.3,4,4,4.3,3.7,4.7
				C3.3,5,3,5.3,2.7,5.7C2.3,6,2,6.3,1.7,6.7C0.7,7.4,0,8.6,0,10v1v35.5v1c0,2.2,1.8,4,4,4h14.6c1.4,0,2.6-0.7,3.3-1.7
				c0.4-0.3,0.7-0.6,1-1c0.4-0.3,0.7-0.6,1-1c0.4-0.3,0.7-0.6,1-1c0.4-0.3,0.7-0.6,1-1c1-0.7,1.7-1.9,1.7-3.3v-1v-1v-3.6h27.5
				c1.4,0,2.6-0.7,3.3-1.7c0.4-0.3,0.7-0.6,1-1c0.4-0.3,0.7-0.6,1-1c0.4-0.3,0.7-0.6,1-1c0.4-0.3,0.7-0.6,1-1c1-0.7,1.7-1.9,1.7-3.3
				v-1v-1V6V5V4C64.1,1.8,62.3,0,60.1,0L60.1,0z"/>
		</g>
		<g>
			<path d="M188.2,49.5c-1.1,0-2-0.9-2-2v-8.3c0-0.8,0.5-1.5,1.2-1.8c0.2-0.4,0.6-0.8,1-1c0.2-0.4,0.6-0.8,1-1
				c0.1-0.2,0.2-0.3,0.3-0.5h-1.5c-1.1,0-2-0.9-2-2V10c0-0.8,0.5-1.5,1.2-1.8c0.2-0.4,0.6-0.8,1-1c0.2-0.4,0.6-0.8,1-1
				c0.2-0.4,0.6-0.8,1-1c0.2-0.4,0.5-0.7,0.8-0.9V4c0-1.1,0.9-2,2-2h51.1c1.1,0,2,0.9,2,2v9.3c0,0.8-0.5,1.5-1.2,1.8
				c-0.2,0.4-0.6,0.8-1,1c-0.1,0.2-0.2,0.3-0.3,0.5h0.5c1.1,0,2,0.9,2,2v23.9c0,0.8-0.5,1.5-1.2,1.8c-0.2,0.4-0.6,0.8-1,1
				c-0.2,0.4-0.6,0.8-1,1c-0.2,0.4-0.6,0.8-1,1c-0.2,0.4-0.6,0.8-1,1c-0.3,0.7-1,1.2-1.8,1.2H188.2z"/>
			<path d="M244.3,4v1v1v5.3v1v1h-1v1h-1v1h-1v1h-1v1h-1v1h-31.5v0.3h36.5v1v1v19.9v1v1h-1v1h-1v1h-1v1h-1v1h-1v1h-51.1v-1v-6.3v-1
				h1v-1h1v-1h1v-1h1v-1h1v-1v-1h31.5v-0.3h-36.5v-1V11v-1h1V9h1V8h1V7h1V6h1V5V4H244.3 M244.3,0h-51.1c-2,0-3.6,1.4-3.9,3.3
				c-0.1,0.1-0.2,0.3-0.3,0.4c-0.4,0.3-0.7,0.6-1,1c-0.4,0.3-0.7,0.6-1,1c-0.4,0.3-0.7,0.6-1,1c-1,0.7-1.7,1.9-1.7,3.3v1v20.9v1
				c0,1.3,0.6,2.4,1.5,3.2c-0.9,0.7-1.5,1.9-1.5,3.2v1v6.3v1c0,2.2,1.8,4,4,4h51.1c1.4,0,2.6-0.7,3.3-1.7c0.4-0.3,0.7-0.6,1-1
				c0.4-0.3,0.7-0.6,1-1c0.4-0.3,0.7-0.6,1-1c0.4-0.3,0.7-0.6,1-1c1-0.7,1.7-1.9,1.7-3.3v-1v-1V20.6v-1v-1c0-1-0.4-1.9-1-2.7
				c0.6-0.7,1-1.6,1-2.7v-1v-1V6V5V4C248.3,1.8,246.6,0,244.3,0L244.3,0z"/>
		</g>
		<g>
			<path d="M4,110.1c-1.1,0-2-0.9-2-2v-8.3C2,99,2.5,98.3,3.2,98c0.2-0.4,0.6-0.8,1-1c0.2-0.4,0.6-0.8,1-1c0.1-0.2,0.2-0.3,0.3-0.5
				H4c-1.1,0-2-0.9-2-2V70.6c0-0.8,0.5-1.5,1.2-1.8c0.2-0.4,0.6-0.8,1-1c0.2-0.4,0.6-0.8,1-1c0.2-0.4,0.6-0.8,1-1
				C6.3,65.4,6.6,65,7,64.8v-0.3c0-1.1,0.9-2,2-2h51.1c1.1,0,2,0.9,2,2v9.3c0,0.8-0.5,1.5-1.2,1.8c-0.2,0.4-0.6,0.8-1,1
				c-0.1,0.2-0.2,0.3-0.3,0.5h0.5c1.1,0,2,0.9,2,2v23.9c0,0.8-0.5,1.5-1.2,1.8c-0.2,0.4-0.6,0.8-1,1c-0.2,0.4-0.6,0.8-1,1
				c-0.2,0.4-0.6,0.8-1,1c-0.2,0.4-0.6,0.8-1,1c-0.3,0.7-1,1.2-1.8,1.2H4z"/>
			<path d="M60.1,64.6v1v1v5.3v1v1h-1v1h-1v1h-1v1h-1v1h-1v1H23.6v0.3h36.5v1v1v19.9v1v1h-1v1h-1v1h-1v1h-1v1h-1v1H4v-1v-6.3v-1h1
				v-1h1v-1h1v-1h1v-1h1v-1v-1h31.5v-0.3H4v-1V71.6v-1h1v-1h1v-1h1v-1h1v-1h1v-1v-1H60.1 M60.1,60.6H9c-2,0-3.6,1.4-3.9,3.3
				c-0.1,0.1-0.2,0.3-0.3,0.4c-0.4,0.3-0.7,0.6-1,1c-0.4,0.3-0.7,0.6-1,1c-0.4,0.3-0.7,0.6-1,1C0.7,68,0,69.2,0,70.6v1v20.9v1
				c0,1.3,0.6,2.4,1.5,3.2C0.6,97.4,0,98.5,0,99.8v1v6.3v1c0,2.2,1.8,4,4,4h51.1c1.4,0,2.6-0.7,3.3-1.7c0.4-0.3,0.7-0.6,1-1
				c0.4-0.3,0.7-0.6,1-1c0.4-0.3,0.7-0.6,1-1c0.4-0.3,0.7-0.6,1-1c1-0.7,1.7-1.9,1.7-3.3v-1v-1V81.2v-1v-1c0-1-0.4-1.9-1-2.7
				c0.6-0.7,1-1.6,1-2.7v-1v-1v-5.3v-1v-1C64.1,62.4,62.3,60.6,60.1,60.6L60.1,60.6z"/>
		</g>
		<g>
			<path d="M84.3,110.1c-1.1,0-2-0.9-2-2V80.9H62.4c-1.1,0-2-0.9-2-2v-8.3c0-0.8,0.5-1.5,1.2-1.8c0.2-0.4,0.6-0.8,1-1
				c0.2-0.4,0.6-0.8,1-1c0.2-0.4,0.6-0.8,1-1c0.2-0.4,0.5-0.7,0.8-0.9v-0.3c0-1.1,0.9-2,2-2h58.4c1.1,0,2,0.9,2,2v9.3
				c0,0.8-0.5,1.5-1.2,1.8c-0.2,0.4-0.6,0.8-1,1c-0.2,0.4-0.6,0.8-1,1c-0.2,0.4-0.6,0.8-1,1c-0.2,0.4-0.6,0.8-1,1
				c-0.3,0.7-1,1.2-1.8,1.2h-14.9v22.2c0,0.8-0.5,1.5-1.2,1.8c-0.2,0.4-0.6,0.8-1,1c-0.2,0.4-0.6,0.8-1,1c-0.2,0.4-0.6,0.8-1,1
				c-0.2,0.4-0.6,0.8-1,1c-0.3,0.7-1,1.2-1.8,1.2H84.3z"/>
			<path d="M125.8,64.6v1v1v5.3v1v1h-1v1h-1v1h-1v1h-1v1h-1v1h-16.9v22.2v1v1h-1v1h-1v1h-1v1h-1v1h-1v1H84.3v-1V78.9H62.4v-1v-6.3
				v-1h1v-1h1v-1h1v-1h1v-1h1v-1v-1H125.8 M125.8,60.6H67.4c-2,0-3.6,1.4-3.9,3.3c-0.1,0.1-0.2,0.3-0.3,0.4c-0.4,0.3-0.7,0.6-1,1
				c-0.4,0.3-0.7,0.6-1,1c-0.4,0.3-0.7,0.6-1,1c-1,0.7-1.7,1.9-1.7,3.3v1v6.3v1c0,2.2,1.8,4,4,4h17.9v24.2v1c0,2.2,1.8,4,4,4h14.6
				c1.4,0,2.6-0.7,3.3-1.7c0.4-0.3,0.7-0.6,1-1c0.4-0.3,0.7-0.6,1-1c0.4-0.3,0.7-0.6,1-1c0.4-0.3,0.7-0.6,1-1c1-0.7,1.7-1.9,1.7-3.3
				v-1v-1V82.9h12.9c1.4,0,2.6-0.7,3.3-1.7c0.4-0.3,0.7-0.6,1-1c0.4-0.3,0.7-0.6,1-1c0.4-0.3,0.7-0.6,1-1c0.4-0.3,0.7-0.6,1-1
				c1-0.7,1.7-1.9,1.7-3.3v-1v-1v-5.3v-1v-1C129.8,62.4,128,60.6,125.8,60.6L125.8,60.6z"/>
		</g>
		<g>
			<path d="M164.6,110.1c-1.1,0-2-0.9-2-2V95.5h-12.9v7.6c0,0.8-0.5,1.5-1.2,1.8c-0.2,0.4-0.6,0.8-1,1c-0.2,0.4-0.6,0.8-1,1
				c-0.2,0.4-0.6,0.8-1,1c-0.2,0.4-0.6,0.8-1,1c-0.3,0.7-1,1.2-1.8,1.2h-14.6c-1.1,0-2-0.9-2-2V70.6c0-0.8,0.5-1.5,1.2-1.8
				c0.2-0.4,0.6-0.8,1-1c0.2-0.4,0.6-0.8,1-1c0.2-0.4,0.6-0.8,1-1c0.2-0.4,0.5-0.7,0.8-0.9v-0.3c0-1.1,0.9-2,2-2h51.1
				c1.1,0,2,0.9,2,2v38.5c0,0.8-0.5,1.5-1.2,1.8c-0.2,0.4-0.6,0.8-1,1c-0.2,0.4-0.6,0.8-1,1c-0.2,0.4-0.6,0.8-1,1
				c-0.2,0.4-0.6,0.8-1,1c-0.3,0.7-1,1.2-1.8,1.2H164.6z"/>
			<path d="M184.2,64.6v1v1v34.5v1v1h-1v1h-1v1h-1v1h-1v1h-1v1h-14.6v-1V93.5h-16.9v7.6v1v1h-1v1h-1v1h-1v1h-1v1h-1v1h-14.6v-1V71.6
				v-1h1v-1h1v-1h1v-1h1v-1h1v-1v-1H184.2 M147.7,79.2h16.9v-0.3h-16.9V79.2 M184.2,60.6h-51.1c-2,0-3.6,1.4-3.9,3.3
				c-0.1,0.1-0.2,0.3-0.3,0.4c-0.4,0.3-0.7,0.6-1,1c-0.4,0.3-0.7,0.6-1,1c-0.4,0.3-0.7,0.6-1,1c-1,0.7-1.7,1.9-1.7,3.3v1v35.5v1
				c0,2.2,1.8,4,4,4h14.6c1.4,0,2.6-0.7,3.3-1.7c0.4-0.3,0.7-0.6,1-1c0.4-0.3,0.7-0.6,1-1c0.4-0.3,0.7-0.6,1-1c0.4-0.3,0.7-0.6,1-1
				c1-0.7,1.7-1.9,1.7-3.3v-1v-1v-3.6h8.9v9.6v1c0,2.2,1.8,4,4,4h14.6c1.4,0,2.6-0.7,3.3-1.7c0.4-0.3,0.7-0.6,1-1
				c0.4-0.3,0.7-0.6,1-1c0.4-0.3,0.7-0.6,1-1c0.4-0.3,0.7-0.6,1-1c1-0.7,1.7-1.9,1.7-3.3v-1v-1V66.6v-1v-1
				C188.2,62.4,186.4,60.6,184.2,60.6L184.2,60.6z"/>
		</g>
		<g>
			<path d="M215.7,110.1c-1.1,0-2-0.9-2-2v-5.3h-5.3c-0.1,0-0.2,0-0.3,0v0.3c0,0.8-0.5,1.5-1.2,1.8c-0.2,0.4-0.6,0.8-1,1
				c-0.2,0.4-0.6,0.8-1,1c-0.2,0.4-0.6,0.8-1,1c-0.2,0.4-0.6,0.8-1,1c-0.3,0.7-1,1.2-1.8,1.2h-14.6c-1.1,0-2-0.9-2-2V70.6
				c0-0.8,0.5-1.5,1.2-1.8c0.2-0.4,0.6-0.8,1-1c0.2-0.4,0.6-0.8,1-1c0.2-0.4,0.6-0.8,1-1c0.2-0.4,0.5-0.7,0.8-0.9v-0.3
				c0-1.1,0.9-2,2-2h51.1c1.1,0,2,0.9,2,2v23.9c0,0.8-0.5,1.5-1.2,1.8c-0.2,0.4-0.6,0.8-1,1c-0.1,0.2-0.2,0.3-0.3,0.5h0.5
				c1.1,0,2,0.9,2,2v9.3c0,0.8-0.5,1.5-1.2,1.8c-0.2,0.4-0.6,0.8-1,1c-0.2,0.4-0.6,0.8-1,1c-0.2,0.4-0.6,0.8-1,1
				c-0.2,0.4-0.6,0.8-1,1c-0.3,0.7-1,1.2-1.8,1.2H215.7z"/>
			<path d="M242.7,64.6v1v1v19.9v1v1h-1v1h-1v1h-1v1h-1v1h-1v1h-2.3v0.3h7.3v1v1v5.3v1v1h-1v1h-1v1h-1v1h-1v1h-1v1h-21.9v-1v-6.3
				h-7.3v-1v-6.3h-2.3v7.6v1v1h-1v1h-1v1h-1v1h-1v1h-1v1h-14.6v-1V71.6v-1h1v-1h1v-1h1v-1h1v-1h1v-1v-1H242.7 M206.1,79.2H223v-0.3
				h-16.9V79.2 M242.7,60.6h-51.1c-2,0-3.6,1.4-3.9,3.3c-0.1,0.1-0.2,0.3-0.3,0.4c-0.4,0.3-0.7,0.6-1,1c-0.4,0.3-0.7,0.6-1,1
				c-0.4,0.3-0.7,0.6-1,1c-1,0.7-1.7,1.9-1.7,3.3v1v35.5v1c0,2.2,1.8,4,4,4h14.6c1.4,0,2.6-0.7,3.3-1.7c0.4-0.3,0.7-0.6,1-1
				c0.4-0.3,0.7-0.6,1-1c0.4-0.3,0.7-0.6,1-1c0.4-0.3,0.7-0.6,1-1c0.6-0.4,1-0.9,1.3-1.6h2v2.3v1c0,2.2,1.8,4,4,4h21.9
				c1.4,0,2.6-0.7,3.3-1.7c0.4-0.3,0.7-0.6,1-1c0.4-0.3,0.7-0.6,1-1c0.4-0.3,0.7-0.6,1-1c0.4-0.3,0.7-0.6,1-1c1-0.7,1.7-1.9,1.7-3.3
				v-1v-1v-5.3v-1v-1c0-1-0.4-1.9-1-2.7c0.6-0.7,1-1.6,1-2.7v-1v-1V66.6v-1v-1C246.7,62.4,244.9,60.6,242.7,60.6L242.7,60.6z"/>
		</g>
		<g>
			<path d="M266.9,110.1c-1.1,0-2-0.9-2-2V80.9H245c-1.1,0-2-0.9-2-2v-8.3c0-0.8,0.5-1.5,1.2-1.8c0.2-0.4,0.6-0.8,1-1
				c0.2-0.4,0.6-0.8,1-1c0.2-0.4,0.6-0.8,1-1c0.2-0.4,0.5-0.7,0.8-0.9v-0.3c0-1.1,0.9-2,2-2h58.4c1.1,0,2,0.9,2,2v9.3
				c0,0.8-0.5,1.5-1.2,1.8c-0.2,0.4-0.6,0.8-1,1c-0.2,0.4-0.6,0.8-1,1c-0.2,0.4-0.6,0.8-1,1c-0.2,0.4-0.6,0.8-1,1
				c-0.3,0.7-1,1.2-1.8,1.2h-14.9v22.2c0,0.8-0.5,1.5-1.2,1.8c-0.2,0.4-0.6,0.8-1,1c-0.2,0.4-0.6,0.8-1,1c-0.2,0.4-0.6,0.8-1,1
				c-0.2,0.4-0.6,0.8-1,1c-0.3,0.7-1,1.2-1.8,1.2H266.9z"/>
			<path d="M308.4,64.6v1v1v5.3v1v1h-1v1h-1v1h-1v1h-1v1h-1v1h-16.9v22.2v1v1h-1v1h-1v1h-1v1h-1v1h-1v1h-14.6v-1V78.9H245v-1v-6.3
				v-1h1v-1h1v-1h1v-1h1v-1h1v-1v-1H308.4 M308.4,60.6H250c-2,0-3.6,1.4-3.9,3.3c-0.1,0.1-0.2,0.3-0.3,0.4c-0.4,0.3-0.7,0.6-1,1
				c-0.4,0.3-0.7,0.6-1,1c-0.4,0.3-0.7,0.6-1,1c-1,0.7-1.7,1.9-1.7,3.3v1v6.3v1c0,2.2,1.8,4,4,4h17.9v24.2v1c0,2.2,1.8,4,4,4h14.6
				c1.4,0,2.6-0.7,3.3-1.7c0.4-0.3,0.7-0.6,1-1c0.4-0.3,0.7-0.6,1-1c0.4-0.3,0.7-0.6,1-1c0.4-0.3,0.7-0.6,1-1c1-0.7,1.7-1.9,1.7-3.3
				v-1v-1V82.9h12.9c1.4,0,2.6-0.7,3.3-1.7c0.4-0.3,0.7-0.6,1-1c0.4-0.3,0.7-0.6,1-1c0.4-0.3,0.7-0.6,1-1c0.4-0.3,0.7-0.6,1-1
				c1-0.7,1.7-1.9,1.7-3.3v-1v-1v-5.3v-1v-1C312.4,62.4,310.6,60.6,308.4,60.6L308.4,60.6z"/>
		</g>
		<g>
			<path d="M93.6,49.5c-1.1,0-2-0.9-2-2v-5.3h-5.3c-0.1,0-0.2,0-0.3,0v0.3c0,0.8-0.5,1.5-1.2,1.8c-0.2,0.4-0.6,0.8-1,1
				c-0.2,0.4-0.6,0.8-1,1c-0.2,0.4-0.6,0.8-1,1c-0.2,0.4-0.6,0.8-1,1c-0.3,0.7-1,1.2-1.8,1.2H64.4c-1.1,0-2-0.9-2-2V10
				c0-0.8,0.5-1.5,1.2-1.8c0.2-0.4,0.6-0.8,1-1c0.2-0.4,0.6-0.8,1-1c0.2-0.4,0.6-0.8,1-1c0.2-0.4,0.5-0.7,0.8-0.9V4c0-1.1,0.9-2,2-2
				h51.1c1.1,0,2,0.9,2,2v23.9c0,0.8-0.5,1.5-1.2,1.8c-0.2,0.4-0.6,0.8-1,1c-0.1,0.2-0.2,0.3-0.3,0.5h0.5c1.1,0,2,0.9,2,2v9.3
				c0,0.8-0.5,1.5-1.2,1.8c-0.2,0.4-0.6,0.8-1,1c-0.2,0.4-0.6,0.8-1,1c-0.2,0.4-0.6,0.8-1,1c-0.2,0.4-0.6,0.8-1,1
				c-0.3,0.7-1,1.2-1.8,1.2H93.6z"/>
			<path d="M120.5,4v1v1v19.9v1v1h-1v1h-1v1h-1v1h-1v1h-1v1h-2.3v0.3h7.3v1v1v5.3v1v1h-1v1h-1v1h-1v1h-1v1h-1v1H93.6v-1v-6.3h-7.3
				v-1v-6.3H84v7.6v1v1h-1v1h-1v1h-1v1h-1v1h-1v1H64.4v-1V11v-1h1V9h1V8h1V7h1V6h1V5V4H120.5 M84,18.6h16.9v-0.3H84V18.6 M120.5,0
				H69.4c-2,0-3.6,1.4-3.9,3.3c-0.1,0.1-0.2,0.3-0.3,0.4c-0.4,0.3-0.7,0.6-1,1c-0.4,0.3-0.7,0.6-1,1c-0.4,0.3-0.7,0.6-1,1
				c-1,0.7-1.7,1.9-1.7,3.3v1v35.5v1c0,2.2,1.8,4,4,4H79c1.4,0,2.6-0.7,3.3-1.7c0.4-0.3,0.7-0.6,1-1c0.4-0.3,0.7-0.6,1-1
				c0.4-0.3,0.7-0.6,1-1c0.4-0.3,0.7-0.6,1-1c0.6-0.4,1-0.9,1.3-1.6h2v2.3v1c0,2.2,1.8,4,4,4h21.9c1.4,0,2.6-0.7,3.3-1.7
				c0.4-0.3,0.7-0.6,1-1c0.4-0.3,0.7-0.6,1-1c0.4-0.3,0.7-0.6,1-1c0.4-0.3,0.7-0.6,1-1c1-0.7,1.7-1.9,1.7-3.3v-1v-1v-5.3v-1v-1
				c0-1-0.4-1.9-1-2.7c0.6-0.7,1-1.6,1-2.7v-1v-1V6V5V4C124.5,1.8,122.7,0,120.5,0L120.5,0z"/>
		</g>
		<g>
			<path d="M126.8,49.5c-1.1,0-2-0.9-2-2V10c0-0.8,0.5-1.5,1.2-1.8c0.2-0.4,0.6-0.8,1-1c0.2-0.4,0.6-0.8,1-1c0.2-0.4,0.6-0.8,1-1
				c0.2-0.4,0.5-0.7,0.8-0.9V4c0-1.1,0.9-2,2-2h51.1c1.1,0,2,0.9,2,2v9.3c0,0.8-0.5,1.5-1.2,1.8c-0.2,0.4-0.6,0.8-1,1
				c-0.2,0.4-0.6,0.8-1,1c-0.2,0.4-0.6,0.8-1,1c-0.2,0.4-0.6,0.8-1,1c-0.3,0.7-1,1.2-1.8,1.2h-0.3v7.6c0,0.8-0.5,1.5-1.2,1.8
				c-0.2,0.4-0.6,0.8-1,1c-0.1,0.2-0.2,0.3-0.3,0.5h7.8c1.1,0,2,0.9,2,2v9.3c0,0.8-0.5,1.5-1.2,1.8c-0.2,0.4-0.6,0.8-1,1
				c-0.2,0.4-0.6,0.8-1,1c-0.2,0.4-0.6,0.8-1,1c-0.2,0.4-0.6,0.8-1,1c-0.3,0.7-1,1.2-1.8,1.2H126.8z"/>
			<path d="M182.9,4v1v1v5.3v1v1h-1v1h-1v1h-1v1h-1v1h-1v1h-31.5v0.3h29.2v1v1v5.3v1v1h-1v1h-1v1h-1v1h-1v1h-1v1h-24.2v0.3h36.5v1v1
				v5.3v1v1h-1v1h-1v1h-1v1h-1v1h-1v1h-51.1v-1V11v-1h1V9h1V8h1V7h1V6h1V5V4H182.9 M182.9,0h-51.1c-2,0-3.6,1.4-3.9,3.3
				c-0.1,0.1-0.2,0.3-0.3,0.4c-0.4,0.3-0.7,0.6-1,1c-0.4,0.3-0.7,0.6-1,1c-0.4,0.3-0.7,0.6-1,1c-1,0.7-1.7,1.9-1.7,3.3v1v35.5v1
				c0,2.2,1.8,4,4,4h51.1c1.4,0,2.6-0.7,3.3-1.7c0.4-0.3,0.7-0.6,1-1c0.4-0.3,0.7-0.6,1-1c0.4-0.3,0.7-0.6,1-1c0.4-0.3,0.7-0.6,1-1
				c1-0.7,1.7-1.9,1.7-3.3v-1v-1v-5.3v-1v-1c0-2.2-1.8-4-4-4h-3.5c0.1-0.4,0.2-0.8,0.2-1.3v-1v-1v-4c0.6-0.3,1.2-0.8,1.6-1.3
				c0.4-0.3,0.7-0.6,1-1c0.4-0.3,0.7-0.6,1-1c0.4-0.3,0.7-0.6,1-1c0.4-0.3,0.7-0.6,1-1c1-0.7,1.7-1.9,1.7-3.3v-1v-1V6V5V4
				C186.9,1.8,185.1,0,182.9,0L182.9,0z"/>
		</g>
		<g>
			<path d="M250.7,49.5c-1.1,0-2-0.9-2-2v-8.3c0-0.8,0.5-1.5,1.2-1.8c0.2-0.4,0.6-0.8,1-1c0.2-0.4,0.6-0.8,1-1
				c0.1-0.2,0.2-0.3,0.3-0.5h-1.5c-1.1,0-2-0.9-2-2V10c0-0.8,0.5-1.5,1.2-1.8c0.2-0.4,0.6-0.8,1-1c0.2-0.4,0.6-0.8,1-1
				c0.2-0.4,0.6-0.8,1-1c0.2-0.4,0.5-0.7,0.8-0.9V4c0-1.1,0.9-2,2-2h51.1c1.1,0,2,0.9,2,2v9.3c0,0.8-0.5,1.5-1.2,1.8
				c-0.2,0.4-0.6,0.8-1,1c-0.1,0.2-0.2,0.3-0.3,0.5h0.5c1.1,0,2,0.9,2,2v23.9c0,0.8-0.5,1.5-1.2,1.8c-0.2,0.4-0.6,0.8-1,1
				c-0.2,0.4-0.6,0.8-1,1c-0.2,0.4-0.6,0.8-1,1c-0.2,0.4-0.6,0.8-1,1c-0.3,0.7-1,1.2-1.8,1.2H250.7z"/>
			<path d="M306.8,4v1v1v5.3v1v1h-1v1h-1v1h-1v1h-1v1h-1v1h-31.5v0.3h36.5v1v1v19.9v1v1h-1v1h-1v1h-1v1h-1v1h-1v1h-51.1v-1v-6.3v-1
				h1v-1h1v-1h1v-1h1v-1h1v-1v-1h31.5v-0.3h-36.5v-1V11v-1h1V9h1V8h1V7h1V6h1V5V4H306.8 M306.8,0h-51.1c-2,0-3.6,1.4-3.9,3.3
				c-0.1,0.1-0.2,0.3-0.3,0.4c-0.4,0.3-0.7,0.6-1,1c-0.4,0.3-0.7,0.6-1,1c-0.4,0.3-0.7,0.6-1,1c-1,0.7-1.7,1.9-1.7,3.3v1v20.9v1
				c0,1.3,0.6,2.4,1.5,3.2c-0.9,0.7-1.5,1.9-1.5,3.2v1v6.3v1c0,2.2,1.8,4,4,4h51.1c1.4,0,2.6-0.7,3.3-1.7c0.4-0.3,0.7-0.6,1-1
				c0.4-0.3,0.7-0.6,1-1c0.4-0.3,0.7-0.6,1-1c0.4-0.3,0.7-0.6,1-1c1-0.7,1.7-1.9,1.7-3.3v-1v-1V20.6v-1v-1c0-1-0.4-1.9-1-2.7
				c0.6-0.7,1-1.6,1-2.7v-1v-1V6V5V4C310.8,1.8,309,0,306.8,0L306.8,0z"/>
		</g>
	</g>
</g>
<g id="Calque_2_-_copie">
	<g>
		<linearGradient id="SVGID_1_" gradientUnits="userSpaceOnUse" x1="34.5554" y1="41.5078" x2="34.5554" y2="3">
			<stop  offset="0" style="stop-color:#FFF200"/>
			<stop  offset="1" style="stop-color:#EF4136"/>
		</linearGradient>
		<path fill="url(#SVGID_1_)" d="M9,41.5l-1-1V4l1-1h51.1l1,1v21.9l-1,1H24.6v13.6l-1,1H9z M44.5,17.6v-5.3H24.6v5.3H44.5z"/>
		<path fill="#FFFFFF" d="M60.1,4v21.9H23.6v14.6H9V4H60.1 M23.6,18.6h21.9v-7.3H23.6V18.6 M60.1,2H9L7,4v36.5l2,2h14.6l2-2V27.9
			h34.5l2-2V4L60.1,2L60.1,2z M25.6,13.3h17.9v3.3H25.6V13.3L25.6,13.3z"/>
	</g>
	<g>
		<linearGradient id="SVGID_2_" gradientUnits="userSpaceOnUse" x1="94.968" y1="41.5078" x2="94.968" y2="3">
			<stop  offset="0" style="stop-color:#FFF200"/>
			<stop  offset="1" style="stop-color:#EF4136"/>
		</linearGradient>
		<path fill="url(#SVGID_2_)" d="M98.6,41.5l-1-1v-6.3h-6.3l-1-1v-6.3H85v13.6l-1,1H69.4l-1-1V4l1-1h51.1l1,1v21.9l-1,1h-6.3v5.3
			h6.3l1,1v7.3l-1,1H98.6z M104.9,17.6v-5.3H85v5.3H104.9z"/>
		<path fill="#FFFFFF" d="M120.5,4v21.9h-7.3v7.3h7.3v7.3H98.6v-7.3h-7.3v-7.3H84v14.6H69.4V4H120.5 M84,18.6h21.9v-7.3H84V18.6
			 M120.5,2H69.4l-2,2v36.5l2,2H84l2-2V27.9h3.3v5.3l2,2h5.3v5.3l2,2h21.9l2-2v-7.3l-2-2h-5.3v-3.3h5.3l2-2V4L120.5,2L120.5,2z
			 M86,13.3h17.9v3.3H86V13.3L86,13.3z"/>
	</g>
	<g>
		<linearGradient id="SVGID_3_" gradientUnits="userSpaceOnUse" x1="157.3806" y1="41.5078" x2="157.3806" y2="3">
			<stop  offset="0" style="stop-color:#FFF200"/>
			<stop  offset="1" style="stop-color:#EF4136"/>
		</linearGradient>
		<polygon fill="url(#SVGID_3_)" points="131.8,41.5 130.8,40.5 130.8,4 131.8,3 182.9,3 183.9,4 183.9,11.3 182.9,12.3 147.4,12.3 
			147.4,17.6 175.6,17.6 176.6,18.6 176.6,25.9 175.6,26.9 147.4,26.9 147.4,32.2 182.9,32.2 183.9,33.2 183.9,40.5 182.9,41.5 		
			"/>
		<path fill="#FFFFFF" d="M182.9,4v7.3h-36.5v7.3h29.2v7.3h-29.2v7.3h36.5v7.3h-51.1V4H182.9 M182.9,2h-51.1l-2,2v36.5l2,2h51.1l2-2
			v-7.3l-2-2h-34.5v-3.3h27.2l2-2v-7.3l-2-2h-27.2v-3.3h34.5l2-2V4L182.9,2L182.9,2z"/>
	</g>
	<g>
		<linearGradient id="SVGID_4_" gradientUnits="userSpaceOnUse" x1="218.793" y1="41.5078" x2="218.793" y2="3">
			<stop  offset="0" style="stop-color:#FFF200"/>
			<stop  offset="1" style="stop-color:#EF4136"/>
		</linearGradient>
		<polygon fill="url(#SVGID_4_)" points="193.2,41.5 192.2,40.5 192.2,33.2 193.2,32.2 228.7,32.2 228.7,26.9 193.2,26.9 
			192.2,25.9 192.2,4 193.2,3 244.3,3 245.3,4 245.3,11.3 244.3,12.3 208.8,12.3 208.8,17.6 244.3,17.6 245.3,18.6 245.3,40.5 
			244.3,41.5 		"/>
		<path fill="#FFFFFF" d="M244.3,4v7.3h-36.5v7.3h36.5v21.9h-51.1v-7.3h36.5v-7.3h-36.5V4H244.3 M244.3,2h-51.1l-2,2v21.9l2,2h34.5
			v3.3h-34.5l-2,2v7.3l2,2h51.1l2-2V18.6l-2-2h-34.5v-3.3h34.5l2-2V4L244.3,2L244.3,2z"/>
	</g>
	<g>
		<linearGradient id="SVGID_5_" gradientUnits="userSpaceOnUse" x1="281.2061" y1="41.5078" x2="281.2061" y2="3">
			<stop  offset="0" style="stop-color:#FFF200"/>
			<stop  offset="1" style="stop-color:#EF4136"/>
		</linearGradient>
		<polygon fill="url(#SVGID_5_)" points="255.7,41.5 254.7,40.5 254.7,33.2 255.7,32.2 291.2,32.2 291.2,26.9 255.7,26.9 
			254.7,25.9 254.7,4 255.7,3 306.8,3 307.8,4 307.8,11.3 306.8,12.3 271.3,12.3 271.3,17.6 306.8,17.6 307.8,18.6 307.8,40.5 
			306.8,41.5 		"/>
		<path fill="#FFFFFF" d="M306.8,4v7.3h-36.5v7.3h36.5v21.9h-51.1v-7.3h36.5v-7.3h-36.5V4H306.8 M306.8,2h-51.1l-2,2v21.9l2,2h34.5
			v3.3h-34.5l-2,2v7.3l2,2h51.1l2-2V18.6l-2-2h-34.5v-3.3h34.5l2-2V4L306.8,2L306.8,2z"/>
	</g>
	<g>
		<g>
			<linearGradient id="SVGID_6_" gradientUnits="userSpaceOnUse" x1="34.5554" y1="102.0791" x2="34.5554" y2="63.5713">
				<stop  offset="0" style="stop-color:#FFF200"/>
				<stop  offset="1" style="stop-color:#EF4136"/>
			</linearGradient>
			<polygon fill="url(#SVGID_6_)" points="9,102.1 8,101.1 8,93.8 9,92.8 44.5,92.8 44.5,87.5 9,87.5 8,86.5 8,64.6 9,63.6 
				60.1,63.6 61.1,64.6 61.1,71.9 60.1,72.9 24.6,72.9 24.6,78.2 60.1,78.2 61.1,79.2 61.1,101.1 60.1,102.1 			"/>
		</g>
		<g>
			<path fill="#FFFFFF" d="M60.1,64.6v7.3H23.6v7.3h36.5v21.9H9v-7.3h36.5v-7.3H9V64.6H60.1 M60.1,62.6H9l-2,2v21.9l2,2h34.5v3.3H9
				l-2,2v7.3l2,2h51.1l2-2V79.2l-2-2H25.6v-3.3h34.5l2-2v-7.3L60.1,62.6L60.1,62.6z"/>
		</g>
	</g>
	<g>
		<g>
			<linearGradient id="SVGID_7_" gradientUnits="userSpaceOnUse" x1="96.6189" y1="102.0791" x2="96.6189" y2="63.5713">
				<stop  offset="0" style="stop-color:#FFF200"/>
				<stop  offset="1" style="stop-color:#EF4136"/>
			</linearGradient>
			<polygon fill="url(#SVGID_7_)" points="89.3,102.1 88.3,101.1 88.3,72.9 67.4,72.9 66.4,71.9 66.4,64.6 67.4,63.6 125.8,63.6 
				126.8,64.6 126.8,71.9 125.8,72.9 104.9,72.9 104.9,101.1 103.9,102.1 			"/>
		</g>
		<g>
			<path fill="#FFFFFF" d="M125.8,64.6v7.3h-21.9v29.2H89.3V71.9H67.4v-7.3H125.8 M125.8,62.6H67.4l-2,2v7.3l2,2h19.9v27.2l2,2h14.6
				l2-2V73.9h19.9l2-2v-7.3L125.8,62.6L125.8,62.6z"/>
		</g>
	</g>
	<g>
		<g>
			<linearGradient id="SVGID_8_" gradientUnits="userSpaceOnUse" x1="158.6824" y1="102.0791" x2="158.6824" y2="63.5713">
				<stop  offset="0" style="stop-color:#FFF200"/>
				<stop  offset="1" style="stop-color:#EF4136"/>
			</linearGradient>
			<path fill="url(#SVGID_8_)" d="M169.6,102.1l-1-1V87.5h-19.9v13.6l-1,1h-14.6l-1-1V64.6l1-1h51.1l1,1v36.5l-1,1H169.6z
				 M168.6,78.2v-5.3h-19.9v5.3H168.6z"/>
		</g>
		<g>
			<path fill="#FFFFFF" d="M184.2,64.6v36.5h-14.6V86.5h-21.9v14.6h-14.6V64.6H184.2 M147.7,79.2h21.9v-7.3h-21.9V79.2 M184.2,62.6
				h-51.1l-2,2v36.5l2,2h14.6l2-2V88.5h17.9v12.6l2,2h14.6l2-2V64.6L184.2,62.6L184.2,62.6z M149.7,73.9h17.9v3.3h-17.9V73.9
				L149.7,73.9z"/>
		</g>
	</g>
	<g>
		<g>
			<linearGradient id="SVGID_9_" gradientUnits="userSpaceOnUse" x1="217.095" y1="102.0791" x2="217.095" y2="63.5713">
				<stop  offset="0" style="stop-color:#FFF200"/>
				<stop  offset="1" style="stop-color:#EF4136"/>
			</linearGradient>
			<path fill="url(#SVGID_9_)" d="M220.7,102.1l-1-1v-6.3h-6.3l-1-1v-6.3h-5.3v13.6l-1,1h-14.6l-1-1V64.6l1-1h51.1l1,1v21.9l-1,1
				h-6.3v5.3h6.3l1,1v7.3l-1,1H220.7z M227,78.2v-5.3h-19.9v5.3H227z"/>
		</g>
		<g>
			<path fill="#FFFFFF" d="M242.7,64.6v21.9h-7.3v7.3h7.3v7.3h-21.9v-7.3h-7.3v-7.3h-7.3v14.6h-14.6V64.6H242.7 M206.1,79.2H228
				v-7.3h-21.9V79.2 M242.7,62.6h-51.1l-2,2v36.5l2,2h14.6l2-2V88.5h3.3v5.3l2,2h5.3v5.3l2,2h21.9l2-2v-7.3l-2-2h-5.3v-3.3h5.3l2-2
				V64.6L242.7,62.6L242.7,62.6z M208.1,73.9H226v3.3h-17.9V73.9L208.1,73.9z"/>
		</g>
	</g>
	<g>
		<g>
			<linearGradient id="SVGID_10_" gradientUnits="userSpaceOnUse" x1="279.1582" y1="102.0791" x2="279.1582" y2="63.5713">
				<stop  offset="0" style="stop-color:#FFF200"/>
				<stop  offset="1" style="stop-color:#EF4136"/>
			</linearGradient>
			<polygon fill="url(#SVGID_10_)" points="271.9,102.1 270.9,101.1 270.9,72.9 250,72.9 249,71.9 249,64.6 250,63.6 308.4,63.6 
				309.4,64.6 309.4,71.9 308.4,72.9 287.5,72.9 287.5,101.1 286.5,102.1 			"/>
		</g>
		<g>
			<path fill="#FFFFFF" d="M308.4,64.6v7.3h-21.9v29.2h-14.6V71.9H250v-7.3H308.4 M308.4,62.6H250l-2,2v7.3l2,2h19.9v27.2l2,2h14.6
				l2-2V73.9h19.9l2-2v-7.3L308.4,62.6L308.4,62.6z"/>
		</g>
	</g>
</g>
</svg>
