<?xml version="1.0" encoding="UTF-8" standalone="no"?>
<!-- Creator: CorelDRAW -->

<svg
   xmlns:dc="http://purl.org/dc/elements/1.1/"
   xmlns:cc="http://creativecommons.org/ns#"
   xmlns:rdf="http://www.w3.org/1999/02/22-rdf-syntax-ns#"
   xmlns:svg="http://www.w3.org/2000/svg"
   xmlns="http://www.w3.org/2000/svg"
   xmlns:sodipodi="http://sodipodi.sourceforge.net/DTD/sodipodi-0.dtd"
   xmlns:inkscape="http://www.inkscape.org/namespaces/inkscape"
   xml:space="preserve"
   width="50"
   height="50"
   style="clip-rule:evenodd;fill-rule:evenodd;image-rendering:optimizeQuality;shape-rendering:geometricPrecision;text-rendering:geometricPrecision"
   viewBox="0 0 13.229167 13.229167"
   version="1.1"
   id="svg10"
   sodipodi:docname="question.svg"
   inkscape:version="0.92.3 (2405546, 2018-03-11)"><metadata
   id="metadata14"><rdf:RDF><cc:Work
       rdf:about=""><dc:format>image/svg+xml</dc:format><dc:type
         rdf:resource="http://purl.org/dc/dcmitype/StillImage" /><dc:title></dc:title></cc:Work></rdf:RDF></metadata><sodipodi:namedview
   pagecolor="#ffffff"
   bordercolor="#666666"
   borderopacity="1"
   objecttolerance="10"
   gridtolerance="10"
   guidetolerance="10"
   inkscape:pageopacity="0"
   inkscape:pageshadow="2"
   inkscape:window-width="1920"
   inkscape:window-height="1027"
   id="namedview12"
   showgrid="false"
   units="px"
   inkscape:zoom="4.3457605"
   inkscape:cx="86.339773"
   inkscape:cy="49.18688"
   inkscape:window-x="-8"
   inkscape:window-y="-8"
   inkscape:window-maximized="1"
   inkscape:current-layer="svg10" />
 <defs
   id="defs4">
  <style
   type="text/css"
   id="style2">
   <![CDATA[
    .fil0 {fill:#2B2A29;fill-rule:nonzero}
   ]]>
  </style>
 </defs>
 <g
   id="Layer_x0020_1"
   transform="matrix(0.48690738,0,0,0.48690738,-6.9466878,-3.2818333)"
   style="fill:#ffffff">
  <metadata
   id="CorelCorpID_0Corel-Layer" />
  <path
   class="fil0"
   d="m 29.898,26.5722 h -4.3921 c -0.0118,-0.635 -0.0177,-1.0172 -0.0177,-1.1583 0,-1.4229 0.2352,-2.5929 0.7056,-3.5102 0.4704,-0.9231 1.417,-1.952 2.8281,-3.1044 1.4111,-1.1465 2.2578,-1.8991 2.5282,-2.2578 0.4292,-0.5585 0.6409,-1.1818 0.6409,-1.8579 0,-0.9408 -0.3763,-1.7463 -1.1289,-2.4224 -0.7526,-0.6703 -1.7639,-1.0054 -3.0397,-1.0054 -1.2289,0 -2.2578,0.3527 -3.0868,1.0524 -0.8232,0.6997 -1.3935,1.7698 -1.7051,3.2044 l -4.4391,-0.5527 c 0.1234,-2.0578 0.9995,-3.8041 2.6223,-5.2387 1.6286,-1.4346 3.757,-2.152 6.4029,-2.152 2.7752,0 4.9859,0.7291 6.6322,2.1814 1.6404,1.4522 2.4635,3.1397 2.4635,5.0741 0,1.0642 -0.3057,2.0755 -0.9054,3.028 -0.6056,0.9525 -1.8933,2.2519 -3.8688,3.8923 -1.0231,0.8525 -1.6581,1.5346 -1.905,2.052 -0.2469,0.5174 -0.3587,1.4405 -0.3351,2.7752 z m -4.3921,6.5087 V 28.242 h 4.8389 v 4.8389 z"
   id="path7"
   inkscape:connector-curvature="0"
   style="fill:#ffffff;fill-rule:nonzero" />
 </g>
</svg>