<svg xmlns="http://www.w3.org/2000/svg" viewBox="0 0 19200 23130.77" width="50" height="50" fill="#fff"><path d="M7981.27 6053.46c-646.56 0-1176.84-525.62-1176.84-1176.84S7330.06 3699.8 7981.27 3699.8 9158.1 4225.4 9158.1 4876.62s-525.62 1176.84-1176.84 1176.84zm0-1869.9c-381.43 0-693.08 311.65-693.08 693.08s311.65 693.08 693.08 693.08 693.08-311.65 693.08-693.08-311.65-693.08-693.08-693.08zm3935.2 1944.32h-32.56l-1786.2-232.58c-65.12-9.3-120.94-41.86-158.15-93.03s-55.82-116.3-46.52-176.76l232.58-1786.2c18.6-130.24 139.55-227.93 269.8-209.32l1786.2 232.58c65.12 9.3 120.94 41.86 158.15 93.03s55.82 116.3 46.5 176.76l-232.58 1786.2c-13.95 120.94-116.3 209.32-237.23 209.32zM10404.7 5444.1l1302.43 172.1 172.1-1302.43-1302.43-172.1zM8013.83 3113.7c-13.95 0-32.56 0-51.17-4.65-130.24-27.9-213.97-153.5-186.06-283.74l381.43-1828.05c27.9-130.24 153.5-213.97 283.74-186.06s213.97 153.5 186.06 283.74L8246.4 2922.98c-18.6 111.64-120.94 190.7-232.58 190.7z"/><path d="M9120.9 2388.06c-13.95 0-32.56 0-51.17-4.65L7241.68 2002c-130.24-27.9-213.97-153.5-186.06-283.74s153.5-213.97 283.74-186.06l1828.04 381.4c130.24 27.9 213.97 153.5 186.06 283.74-23.26 111.64-120.94 190.7-232.58 190.7zm1255.9 595.4c-60.47 0-116.3-23.26-158.15-60.47-65.12-55.82-93.03-144.2-74.42-227.92l330.26-1572.22c18.6-83.73 79.08-153.5 158.15-176.76 83.73-27.9 172.1-9.3 237.23 46.52l1204.75 1060.55c65.12 55.82 93.03 144.2 74.42 227.92s-79.08 153.5-158.15 181.4l-1535 507.02c-27.9 9.3-55.82 13.96-79.08 13.96zm479.1-1358.25l-158.15 758.2 739.6-246.53zM2887.27 9463.47c-255.83 0-520.1 199.73-594.52 446.26L799.9 15096.18c-69.77 246.53-130.82 655.57-130.82 911.4v5852.2c0 255.83 209.32 465.15 465.15 465.15H18065.8c255.83 0 465.15-209.32 465.15-465.15V16035.2c0-255.83-61.05-664.88-130.83-911.4l-1511.75-5214.07c-69.77-246.53-338.7-446.26-594.52-446.26h-895.42c35.65 122.7 69.63 247.66 100.3 376.48 41.67 173.63 68.62 330.44 87.22 553.82h10.18c255.83 0 524.75 199.73 594.52 446.26l972.46 3349.1c69.77 246.53-82.85 446.26-338.7 446.26l-14453.16-18.9c-255.83 0-408.75-199.72-334.33-446.26l957.92-3330.2c69.77-246.53 340.14-446.26 595.98-446.26h10.2c16.24-166.2 42.1-300.66 82.86-484.05 33.58-151.12 70.65-300.1 113.38-446.26zm7438.08 8209.94h725.35v2180.4h-725.35zm972.46 0h725.35v966.65h1213.76v1213.76h-1939.1zm-7512.2 962.28h1939.1v725.35H4510.94v247.1H5724.7v241.3H3785.6zm2181.86 0h1939.1v241.3H6692.8v731.16h1213.76v241.3h-1939.1zm-4363.7 4.36H3544.3v242.75H2329.1v971h-725.35zm6539.76 0h1940.56v1213.76H8143.5v-725.35h1215.2v-241.3H8143.5zm5336.17 0h1939.1v1213.76h-1939.1zm2181.86 0h725.35v242.75h484.05v-242.75h725.35v242.75h-242.75v241.3h-241.3v241.3h241.3v242.75h242.75v241.3h-725.35v-241.3h-484.05v241.3h-725.35v-241.3h241.3v-242.75h241.3v-241.3h-241.3v-241.3h-241.3zM4510.94 18882.8v241.3H4995v-241.3zm7512.22 0v725.35h484.05v-725.35zm2181.86 0v725.35h484.05v-725.35zm-5330.36 482.6v242.75h484.05v-242.75zm6567.66-8004.55c-18.6-869.84-41.86-1144.28-120.94-1479.2-274.44-1144.27-734.94-2023.4-1428.02-2711.84-925.65-921-2028.06-1004.73-3349.1-251.18l-367.47 209.32s-1214.05-13.95-1316.4-88.37c-69.77-46.5-269.8-158.15-446.55-246.53-897.74-446.55-1702.46-497.7-2414.14-148.85-958.2 469.8-1800.14 1767.58-2149 3307.23-97.68 441.9-107 581.44-102.33 1711.76 4.65 1269.87 27.9 1483.84 213.97 1851.3 167.45 339.56 423.3 562.83 800.06 711.68 609.35 237.23 1632.7-414 2474.6-1581.52l283.74-390.73h4144.5l283.74 390.73c665.17 921 1604.78 1642 2139.7 1642 441.9 0 911.7-325.6 1139.62-800.06 200.02-409.33 246.53-851.23 213.97-2125.75zM8060.35 9695.6H7432.4v627.96c0 195.36-162.8 358.17-358.17 358.17s-358.17-162.8-358.17-358.17V9695.6H6088.1c-195.36 0-358.17-162.8-358.17-358.17s162.8-358.17 358.17-358.17h627.96V8351.3c0-195.36 162.8-358.17 358.17-358.17s358.17 162.8 358.17 358.17v627.96h627.96c195.36 0 358.17 162.8 358.17 358.17-4.65 200.02-162.8 358.17-358.17 358.17zm4623.62-1962.94c302.35 0 548.88 246.53 548.88 548.88s-246.53 548.88-548.88 548.88-548.88-246.53-548.88-548.88c4.65-302.35 246.53-548.88 548.88-548.88zM10902.43 8793.2c0-302.35 246.53-548.88 548.88-548.88s548.88 246.53 548.88 548.88-246.53 548.88-548.88 548.88-548.88-246.53-548.88-548.88zm1139.62 1855.96c-302.35 0-548.88-246.53-548.88-548.88s246.53-548.88 548.88-548.88 548.88 246.53 548.88 548.88-246.53 548.88-548.88 548.88zm1153.58-548.88c-302.35 0-548.88-246.53-548.88-548.88s246.53-548.88 548.88-548.88 548.88 246.53 548.88 548.88c0 307-246.53 548.88-548.88 548.88z"/></svg>