<?xml version="1.0" encoding="utf-8"?>
<!-- Generator: Adobe Illustrator 24.1.3, SVG Export Plug-In . SVG Version: 6.00 Build 0)  -->
<svg version="1.1" xmlns="http://www.w3.org/2000/svg" xmlns:xlink="http://www.w3.org/1999/xlink" x="0px" y="0px"
	 viewBox="0 0 451 543.11" style="enable-background:new 0 0 451 543.11;" xml:space="preserve">
<style type="text/css">
	.st0{display:none;}
	.st1{display:inline;}
	.st2{fill:#FF0000;}
	.st3{fill:#FF5DDC;}
	.st4{fill:#027FE1;}
	.st5{fill:#8AEE49;}
	.st6{fill:#808080;}
	.st7{fill:#FFFFFF;}
</style>
<g id="Calque_1" class="st0">
	<g class="st1">
		<path class="st2" d="M-288.08,132.54c-16.32,0-29.76-13.26-29.76-29.76c0-16.44,13.32-29.7,29.76-29.7
			c16.32,0,29.7,13.26,29.7,29.7C-258.38,119.28-271.64,132.54-288.08,132.54L-288.08,132.54z M-288.08,85.32
			c-9.66,0-17.52,7.86-17.52,17.46c0,9.66,7.86,17.52,17.52,17.52c9.6,0,17.46-7.86,17.46-17.52
			C-270.62,93.18-278.48,85.32-288.08,85.32L-288.08,85.32z"/>
		<path class="st3" d="M-188.72,134.4h-0.84l-45.06-5.88c-1.68-0.24-3.06-1.02-4.02-2.34c-0.96-1.26-1.38-2.94-1.2-4.44l5.88-45.12
			c0.48-3.3,3.54-5.64,6.84-5.28l45.12,5.88c1.62,0.24,3.06,1.02,3.96,2.34c0.96,1.26,1.44,2.94,1.2,4.44l-5.88,45.12
			C-183.08,132.18-185.66,134.4-188.72,134.4L-188.72,134.4z M-226.88,117.12l32.88,4.38l4.32-32.88l-32.88-4.38L-226.88,117.12
			L-226.88,117.12z"/>
		<path class="st4" d="M-287.3,58.26c-0.42,0-0.78,0-1.26-0.12c-3.3-0.66-5.4-3.84-4.68-7.14l9.6-46.14c0.72-3.3,3.9-5.4,7.2-4.74
			c3.24,0.72,5.4,3.9,4.68,7.2l-9.66,46.14C-281.84,56.28-284.48,58.26-287.3,58.26L-287.3,58.26z"/>
		<path class="st4" d="M-287.3,58.26c-0.42,0-0.78,0-1.26-0.12c-3.3-0.66-5.4-3.84-4.68-7.14l9.6-46.14c0.72-3.3,3.9-5.4,7.2-4.74
			c3.24,0.72,5.4,3.9,4.68,7.2l-9.66,46.14C-281.84,56.28-284.48,58.26-287.3,58.26L-287.3,58.26z"/>
		<path class="st4" d="M-259.34,39.96c-0.42,0-0.78,0-1.26-0.12l-46.2-9.66c-3.24-0.66-5.4-3.84-4.68-7.14s3.9-5.4,7.2-4.68
			l46.14,9.6c3.3,0.72,5.4,3.9,4.68,7.2C-254,37.98-256.52,39.96-259.34,39.96L-259.34,39.96z"/>
		<path class="st5" d="M-227.6,55.02c-1.5,0-2.94-0.6-4.02-1.56c-1.62-1.38-2.34-3.66-1.86-5.76l8.34-39.72
			c0.48-2.1,1.98-3.84,4.02-4.44c1.98-0.72,4.32-0.24,6,1.2l30.42,26.76c1.62,1.44,2.34,3.66,1.86,5.76
			c-0.48,2.1-1.98,3.9-4.02,4.56l-38.76,12.84C-226.4,54.9-227,55.02-227.6,55.02L-227.6,55.02z M-215.48,20.7l-4.02,19.14
			l18.66-6.24L-215.48,20.7L-215.48,20.7z"/>
		<rect x="-376" y="442.11" class="st6" width="12" height="6"/>
		<rect x="-266" y="455.11" class="st6" width="13" height="6"/>
		<rect x="-186" y="442.11" class="st6" width="12" height="19"/>
		<rect x="-131" y="442.11" class="st6" width="12" height="19"/>
		<path class="st6" d="M-25.14,361.62l-38.08-131.46c-1.74-6.24-8.5-11.04-14.98-11.04h-22.56c0.9,3,1.75,6.01,2.52,9.25
			c1.04,4.38,1.71,7.75,2.19,13.75h0.27c6.42,0,13.26,5.1,15,11.27l24.6,84.6c1.74,6.24-2.16,11.28-8.58,11.28l-364.98-0.48
			c-6.48,0-10.38-5.04-8.46-11.28l24.18-84.11c1.74-6.18,8.58-11.28,15.06-11.28h0.25c0.41-4,1.07-7.32,2.09-11.95
			c0.84-3.82,1.81-8.05,2.89-11.05h-22.99c-6.48,0-13.14,4.8-15.06,11.04l-37.8,130.86c-1.8,6.24-3.42,16.44-3.42,22.92v147.78
			c0,6.42,5.52,11.39,12,11.39h427.56c6.48,0,11.44-4.97,11.44-11.39V384.6C-22,378.18-23.34,367.8-25.14,361.62z M-400,442.11h-31
			v25h-18v-31h49V442.11z M-345,454.11h-31v7h31v6h-49v-31h49V454.11z M-290,442.11h-31v19h31v6h-49v-31h49V442.11z M-235,467.11
			h-49v-18h31v-7h-31v-6h49V467.11z M-211,467.11h-18v-55h18V467.11z M-155,467.11h-49v-55h18v24h31V467.11z M-100,467.11h-49v-31
			h49V467.11z M-45,442.11h-6v6h-7v7h7v6h6v6h-19v-6h-12v6h-18v-6h6v-6h6v-7h-6v-6h-6v-6h18v6h12v-6h19V442.11z"/>
		<path class="st6" d="M-99.68,266.58c-0.48-21.96-1.02-28.92-3.06-37.38c-6.9-28.92-18.54-51.12-36.06-68.46
			c-23.34-23.28-51.18-25.38-84.54-6.36l-9.3,5.28c0,0-30.66-0.36-33.24-2.22c-1.8-1.2-6.84-4.02-11.28-6.24
			c-22.68-11.28-43.02-12.54-60.96-3.78c-24.24,11.88-45.48,44.64-54.3,83.52c-2.46,11.16-2.7,14.7-2.58,43.26
			c0.12,32.04,0.72,37.44,5.4,46.74c4.26,8.58,10.68,14.22,20.22,18l0,0c15.36,6,41.22-10.5,62.46-39.96l7.2-9.84h104.64l7.2,9.84
			c16.8,23.28,40.5,41.46,54,41.46c11.16,0,23.04-8.22,28.8-20.22C-100.04,309.9-98.84,298.74-99.68,266.58L-99.68,266.58z
			 M-286.1,224.52h-15.84v15.84c0,4.92-4.14,9.06-9.06,9.06c-4.92,0-9.06-4.14-9.06-9.06v-15.84h-15.84c-4.92,0-9.06-4.14-9.06-9.06
			s4.14-9.06,9.06-9.06h15.84v-15.84c0-4.92,4.14-9.06,9.06-9.06c4.92,0,9.06,4.14,9.06,9.06v15.84h15.84
			c4.92,0,9.06,4.14,9.06,9.06C-277.16,220.5-281.18,224.52-286.1,224.52L-286.1,224.52z M-169.34,174.96
			c7.62,0,13.86,6.18,13.86,13.86c0,7.62-6.24,13.86-13.86,13.86s-13.86-6.24-13.86-13.86
			C-183.08,181.14-176.96,174.96-169.34,174.96L-169.34,174.96z M-214.34,201.72c0-7.62,6.24-13.86,13.86-13.86
			c7.68,0,13.86,6.24,13.86,13.86s-6.18,13.86-13.86,13.86C-208.1,215.58-214.34,209.34-214.34,201.72L-214.34,201.72z
			 M-185.54,248.58c-7.62,0-13.86-6.24-13.86-13.86s6.24-13.86,13.86-13.86s13.86,6.24,13.86,13.86S-177.92,248.58-185.54,248.58
			L-185.54,248.58z M-156.38,234.72c-7.68,0-13.92-6.24-13.92-13.86s6.24-13.86,13.92-13.86c7.62,0,13.86,6.24,13.86,13.86
			C-142.52,228.6-148.76,234.72-156.38,234.72L-156.38,234.72z"/>
	</g>
</g>
<g id="Calque_2">
	<g>
		<path class="st2" d="M184.92,132.54c-16.32,0-29.76-13.26-29.76-29.76c0-16.44,13.32-29.7,29.76-29.7
			c16.32,0,29.7,13.26,29.7,29.7C214.62,119.28,201.36,132.54,184.92,132.54L184.92,132.54z M184.92,85.32
			c-9.66,0-17.52,7.86-17.52,17.46c0,9.66,7.86,17.52,17.52,17.52c9.6,0,17.46-7.86,17.46-17.52
			C202.38,93.18,194.52,85.32,184.92,85.32L184.92,85.32z"/>
		<path class="st3" d="M284.28,134.4h-0.84l-45.06-5.88c-1.68-0.24-3.06-1.02-4.02-2.34c-0.96-1.26-1.38-2.94-1.2-4.44l5.88-45.12
			c0.48-3.3,3.54-5.64,6.84-5.28L291,77.22c1.62,0.24,3.06,1.02,3.96,2.34c0.96,1.26,1.44,2.94,1.2,4.44l-5.88,45.12
			C289.92,132.18,287.34,134.4,284.28,134.4L284.28,134.4z M246.12,117.12L279,121.5l4.32-32.88l-32.88-4.38L246.12,117.12
			L246.12,117.12z"/>
		<path class="st4" d="M185.7,58.26c-0.42,0-0.78,0-1.26-0.12c-3.3-0.66-5.4-3.84-4.68-7.14l9.6-46.14c0.72-3.3,3.9-5.4,7.2-4.74
			c3.24,0.72,5.4,3.9,4.68,7.2l-9.66,46.14C191.16,56.28,188.52,58.26,185.7,58.26L185.7,58.26z"/>
		<path class="st4" d="M185.7,58.26c-0.42,0-0.78,0-1.26-0.12c-3.3-0.66-5.4-3.84-4.68-7.14l9.6-46.14c0.72-3.3,3.9-5.4,7.2-4.74
			c3.24,0.72,5.4,3.9,4.68,7.2l-9.66,46.14C191.16,56.28,188.52,58.26,185.7,58.26L185.7,58.26z"/>
		<path class="st4" d="M213.66,39.96c-0.42,0-0.78,0-1.26-0.12l-46.2-9.66c-3.24-0.66-5.4-3.84-4.68-7.14s3.9-5.4,7.2-4.68
			l46.14,9.6c3.3,0.72,5.4,3.9,4.68,7.2C219,37.98,216.48,39.96,213.66,39.96L213.66,39.96z"/>
		<path class="st5" d="M245.4,55.02c-1.5,0-2.94-0.6-4.02-1.56c-1.62-1.38-2.34-3.66-1.86-5.76l8.34-39.72
			c0.48-2.1,1.98-3.84,4.02-4.44c1.98-0.72,4.32-0.24,6,1.2L288.3,31.5c1.62,1.44,2.34,3.66,1.86,5.76c-0.48,2.1-1.98,3.9-4.02,4.56
			l-38.76,12.84C246.6,54.9,246,55.02,245.4,55.02L245.4,55.02z M257.52,20.7l-4.02,19.14l18.66-6.24L257.52,20.7L257.52,20.7z"/>
		<rect x="97" y="442.11" class="st7" width="12" height="6"/>
		<rect x="207" y="455.11" class="st7" width="13" height="6"/>
		<rect x="287" y="442.11" class="st7" width="12" height="19"/>
		<rect x="342" y="442.11" class="st7" width="12" height="19"/>
		<path class="st7" d="M447.86,361.62l-38.08-131.46c-1.74-6.24-8.5-11.04-14.98-11.04h-22.56c0.9,3,1.75,6.01,2.52,9.25
			c1.04,4.38,1.71,7.75,2.19,13.75h0.27c6.42,0,13.26,5.1,15,11.27l24.6,84.6c1.74,6.24-2.16,11.28-8.58,11.28l-364.98-0.48
			c-6.48,0-10.38-5.04-8.46-11.28l24.18-84.11c1.74-6.18,8.58-11.28,15.06-11.28h0.25c0.41-4,1.07-7.32,2.09-11.95
			c0.84-3.82,1.81-8.05,2.89-11.05H56.28c-6.48,0-13.14,4.8-15.06,11.04L3.42,361.02C1.62,367.26,0,377.46,0,383.94v147.78
			c0,6.42,5.52,11.39,12,11.39h427.56c6.48,0,11.44-4.97,11.44-11.39V384.6C451,378.18,449.66,367.8,447.86,361.62z M73,442.11H42
			v25H24v-31h49V442.11z M128,454.11H97v7h31v6H79v-31h49V454.11z M183,442.11h-31v19h31v6h-49v-31h49V442.11z M238,467.11h-49v-18
			h31v-7h-31v-6h49V467.11z M262,467.11h-18v-55h18V467.11z M318,467.11h-49v-55h18v24h31V467.11z M373,467.11h-49v-31h49V467.11z
			 M428,442.11h-6v6h-7v7h7v6h6v6h-19v-6h-12v6h-18v-6h6v-6h6v-7h-6v-6h-6v-6h18v6h12v-6h19V442.11z"/>
		<path class="st7" d="M373.32,266.58c-0.48-21.96-1.02-28.92-3.06-37.38c-6.9-28.92-18.54-51.12-36.06-68.46
			c-23.34-23.28-51.18-25.38-84.54-6.36l-9.3,5.28c0,0-30.66-0.36-33.24-2.22c-1.8-1.2-6.84-4.02-11.28-6.24
			c-22.68-11.28-43.02-12.54-60.96-3.78c-24.24,11.88-45.48,44.64-54.3,83.52c-2.46,11.16-2.7,14.7-2.58,43.26
			c0.12,32.04,0.72,37.44,5.4,46.74c4.26,8.58,10.68,14.22,20.22,18l0,0c15.36,6,41.22-10.5,62.46-39.96l7.2-9.84h104.64l7.2,9.84
			c16.8,23.28,40.5,41.46,54,41.46c11.16,0,23.04-8.22,28.8-20.22C372.96,309.9,374.16,298.74,373.32,266.58L373.32,266.58z
			 M186.9,224.52h-15.84v15.84c0,4.92-4.14,9.06-9.06,9.06s-9.06-4.14-9.06-9.06v-15.84H137.1c-4.92,0-9.06-4.14-9.06-9.06
			s4.14-9.06,9.06-9.06h15.84v-15.84c0-4.92,4.14-9.06,9.06-9.06s9.06,4.14,9.06,9.06v15.84h15.84c4.92,0,9.06,4.14,9.06,9.06
			C195.84,220.5,191.82,224.52,186.9,224.52L186.9,224.52z M303.66,174.96c7.62,0,13.86,6.18,13.86,13.86
			c0,7.62-6.24,13.86-13.86,13.86s-13.86-6.24-13.86-13.86C289.92,181.14,296.04,174.96,303.66,174.96L303.66,174.96z
			 M258.66,201.72c0-7.62,6.24-13.86,13.86-13.86c7.68,0,13.86,6.24,13.86,13.86s-6.18,13.86-13.86,13.86
			C264.9,215.58,258.66,209.34,258.66,201.72L258.66,201.72z M287.46,248.58c-7.62,0-13.86-6.24-13.86-13.86s6.24-13.86,13.86-13.86
			s13.86,6.24,13.86,13.86S295.08,248.58,287.46,248.58L287.46,248.58z M316.62,234.72c-7.68,0-13.92-6.24-13.92-13.86
			S308.94,207,316.62,207c7.62,0,13.86,6.24,13.86,13.86C330.48,228.6,324.24,234.72,316.62,234.72L316.62,234.72z"/>
	</g>
</g>
</svg>
