<?xml version="1.0" encoding="UTF-8" standalone="no"?>
<svg
   xmlns:dc="http://purl.org/dc/elements/1.1/"
   xmlns:cc="http://creativecommons.org/ns#"
   xmlns:rdf="http://www.w3.org/1999/02/22-rdf-syntax-ns#"
   xmlns:svg="http://www.w3.org/2000/svg"
   xmlns="http://www.w3.org/2000/svg"
   xmlns:sodipodi="http://sodipodi.sourceforge.net/DTD/sodipodi-0.dtd"
   xmlns:inkscape="http://www.inkscape.org/namespaces/inkscape"
   width="564"
   height="680"
   version="1.1"
   id="svg49"
   sodipodi:docname="splash.svg"
   inkscape:version="0.92.3 (2405546, 2018-03-11)">
  <metadata
     id="metadata53">
    <rdf:RDF>
      <cc:Work
         rdf:about="">
        <dc:format>image/svg+xml</dc:format>
        <dc:type
           rdf:resource="http://purl.org/dc/dcmitype/StillImage" />
      </cc:Work>
    </rdf:RDF>
  </metadata>
  <sodipodi:namedview
     pagecolor="#ffffff"
     bordercolor="#666666"
     borderopacity="1"
     objecttolerance="10"
     gridtolerance="10"
     guidetolerance="10"
     inkscape:pageopacity="0"
     inkscape:pageshadow="2"
     inkscape:window-width="1280"
     inkscape:window-height="969"
     id="namedview51"
     showgrid="false"
     inkscape:zoom="2.7764706"
     inkscape:cx="361.18215"
     inkscape:cy="82.250483"
     inkscape:window-x="0"
     inkscape:window-y="27"
     inkscape:window-maximized="1"
     inkscape:current-layer="svg49" />
  <defs
     id="defs3">
    <path
       id="A"
       d="M849.816 795.313c-.623 0-1.245-.208-1.868-.415s-1.038-.623-1.453-1.038-.83-1.038-1.038-1.453c-.208-.623-.415-1.245-.415-1.868v-11.206h-3.32v-2.075h3.32V772.9l2.075-.415v4.773h4.565v2.075h-4.565v11.413c0 .415 0 .623.208 1.038s.415.623.623.83.415.415.83.623.623.208 1.038.208h2.075v2.075l-2.075-.208z" />
  </defs>
  <path
     d="M230.83 166.357c-20.4 0-37.15-16.593-37.15-37.15s16.593-37.15 37.15-37.15c20.4 0 37.15 16.593 37.15 37.15s-16.593 37.15-37.15 37.15zm0-59.03c-12.04 0-21.88 9.838-21.88 21.88s9.838 21.88 21.88 21.88 21.88-9.838 21.88-21.88-9.838-21.88-21.88-21.88z"
     fill="red"
     id="path5" />
  <path
     d="M355.056 168.706h-1.028l-56.386-7.342c-2.056-.294-3.818-1.322-4.993-2.937s-1.762-3.67-1.468-5.58l7.342-56.386c.587-4.1 4.405-7.048 8.517-6.608l56.386 7.342c2.056.294 3.818 1.322 4.993 2.937s1.762 3.67 1.468 5.58l-7.342 56.386c-.44 3.818-3.67 6.608-7.5 6.608zm-47.723-21.585l41.115 5.433 5.433-41.115-41.115-5.433z"
     fill="#ff5ddc"
     id="path7" />
  <g
     fill="#027fe1"
     id="g13">
    <path
       d="M 243.83789 0.69921875 C 240.31269 0.67112305 237.1782 3.1441875 236.4082 6.7421875 L 231.95312 28.09375 L 210.56641 23.630859 C 206.45541 22.749859 202.49038 25.392906 201.60938 29.503906 C 200.72837 33.614906 203.38242 37.580937 207.48242 38.460938 L 228.86133 42.921875 L 224.36914 64.451172 C 223.48814 68.562172 226.14219 72.528203 230.24219 73.408203 C 230.82919 73.555203 231.27042 73.554688 231.85742 73.554688 C 235.38142 73.554688 238.61222 71.057203 239.19922 67.533203 L 243.68945 46.015625 L 265.19141 50.501953 C 265.77841 50.648953 266.21964 50.648438 266.80664 50.648438 L 266.80664 50.646484 C 270.33064 50.646484 273.41444 48.150953 274.14844 44.626953 C 275.02944 40.515953 272.37344 36.549922 268.27344 35.669922 L 246.7832 31.1875 L 251.24023 9.8261719 C 252.12123 5.7151719 249.47623 1.7501406 245.36523 0.86914062 C 244.85136 0.75901563 244.34149 0.70323242 243.83789 0.69921875 z "
       id="path9" />
  </g>
  <path
     d="M306.452 69.443a7.53 7.53 0 0 1-4.993-1.909c-2.056-1.762-2.937-4.552-2.35-7.195l10.426-49.632c.587-2.643 2.496-4.846 4.993-5.58 2.496-.88 5.433-.294 7.5 1.468l38.03 33.48c2.056 1.762 2.937 4.552 2.35 7.195s-2.496 4.846-4.993 5.727l-48.457 16.005c-1.028.294-1.762.44-2.496.44zm15.124-42.877L316.583 50.5l23.347-7.78-18.355-16.152z"
     fill="#8aee49"
     id="path15" />
  <path
     d="M559.75 452.693l-47.723-164.607c-2.203-7.782-10.72-14.097-18.795-14.097h-423.2c-8.076 0-16.446 6.314-18.795 14.097L4.1 451.812c-2.203 7.782-4.1 20.704-4.1 28.78v184.724C0 673.392 6.608 680 14.684 680h534.494c8.076 0 14.684-6.608 14.684-14.684V481.474c0-8.076-1.9-20.998-4.1-28.78zm-49.778-15.418l-456.23-.587c-8.076 0-12.922-6.314-10.572-14.097l30.25-105.137c2.203-7.782 10.72-14.097 18.795-14.097h378.992c8.076 0 16.593 6.314 18.795 14.097l30.7 105.724c2.203 7.782-2.643 14.097-10.72 14.097z"
     fill="gray"
     id="path17" />
  <path
     d="M52.43 584.408H29.523v-38.325h61.232v7.636H52.43v30.7zm68.868-7.783h38.325v7.636H98.38v-38.325h61.232v22.907h-38.325v7.782zm0-15.27h15.27v-7.636h-15.27zm68.868 15.27h38.325v7.636h-61.23v-38.325h61.232v7.636h-38.325v23.054zm45.814-30.542h61.232v38.325H235.97V561.5h38.325v-7.636H235.97v-7.782zm23.054 30.543h15.27V569h-15.27zm45.813-61.076h22.907v68.868h-22.907zm30.7 0h22.907v30.543h38.325v38.325h-61.232zm22.907 61.085h15.27v-22.907h-15.27zm45.96-30.552h61.232v38.325h-61.232zm22.907 30.543h15.27V553.72h-15.27v22.907zM480.907 569h7.636v-7.636h-7.636v-7.636h-7.636v-7.636h22.907v7.636h15.27v-7.636h22.907v7.636h-7.636v7.636h-7.636V569h7.636v7.636h7.636v7.636H511.43v-7.636h-15.27v7.636h-22.9v-7.636h7.636V569zm-8.8-235.236c-.587-27.9-1.322-36.857-3.965-47.87-8.8-37.003-24.082-65.93-46.695-88.397-30.983-30.836-68.868-33.773-112.626-8.8l-10.13 5.863c-15.565-.147-33.48-1.028-37.297-2.056-2.937-1.9-9.398-5.433-14.243-7.93-29.955-14.83-57.267-16.446-81.202-4.7-31.864 15.565-59.617 58-70.776 108.22-3.23 14.537-3.524 19.1-3.377 55.2.147 40.968 1.028 48.457 7.342 61.085 6.02 12.04 14.978 20.117 28.34 25.256 3.377 1.322 6.9 1.9 10.72 1.9 21.438 0 49.778-20.117 74.154-53.743l7.195-9.838h124.96l7.195 9.838c18.942 26.284 50.806 54.184 72.245 54.184 16.3 0 32.892-11.453 41.262-28.487 6.314-13.95 7.93-28.34 6.9-69.75z"
     fill="#fff"
     id="path19" />
  <path
     d="M466.36 333.9c-.587-27.46-1.322-36.122-3.818-46.695-8.663-36.122-23.2-63.875-45.08-85.607-29.22-29.074-64.022-31.717-105.724-7.93l-11.6 6.608s-38.325-.44-41.555-2.8c-2.203-1.468-8.517-4.993-14.097-7.782-28.34-14.097-53.743-15.712-76.2-4.7-30.25 14.83-56.827 55.8-67.84 104.403-3.084 13.95-3.377 18.355-3.23 54.037.147 40.087.88 46.842 6.755 58.442 5.286 10.72 13.362 17.768 25.256 22.466 19.236 7.5 51.54-13.07 78.118-49.925l8.957-12.334h130.834l8.957 12.334c20.998 29.074 50.66 51.834 67.546 51.834 13.95 0 28.78-10.28 35.976-25.256 6.314-12.922 7.782-26.872 6.755-67.105zm-233.034-52.568h-19.823v19.823c0 6.167-5.14 11.307-11.307 11.307s-11.307-5.14-11.307-11.307v-19.823h-19.823c-6.167 0-11.307-5.14-11.307-11.307s5.14-11.307 11.307-11.307h19.823v-19.823c0-6.167 5.14-11.307 11.307-11.307s11.307 5.14 11.307 11.307v19.823h19.823c6.167 0 11.307 5.14 11.307 11.307-.147 6.314-5.14 11.307-11.307 11.307zm145.958-61.966c9.545 0 17.327 7.782 17.327 17.327s-7.782 17.327-17.327 17.327-17.327-7.782-17.327-17.327c.147-9.545 7.782-17.327 17.327-17.327zm-56.24 33.48c0-9.545 7.782-17.327 17.327-17.327s17.327 7.782 17.327 17.327-7.782 17.327-17.327 17.327-17.327-7.782-17.327-17.327zm35.976 58.6c-9.545 0-17.327-7.782-17.327-17.327s7.782-17.327 17.327-17.327 17.327 7.782 17.327 17.327-7.782 17.327-17.327 17.327zm36.416-17.327c-9.545 0-17.327-7.782-17.327-17.327s7.782-17.327 17.327-17.327 17.327 7.782 17.327 17.327c0 9.7-7.782 17.327-17.327 17.327z"
     fill="gray"
     id="path21" />
  <path
     d="M392.13 646.68zm0-14.32zm0-14.1zm0 7.055zm0 28.43zm0-14.318zm0-28.222z"
     fill="#d40000"
     id="path23" />
  <path
     d="M392.13 613.062a1.86 1.86 0 0 0-1.868-1.868h-59.97c-1.038 0-2.5.623-3.32 1.245l-4.358 4.358c-.83.83-1.245 2.283-1.245 3.32v38.597a1.86 1.86 0 0 0 1.868 1.868h59.97c1.038 0 2.5-.623 3.32-1.245l4.358-4.358c.83-.83 1.245-2.283 1.245-3.32z"
     fill="#004e73"
     id="path25" />
  <path
     d="M383.632 638.17l-4.358-4.358c-.83-.83-2.283-1.245-3.32-1.245h-5.188l12.658-12.658c.83-.83.415-1.245-.623-1.245h-17.43c-1.038 0-2.5.623-3.32 1.245L322.21 659.75c-.415.208-.623.623-.83.83.415.415.83.623 1.245.623h47.52l12.658-12.658c.83-.83 1.245-2.283 1.245-3.32v-3.32c1.038-1.453.415-2.905-.415-3.735z"
     opacity=".2"
     id="path27" />
  <path
     d="M321.378 634.436v-1.868s.623-.623 1.245-1.453l11.413-11.413c.83-.83 2.283-1.245 3.32-1.245h17.43c1.038 0 1.245.623.623 1.245L342.75 632.36h5.18c1.038 0 1.868.83 1.66 1.868l-.208 2.698c0 1.038-.208 2.075-.415 2.283l-7.47 7.47h4.98c1.038 0 2.5.623 3.32 1.245l4.565 4.15a15.11 15.11 0 0 1 1.453 1.245l-7.47 7.47h-25.1a1.86 1.86 0 0 1-1.868-1.868v-24.486z"
     id="path31" />
  <path
     id="path45"
     style="fill:#ffffff"
     d="m 461.034,637.963 v -2.905 h 2.5 v 2.905 z m 0,22.4 V 642.32 h 2.075 v 18.054 h -2.075 z m 19.1,-2.903 c -0.208,0.623 -0.623,1.245 -1.245,1.66 -0.415,0.415 -1.038,0.83 -1.66,1.245 -0.623,0.208 -1.245,0.415 -2.075,0.415 h -1.453 c -0.83,0 -1.453,-0.208 -2.075,-0.415 -0.622,-0.207 -1.245,-0.623 -1.66,-1.245 -0.415,-0.415 -0.83,-1.038 -1.245,-1.66 -0.208,-0.623 -0.415,-1.245 -0.415,-2.075 v -8.093 c 0,-0.83 0.208,-1.453 0.415,-2.075 0.207,-0.622 0.623,-1.245 1.245,-1.66 0.415,-0.415 1.038,-0.83 1.66,-1.245 0.623,-0.208 1.245,-0.415 2.075,-0.415 h 1.453 c 0.83,0 1.453,0.208 2.075,0.415 0.622,0.207 1.245,0.623 1.66,1.245 0.415,0.415 0.83,1.038 1.245,1.66 0.208,0.623 0.415,1.245 0.415,2.075 v 8.093 c 0,0.83 -0.208,1.453 -0.415,2.075 z m -1.868,-10.376 c 0,-0.415 0,-0.83 -0.208,-1.245 -0.208,-0.415 -0.415,-0.623 -0.623,-1.038 -0.208,-0.208 -0.623,-0.415 -1.038,-0.623 -0.415,-0.208 -0.83,-0.208 -1.245,-0.208 h -1.453 c -0.415,0 -0.83,0 -1.245,0.208 -0.415,0.208 -0.623,0.415 -1.038,0.623 -0.208,0.208 -0.415,0.623 -0.623,1.038 -0.208,0.415 -0.208,0.83 -0.208,1.245 v 8.508 c 0,0.415 0,0.83 0.208,1.245 0.208,0.415 0.415,0.623 0.623,1.038 0.208,0.208 0.623,0.415 1.038,0.623 0.415,0.208 0.83,0.208 1.245,0.208 h 1.453 c 0.415,0 0.83,0 1.245,-0.208 0.415,-0.208 0.623,-0.415 1.038,-0.623 0.208,-0.208 0.415,-0.623 0.623,-1.038 0.208,-0.415 0.208,-0.83 0.208,-1.245 z m 16.6,13.28 v -13.28 c 0,-0.415 0,-0.83 -0.208,-1.245 -0.208,-0.415 -0.415,-0.623 -0.623,-1.038 -0.208,-0.208 -0.623,-0.415 -1.038,-0.623 -0.415,-0.208 -0.83,-0.208 -1.245,-0.208 h -1.453 c -0.415,0 -0.83,0 -1.245,0.208 -0.415,0.208 -0.623,0.415 -1.038,0.623 -0.208,0.208 -0.415,0.623 -0.623,1.038 -0.208,0.415 -0.208,0.83 -0.208,1.245 v 13.28 H 485.11 V 642.32 h 0.623 l 1.245,1.868 a 4.9,4.9 0 0 1 1.868,-1.66 c 0.83,-0.415 1.66,-0.623 2.5,-0.623 h 0.623 c 0.83,0 1.453,0.208 2.075,0.415 0.622,0.207 1.245,0.623 1.66,1.245 a 4.52,4.52 0 0 1 1.038,1.66 c 0.208,0.623 0.415,1.245 0.415,2.075 v 13.073 h -2.283 z m -40.472,0.011 c -0.623,0 -1.245,-0.208 -1.868,-0.415 -0.623,-0.207 -1.038,-0.623 -1.453,-1.038 -0.415,-0.415 -0.83,-1.038 -1.038,-1.453 -0.208,-0.623 -0.415,-1.245 -0.415,-1.868 v -11.206 h -3.32 v -2.075 h 3.32 v -4.358 l 2.075,-0.415 v 4.773 h 4.565 v 2.075 h -4.565 v 11.413 c 0,0.415 0,0.623 0.208,1.038 0.208,0.415 0.415,0.623 0.623,0.83 0.208,0.207 0.415,0.415 0.83,0.623 0.415,0.208 0.623,0.208 1.038,0.208 h 2.075 v 2.075 l -2.075,-0.208 z m -11.621,0 -1.245,-1.868 a 4.9,4.9 0 0 1 -1.868,1.66 c -0.83,0.415 -1.66,0.623 -2.5,0.623 h -0.623 c -0.83,0 -1.453,-0.208 -2.075,-0.415 -0.622,-0.207 -1.245,-0.623 -1.66,-1.245 -0.415,-0.415 -0.83,-1.038 -1.245,-1.66 -0.208,-0.623 -0.415,-1.245 -0.415,-2.075 v -0.208 c 0,-0.83 0.208,-1.453 0.415,-2.075 0.207,-0.622 0.623,-1.245 1.245,-1.66 0.415,-0.415 1.038,-0.83 1.66,-1.245 0.623,-0.208 1.245,-0.415 2.075,-0.415 h 4.565 v -2.698 c 0,-0.415 0,-0.83 -0.208,-1.245 -0.208,-0.415 -0.415,-0.623 -0.623,-1.038 -0.208,-0.208 -0.623,-0.415 -1.038,-0.623 -0.415,-0.208 -0.83,-0.208 -1.245,-0.208 h -1.245 c -0.415,0 -0.83,0 -1.245,0.208 -0.415,0.208 -0.623,0.415 -1.038,0.623 -0.208,0.208 -0.415,0.623 -0.623,1.038 -0.208,0.415 -0.208,0.83 -0.208,1.245 v 0.623 l -2.075,-0.415 v -0.208 c 0,-0.83 0.208,-1.453 0.415,-2.075 0.207,-0.622 0.623,-1.245 1.245,-1.66 0.415,-0.415 1.038,-0.83 1.66,-1.245 0.623,-0.208 1.245,-0.415 2.075,-0.415 h 1.245 c 0.83,0 1.453,0.208 2.075,0.415 0.622,0.207 1.245,0.623 1.66,1.245 0.415,0.415 0.83,1.038 1.245,1.66 0.208,0.623 0.415,1.245 0.415,2.075 v 13.073 l -0.83,0.208 z m -1.453,-8.716 h -4.565 c -0.415,0 -0.83,0 -1.245,0.208 -0.415,0.208 -0.623,0.415 -1.038,0.623 -0.208,0.208 -0.415,0.623 -0.623,1.038 -0.208,0.415 -0.208,0.83 -0.208,1.245 v 0.83 c 0,0.415 0,0.83 0.208,1.245 0.208,0.415 0.415,0.623 0.623,1.038 0.208,0.208 0.623,0.415 1.038,0.623 0.415,0.208 0.83,0.208 1.245,0.208 h 1.453 c 0.415,0 0.83,0 1.245,-0.208 0.415,-0.208 0.623,-0.415 1.038,-0.623 0.208,-0.208 0.415,-0.623 0.623,-1.038 0.208,-0.415 0.208,-0.83 0.208,-1.245 v -3.953 z m -15.978,8.716 c -0.623,0 -1.245,-0.208 -1.868,-0.415 -0.623,-0.207 -1.038,-0.623 -1.453,-1.038 -0.415,-0.415 -0.83,-1.038 -1.038,-1.453 -0.208,-0.623 -0.415,-1.245 -0.415,-1.868 v -11.206 h -3.32 v -2.075 h 3.32 v -4.358 l 2.075,-0.415 v 4.773 h 4.565 v 2.075 h -4.565 v 11.413 c 0,0.415 0,0.623 0.208,1.038 0.208,0.415 0.415,0.623 0.623,0.83 0.208,0.207 0.415,0.415 0.83,0.623 0.415,0.208 0.623,0.208 1.038,0.208 h 2.075 v 2.075 l -2.075,-0.208 z m 72.838,-53.123 v -2.905 h 2.5 v 2.905 z m 0.208,22.4 V 611.61 h 2.075 v 18.054 h -2.075 z m 19.1,-2.904 a 4.52,4.52 0 0 1 -1.038,1.66 c -0.415,0.415 -1.038,0.83 -1.66,1.245 -0.623,0.208 -1.245,0.415 -2.075,0.415 h -1.453 c -0.83,0 -1.453,-0.208 -2.075,-0.415 -0.622,-0.207 -1.245,-0.623 -1.66,-1.245 -0.415,-0.415 -0.83,-1.038 -1.245,-1.66 -0.208,-0.623 -0.415,-1.245 -0.415,-2.075 v -8.093 c 0,-0.83 0.208,-1.453 0.415,-2.075 0.207,-0.622 0.623,-1.245 1.245,-1.66 0.415,-0.415 1.038,-0.83 1.66,-1.245 0.623,-0.208 1.245,-0.415 2.075,-0.415 h 1.453 c 0.83,0 1.453,0.208 2.075,0.415 0.622,0.207 1.245,0.623 1.66,1.245 a 4.52,4.52 0 0 1 1.038,1.66 c 0.208,0.623 0.415,1.245 0.415,2.075 v 8.093 c 0,0.83 -0.208,1.453 -0.415,2.075 z m -1.868,-10.376 c 0,-0.415 0,-0.83 -0.208,-1.245 -0.208,-0.415 -0.415,-0.623 -0.623,-1.038 -0.208,-0.208 -0.623,-0.415 -1.038,-0.623 -0.415,-0.208 -0.83,-0.208 -1.245,-0.208 h -1.453 c -0.415,0 -0.83,0 -1.245,0.208 -0.415,0.208 -0.623,0.415 -1.038,0.623 -0.208,0.208 -0.415,0.623 -0.623,1.038 -0.208,0.415 -0.208,0.83 -0.208,1.245 v 8.508 c 0,0.415 0,0.83 0.208,1.245 0.208,0.415 0.415,0.623 0.623,1.038 0.208,0.208 0.623,0.415 1.038,0.623 0.415,0.208 0.83,0.208 1.245,0.208 h 1.453 c 0.415,0 0.83,0 1.245,-0.208 0.415,-0.208 0.623,-0.415 1.038,-0.623 0.208,-0.208 0.415,-0.623 0.623,-1.038 0.208,-0.415 0.208,-0.83 0.208,-1.245 z m 16.394,13.28 v -13.28 c 0,-0.415 0,-0.83 -0.208,-1.245 -0.208,-0.415 -0.415,-0.623 -0.623,-1.038 -0.208,-0.208 -0.623,-0.415 -1.038,-0.623 -0.415,-0.208 -0.83,-0.208 -1.245,-0.208 h -1.453 c -0.415,0 -0.83,0 -1.245,0.208 -0.415,0.208 -0.623,0.415 -1.038,0.623 -0.208,0.208 -0.415,0.623 -0.623,1.038 -0.208,0.415 -0.208,0.83 -0.208,1.245 v 13.28 h -2.075 V 611.61 h 0.623 l 1.245,1.868 a 4.9,4.9 0 0 1 1.868,-1.66 c 0.83,-0.415 1.66,-0.623 2.5,-0.623 h 0.623 c 0.83,0 1.453,0.208 2.075,0.415 0.622,0.207 1.245,0.623 1.66,1.245 0.415,0.622 0.83,1.038 1.245,1.66 0.208,0.623 0.415,1.245 0.415,2.075 v 13.073 h -2.5 z M 414.55,655.81 c 0,0.83 -0.208,1.453 -0.415,2.075 -0.207,0.622 -0.623,1.038 -1.245,1.66 a 4.52,4.52 0 0 1 -1.66,1.038 c -0.623,0.208 -1.453,0.415 -2.075,0.415 h -1.453 c -0.83,0 -1.453,-0.208 -2.075,-0.415 -0.622,-0.207 -1.245,-0.623 -1.66,-1.245 -0.415,-0.415 -0.83,-1.038 -1.245,-1.66 -0.208,-0.623 -0.415,-1.245 -0.415,-2.075 v -0.623 l 2.075,-0.415 v 1.245 c 0,0.415 0,0.83 0.208,1.245 0.208,0.415 0.415,0.623 0.83,1.038 0.208,0.208 0.623,0.415 1.038,0.623 0.415,0.208 0.83,0.208 1.245,0.208 h 1.453 c 0.415,0 0.83,0 1.245,-0.208 0.415,-0.208 0.83,-0.415 1.038,-0.623 0.415,-0.208 0.623,-0.623 0.83,-0.83 0.208,-0.415 0.208,-0.83 0.208,-1.245 0,-0.623 -0.208,-1.245 -0.415,-1.66 a 2.5,2.5 0 0 0 -1.038,-1.038 c -0.415,-0.208 -1.038,-0.415 -1.66,-0.623 l -3.735,-1.245 c -0.623,-0.208 -1.038,-0.623 -1.66,-0.83 -0.622,-0.207 -0.83,-0.83 -1.038,-1.453 -0.208,-0.623 -0.415,-1.245 -0.415,-2.075 0,-0.83 0.208,-1.453 0.415,-2.075 0.207,-0.622 0.623,-1.038 1.245,-1.66 a 4.52,4.52 0 0 1 1.66,-1.038 c 0.623,-0.208 1.245,-0.415 2.075,-0.415 h 1.245 c 0.83,0 1.453,0.208 2.075,0.415 0.622,0.207 1.245,0.623 1.66,1.245 0.415,0.415 0.83,1.038 1.245,1.66 0.208,0.623 0.415,1.245 0.415,2.075 l -2.075,0.415 v -0.623 c 0,-0.415 0,-0.83 -0.208,-1.245 -0.208,-0.415 -0.415,-0.623 -0.623,-1.038 -0.208,-0.208 -0.623,-0.415 -1.038,-0.623 -0.415,-0.208 -0.83,-0.208 -1.245,-0.208 h -1.453 c -0.415,0 -0.83,0 -1.245,0.208 -0.415,0.208 -0.623,0.415 -1.038,0.623 -0.208,0.208 -0.415,0.623 -0.623,0.83 -0.208,0.415 -0.208,0.83 -0.208,1.245 0,0.623 0.208,1.038 0.415,1.453 a 2.5,2.5 0 0 0 1.038,1.038 c 0.415,0.208 1.038,0.415 1.66,0.623 l 3.735,1.245 c 0.623,0.208 1.038,0.623 1.66,1.038 0.415,0.415 0.83,0.83 1.038,1.453 0.208,0.623 0.208,1.245 0.208,2.075 z m 77.196,-26.147 c -0.623,0 -1.245,-0.208 -1.868,-0.415 -0.623,-0.207 -1.038,-0.623 -1.453,-1.038 -0.415,-0.415 -0.83,-1.038 -1.038,-1.453 -0.208,-0.623 -0.415,-1.245 -0.415,-1.868 v -11.206 h -3.32 v -2.075 h 3.32 v -4.358 l 2.075,-0.415 v 4.773 h 4.565 v 2.075 h -4.565 v 11.413 c 0,0.415 0,0.623 0.208,1.038 0.208,0.415 0.415,0.623 0.623,0.83 0.208,0.207 0.415,0.415 0.83,0.623 0.415,0.208 0.623,0.208 1.038,0.208 h 2.075 v 2.075 l -2.075,-0.208 z M 337.357,646.68 a 1.86,1.86 0 0 1 -1.868,-1.868 v -3.32 a 1.86,1.86 0 0 1 1.868,-1.868 h 10.376 a 1.86,1.86 0 0 0 1.868,-1.868 v -3.32 a 1.86,1.86 0 0 0 -1.868,-1.868 h -10.376 a 1.86,1.86 0 0 1 -1.868,-1.868 v -3.32 a 1.86,1.86 0 0 1 1.868,-1.868 h 10.376 c 1.038,0 2.5,-0.623 3.32,-1.245 l 4.358,-4.358 c 0.83,-0.83 0.415,-1.245 -0.623,-1.245 h -17.43 c -1.038,0 -2.5,0.623 -3.32,1.245 l -4.358,4.358 c -0.83,0.83 -1.245,2.283 -1.245,3.32 v 17.43 c 0,1.038 0.623,2.5 1.245,3.32 l 4.358,4.358 c 0.83,0.83 2.283,1.245 3.32,1.245 h 17.43 c 1.038,0 1.245,-0.623 0.623,-1.245 l -4.358,-4.358 c -0.83,-0.83 -2.283,-1.245 -3.32,-1.245 l -10.376,-0.415 z m 76.363,-19.922 c -0.208,0.623 -0.623,1.245 -1.245,1.66 -0.415,0.415 -1.038,0.83 -1.66,1.245 -0.623,0.208 -1.245,0.415 -2.075,0.415 h -1.453 c -0.83,0 -1.453,-0.208 -2.075,-0.415 -0.622,-0.207 -1.245,-0.623 -1.66,-1.245 -0.415,-0.415 -0.83,-1.038 -1.245,-1.66 -0.208,-0.623 -0.415,-1.245 -0.415,-2.075 v -8.093 c 0,-0.83 0.208,-1.453 0.415,-2.075 0.207,-0.622 0.623,-1.245 1.245,-1.66 0.415,-0.415 1.038,-0.83 1.66,-1.245 0.623,-0.208 1.245,-0.415 2.075,-0.415 h 1.453 c 0.83,0 1.453,0.208 2.075,0.415 0.622,0.207 1.245,0.623 1.66,1.245 0.415,0.415 0.83,1.038 1.245,1.66 0.208,0.623 0.415,1.245 0.415,2.075 v 4.358 h -9.96 v 3.943 c 0,0.415 0,0.83 0.208,1.245 0.208,0.415 0.415,0.623 0.623,1.038 0.208,0.208 0.623,0.415 1.038,0.623 0.415,0.208 0.83,0.208 1.245,0.208 h 1.453 c 0.415,0 0.83,0 1.245,-0.208 0.415,-0.208 0.623,-0.415 1.038,-0.623 0.208,-0.208 0.415,-0.623 0.623,-1.038 0.208,-0.415 0.208,-0.83 0.208,-1.245 v -1.245 l 2.075,0.415 v 0.623 c 0.208,0.83 0.208,1.453 -0.208,2.075 z m -1.66,-10.376 c 0,-0.415 0,-0.83 -0.208,-1.245 -0.208,-0.415 -0.415,-0.623 -0.623,-1.038 -0.208,-0.208 -0.623,-0.415 -1.038,-0.623 -0.415,-0.208 -0.83,-0.208 -1.245,-0.208 h -1.453 c -0.415,0 -0.83,0 -1.245,0.208 -0.415,0.208 -0.623,0.415 -1.038,0.623 -0.208,0.208 -0.415,0.623 -0.623,1.038 -0.208,0.415 -0.208,0.83 -0.208,1.245 v 2.698 h 7.678 v -2.698 z m 25.733,13.28 v -13.28 c 0,-0.415 0,-0.83 -0.208,-1.245 -0.208,-0.415 -0.415,-0.623 -0.623,-1.038 -0.208,-0.208 -0.623,-0.415 -1.038,-0.623 -0.415,-0.208 -0.83,-0.208 -1.245,-0.208 h -1.038 c -0.415,0 -0.83,0 -1.245,0.208 -0.415,0.208 -0.623,0.415 -1.038,0.623 -0.208,0.208 -0.415,0.623 -0.623,1.038 -0.208,0.415 -0.208,0.83 -0.208,1.245 v 13.28 h -2.075 v -13.28 c 0,-0.415 0,-0.83 -0.208,-1.245 -0.208,-0.415 -0.415,-0.623 -0.623,-1.038 -0.208,-0.208 -0.623,-0.415 -1.038,-0.623 -0.415,-0.208 -0.83,-0.208 -1.245,-0.208 H 424.3 c -0.415,0 -0.83,0 -1.245,0.208 -0.415,0.208 -0.623,0.415 -1.038,0.623 -0.208,0.208 -0.415,0.623 -0.623,1.038 -0.208,0.415 -0.208,0.83 -0.208,1.245 v 13.28 h -2.075 V 611.61 h 0.623 l 1.245,1.868 a 4.9,4.9 0 0 1 1.868,-1.66 c 0.83,-0.415 1.66,-0.623 2.5,-0.623 h 0.208 c 1.038,0 1.868,0.208 2.698,0.83 0.83,0.415 1.453,1.245 1.868,2.075 0.208,-0.415 0.415,-0.83 0.83,-1.038 0.415,-0.415 0.623,-0.623 1.038,-0.83 l 1.245,-0.623 c 0.415,-0.208 1.038,-0.208 1.453,-0.208 h 0.208 c 0.83,0 1.453,0.208 2.075,0.415 0.622,0.207 1.245,0.623 1.66,1.245 0.415,0.415 0.83,1.038 1.245,1.66 0.208,0.623 0.415,1.245 0.415,2.075 v 13.073 l -2.5,-0.208 z m 17.847,0 -1.245,-1.868 a 4.9,4.9 0 0 1 -1.868,1.66 c -0.83,0.415 -1.66,0.623 -2.5,0.623 h -0.623 c -0.83,0 -1.453,-0.208 -2.075,-0.415 -0.622,-0.207 -1.245,-0.623 -1.66,-1.245 -0.415,-0.415 -0.83,-1.038 -1.245,-1.66 -0.208,-0.623 -0.415,-1.245 -0.415,-2.075 V 611.61 h 2.075 v 13.28 c 0,0.415 0,0.83 0.208,1.245 0.208,0.415 0.415,0.623 0.623,1.038 0.208,0.208 0.623,0.415 1.038,0.623 0.415,0.208 0.83,0.208 1.245,0.208 h 1.453 c 0.415,0 0.83,0 1.245,-0.208 0.415,-0.208 0.623,-0.415 1.038,-0.623 0.208,-0.208 0.415,-0.623 0.623,-1.038 0.208,-0.415 0.208,-0.83 0.208,-1.245 v -13.28 h 2.075 v 18.054 h -0.208 z m 5.8,0 v -25.316 h 2.075 v 25.316 z m 18.675,0 -1.245,-1.868 a 4.9,4.9 0 0 1 -1.868,1.66 c -0.83,0.415 -1.66,0.623 -2.5,0.623 h -0.623 c -0.83,0 -1.453,-0.208 -2.075,-0.415 -0.622,-0.207 -1.245,-0.623 -1.66,-1.245 -0.415,-0.415 -0.83,-1.038 -1.245,-1.66 -0.208,-0.623 -0.415,-1.245 -0.415,-2.075 0,-0.83 0.208,-1.453 0.415,-2.075 0.207,-0.622 0.623,-1.245 1.245,-1.66 0.415,-0.415 1.038,-0.83 1.66,-1.245 0.623,-0.208 1.245,-0.415 2.075,-0.415 h 4.565 v -2.905 c 0,-0.415 0,-0.83 -0.208,-1.245 -0.208,-0.415 -0.415,-0.623 -0.623,-1.038 -0.208,-0.208 -0.623,-0.415 -1.038,-0.623 -0.415,-0.208 -0.83,-0.208 -1.245,-0.208 h -1.245 c -0.415,0 -0.83,0 -1.245,0.208 -0.415,0.208 -0.623,0.415 -1.038,0.623 -0.208,0.208 -0.415,0.623 -0.623,1.038 -0.208,0.415 -0.208,0.83 -0.208,1.245 v 0.623 l -2.075,-0.415 v -0.208 c 0,-0.83 0.208,-1.453 0.415,-2.075 0.207,-0.622 0.623,-1.245 1.245,-1.66 0.415,-0.415 1.038,-0.83 1.66,-1.245 0.623,-0.208 1.245,-0.415 2.075,-0.415 h 1.245 c 0.83,0 1.453,0.208 2.075,0.415 0.622,0.207 1.245,0.623 1.66,1.245 a 4.52,4.52 0 0 1 1.038,1.66 c 0.208,0.623 0.415,1.245 0.415,2.075 v 13.073 h -0.623 v 0.208 z m -1.453,-8.716 h -4.565 c -0.415,0 -0.83,0 -1.245,0.208 -0.415,0.208 -0.623,0.415 -1.038,0.623 -0.208,0.208 -0.415,0.623 -0.623,1.038 -0.208,0.415 -0.208,0.83 -0.208,1.245 v 0.83 c 0,0.415 0,0.83 0.208,1.245 0.208,0.415 0.415,0.623 0.623,1.038 0.208,0.208 0.623,0.415 1.038,0.623 0.415,0.208 0.83,0.208 1.245,0.208 h 1.453 c 0.415,0 0.83,0 1.245,-0.208 0.415,-0.208 0.623,-0.415 1.038,-0.623 0.208,-0.208 0.415,-0.623 0.623,-1.038 0.208,-0.415 0.208,-0.83 0.208,-1.245 v -3.943 z m -112.876,18.47 c -1.038,0 -2.5,-0.623 -3.32,-1.245 l -4.358,-4.358 c -0.83,-0.83 -1.245,-2.283 -1.245,-3.32 v -3.32 c 0,-1.038 0.623,-2.5 1.245,-3.32 l 4.358,-4.358 c 0.83,-0.83 2.283,-1.245 3.32,-1.245 h 17.43 c 1.038,0 1.245,0.623 0.623,1.245 l -4.358,4.358 c -0.83,0.83 -2.283,1.245 -3.32,1.245 h -10.376 a 1.86,1.86 0 0 0 -1.868,1.868 v 3.32 a 1.86,1.86 0 0 0 1.868,1.868 h 10.376 c 1.038,0 2.5,0.623 3.32,1.245 l 4.358,4.358 c 0.83,0.83 1.245,2.283 1.245,3.32 v 3.32 c 0,1.038 -0.623,2.5 -1.245,3.32 l -4.358,4.358 c -0.83,0.83 -2.283,1.245 -3.32,1.245 h -10.376 c -1.038,0 -2.5,-0.623 -3.32,-1.245 l -4.358,-4.358 c -0.83,-0.83 -0.415,-1.245 0.623,-1.245 h 17.43 a 1.86,1.86 0 0 0 1.868,-1.868 v -5.188 h -12.243 z" />
</svg>
