<svg xmlns="http://www.w3.org/2000/svg" xmlns:xlink="http://www.w3.org/1999/xlink" width="564" height="680"><defs><path id="A" d="M849.816 795.313c-.623 0-1.245-.208-1.868-.415s-1.038-.623-1.453-1.038-.83-1.038-1.038-1.453c-.208-.623-.415-1.245-.415-1.868v-11.206h-3.32v-2.075h3.32V772.9l2.075-.415v4.773h4.565v2.075h-4.565v11.413c0 .415 0 .623.208 1.038s.415.623.623.83.415.415.83.623.623.208 1.038.208h2.075v2.075l-2.075-.208z"/></defs><path d="M230.83 166.357c-20.4 0-37.15-16.593-37.15-37.15s16.593-37.15 37.15-37.15c20.4 0 37.15 16.593 37.15 37.15s-16.593 37.15-37.15 37.15zm0-59.03c-12.04 0-21.88 9.838-21.88 21.88s9.838 21.88 21.88 21.88 21.88-9.838 21.88-21.88-9.838-21.88-21.88-21.88z" fill="red"/><path d="M355.056 168.706h-1.028l-56.386-7.342c-2.056-.294-3.818-1.322-4.993-2.937s-1.762-3.67-1.468-5.58l7.342-56.386c.587-4.1 4.405-7.048 8.517-6.608l56.386 7.342c2.056.294 3.818 1.322 4.993 2.937s1.762 3.67 1.468 5.58l-7.342 56.386c-.44 3.818-3.67 6.608-7.5 6.608zm-47.723-21.585l41.115 5.433 5.433-41.115-41.115-5.433z" fill="#ff5ddc"/><g fill="#027fe1"><path d="M231.858 73.555c-.587 0-1.028 0-1.615-.147-4.1-.88-6.755-4.846-5.874-8.957l12.04-57.708c.88-4.112 4.846-6.755 8.957-5.874s6.755 4.846 5.874 8.957L239.2 67.534c-.587 3.524-3.818 6.02-7.342 6.02z"/><path d="M266.806 50.648c-.587 0-1.028 0-1.615-.147l-57.708-12.04c-4.1-.88-6.755-4.846-5.874-8.957s4.846-6.755 8.957-5.874l57.708 12.04c4.1.88 6.755 4.846 5.874 8.957-.734 3.524-3.818 6.02-7.342 6.02z"/></g><path d="M306.452 69.443a7.53 7.53 0 0 1-4.993-1.909c-2.056-1.762-2.937-4.552-2.35-7.195l10.426-49.632c.587-2.643 2.496-4.846 4.993-5.58 2.496-.88 5.433-.294 7.5 1.468l38.03 33.48c2.056 1.762 2.937 4.552 2.35 7.195s-2.496 4.846-4.993 5.727l-48.457 16.005c-1.028.294-1.762.44-2.496.44zm15.124-42.877L316.583 50.5l23.347-7.78-18.355-16.152z" fill="#8aee49"/><path d="M559.75 452.693l-47.723-164.607c-2.203-7.782-10.72-14.097-18.795-14.097h-423.2c-8.076 0-16.446 6.314-18.795 14.097L4.1 451.812c-2.203 7.782-4.1 20.704-4.1 28.78v184.724C0 673.392 6.608 680 14.684 680h534.494c8.076 0 14.684-6.608 14.684-14.684V481.474c0-8.076-1.9-20.998-4.1-28.78zm-49.778-15.418l-456.23-.587c-8.076 0-12.922-6.314-10.572-14.097l30.25-105.137c2.203-7.782 10.72-14.097 18.795-14.097h378.992c8.076 0 16.593 6.314 18.795 14.097l30.7 105.724c2.203 7.782-2.643 14.097-10.72 14.097z" fill="gray"/><path d="M52.43 584.408H29.523v-38.325h61.232v7.636H52.43v30.7zm68.868-7.783h38.325v7.636H98.38v-38.325h61.232v22.907h-38.325v7.782zm0-15.27h15.27v-7.636h-15.27zm68.868 15.27h38.325v7.636h-61.23v-38.325h61.232v7.636h-38.325v23.054zm45.814-30.542h61.232v38.325H235.97V561.5h38.325v-7.636H235.97v-7.782zm23.054 30.543h15.27V569h-15.27zm45.813-61.076h22.907v68.868h-22.907zm30.7 0h22.907v30.543h38.325v38.325h-61.232zm22.907 61.085h15.27v-22.907h-15.27zm45.96-30.552h61.232v38.325h-61.232zm22.907 30.543h15.27V553.72h-15.27v22.907zM480.907 569h7.636v-7.636h-7.636v-7.636h-7.636v-7.636h22.907v7.636h15.27v-7.636h22.907v7.636h-7.636v7.636h-7.636V569h7.636v7.636h7.636v7.636H511.43v-7.636h-15.27v7.636h-22.9v-7.636h7.636V569zm-8.8-235.236c-.587-27.9-1.322-36.857-3.965-47.87-8.8-37.003-24.082-65.93-46.695-88.397-30.983-30.836-68.868-33.773-112.626-8.8l-10.13 5.863c-15.565-.147-33.48-1.028-37.297-2.056-2.937-1.9-9.398-5.433-14.243-7.93-29.955-14.83-57.267-16.446-81.202-4.7-31.864 15.565-59.617 58-70.776 108.22-3.23 14.537-3.524 19.1-3.377 55.2.147 40.968 1.028 48.457 7.342 61.085 6.02 12.04 14.978 20.117 28.34 25.256 3.377 1.322 6.9 1.9 10.72 1.9 21.438 0 49.778-20.117 74.154-53.743l7.195-9.838h124.96l7.195 9.838c18.942 26.284 50.806 54.184 72.245 54.184 16.3 0 32.892-11.453 41.262-28.487 6.314-13.95 7.93-28.34 6.9-69.75z" fill="#fff"/><path d="M466.36 333.9c-.587-27.46-1.322-36.122-3.818-46.695-8.663-36.122-23.2-63.875-45.08-85.607-29.22-29.074-64.022-31.717-105.724-7.93l-11.6 6.608s-38.325-.44-41.555-2.8c-2.203-1.468-8.517-4.993-14.097-7.782-28.34-14.097-53.743-15.712-76.2-4.7-30.25 14.83-56.827 55.8-67.84 104.403-3.084 13.95-3.377 18.355-3.23 54.037.147 40.087.88 46.842 6.755 58.442 5.286 10.72 13.362 17.768 25.256 22.466 19.236 7.5 51.54-13.07 78.118-49.925l8.957-12.334h130.834l8.957 12.334c20.998 29.074 50.66 51.834 67.546 51.834 13.95 0 28.78-10.28 35.976-25.256 6.314-12.922 7.782-26.872 6.755-67.105zm-233.034-52.568h-19.823v19.823c0 6.167-5.14 11.307-11.307 11.307s-11.307-5.14-11.307-11.307v-19.823h-19.823c-6.167 0-11.307-5.14-11.307-11.307s5.14-11.307 11.307-11.307h19.823v-19.823c0-6.167 5.14-11.307 11.307-11.307s11.307 5.14 11.307 11.307v19.823h19.823c6.167 0 11.307 5.14 11.307 11.307-.147 6.314-5.14 11.307-11.307 11.307zm145.958-61.966c9.545 0 17.327 7.782 17.327 17.327s-7.782 17.327-17.327 17.327-17.327-7.782-17.327-17.327c.147-9.545 7.782-17.327 17.327-17.327zm-56.24 33.48c0-9.545 7.782-17.327 17.327-17.327s17.327 7.782 17.327 17.327-7.782 17.327-17.327 17.327-17.327-7.782-17.327-17.327zm35.976 58.6c-9.545 0-17.327-7.782-17.327-17.327s7.782-17.327 17.327-17.327 17.327 7.782 17.327 17.327-7.782 17.327-17.327 17.327zm36.416-17.327c-9.545 0-17.327-7.782-17.327-17.327s7.782-17.327 17.327-17.327 17.327 7.782 17.327 17.327c0 9.7-7.782 17.327-17.327 17.327z" fill="gray"/><path d="M392.13 646.68zm0-14.32zm0-14.1zm0 7.055zm0 28.43zm0-14.318zm0-28.222z" fill="#d40000"/><path d="M392.13 613.062a1.86 1.86 0 0 0-1.868-1.868h-59.97c-1.038 0-2.5.623-3.32 1.245l-4.358 4.358c-.83.83-1.245 2.283-1.245 3.32v38.597a1.86 1.86 0 0 0 1.868 1.868h59.97c1.038 0 2.5-.623 3.32-1.245l4.358-4.358c.83-.83 1.245-2.283 1.245-3.32z" fill="#004e73"/><path d="M383.632 638.17l-4.358-4.358c-.83-.83-2.283-1.245-3.32-1.245h-5.188l12.658-12.658c.83-.83.415-1.245-.623-1.245h-17.43c-1.038 0-2.5.623-3.32 1.245L322.21 659.75c-.415.208-.623.623-.83.83.415.415.83.623 1.245.623h47.52l12.658-12.658c.83-.83 1.245-2.283 1.245-3.32v-3.32c1.038-1.453.415-2.905-.415-3.735z" opacity=".2"/><path d="M365.786 639.416c-1.038 0-2.5-.623-3.32-1.245l-4.358-4.358c-.83-.83-1.245-2.283-1.245-3.32v-3.32c0-1.038.623-2.5 1.245-3.32l4.358-4.358c.83-.83 2.283-1.245 3.32-1.245h17.43c1.038 0 1.245.623.623 1.245l-4.358 4.358c-.83.83-2.283 1.245-3.32 1.245h-10.376a1.86 1.86 0 0 0-1.868 1.868v3.32a1.86 1.86 0 0 0 1.868 1.868h10.376c1.038 0 2.5.623 3.32 1.245l4.358 4.358c.83.83 1.245 2.283 1.245 3.32v3.32c0 1.038-.623 2.5-1.245 3.32l-4.358 4.358c-.83.83-2.283 1.245-3.32 1.245h-10.376c-1.038 0-2.5-.623-3.32-1.245l-4.358-4.358c-.83-.83-.415-1.245.623-1.245h17.43a1.86 1.86 0 0 0 1.868-1.868v-5.188h-12.243z" fill="#fff"/><path d="M321.378 634.436v-1.868s.623-.623 1.245-1.453l11.413-11.413c.83-.83 2.283-1.245 3.32-1.245h17.43c1.038 0 1.245.623.623 1.245L342.75 632.36h5.18c1.038 0 1.868.83 1.66 1.868l-.208 2.698c0 1.038-.208 2.075-.415 2.283l-7.47 7.47h4.98c1.038 0 2.5.623 3.32 1.245l4.565 4.15a15.11 15.11 0 0 1 1.453 1.245l-7.47 7.47h-25.1a1.86 1.86 0 0 1-1.868-1.868v-24.486z"/><g transform="translate(-358.07 -165.65)" fill="#fff"><path d="M695.427 812.33a1.86 1.86 0 0 1-1.868-1.868v-3.32a1.86 1.86 0 0 1 1.868-1.868h10.376a1.86 1.86 0 0 0 1.868-1.868v-3.32a1.86 1.86 0 0 0-1.868-1.868h-10.376a1.86 1.86 0 0 1-1.868-1.868v-3.32a1.86 1.86 0 0 1 1.868-1.868h10.376c1.038 0 2.5-.623 3.32-1.245l4.358-4.358c.83-.83.415-1.245-.623-1.245h-17.43c-1.038 0-2.5.623-3.32 1.245l-4.358 4.358c-.83.83-1.245 2.283-1.245 3.32v17.43c0 1.038.623 2.5 1.245 3.32l4.358 4.358c.83.83 2.283 1.245 3.32 1.245h17.43c1.038 0 1.245-.623.623-1.245l-4.358-4.358c-.83-.83-2.283-1.245-3.32-1.245l-10.376-.415zm76.363-19.922c-.208.623-.623 1.245-1.245 1.66-.415.415-1.038.83-1.66 1.245-.623.208-1.245.415-2.075.415h-1.453c-.83 0-1.453-.208-2.075-.415s-1.245-.623-1.66-1.245c-.415-.415-.83-1.038-1.245-1.66-.208-.623-.415-1.245-.415-2.075v-8.093c0-.83.208-1.453.415-2.075s.623-1.245 1.245-1.66c.415-.415 1.038-.83 1.66-1.245.623-.208 1.245-.415 2.075-.415h1.453c.83 0 1.453.208 2.075.415s1.245.623 1.66 1.245c.415.415.83 1.038 1.245 1.66.208.623.415 1.245.415 2.075v4.358h-9.96v3.943c0 .415 0 .83.208 1.245s.415.623.623 1.038c.208.208.623.415 1.038.623s.83.208 1.245.208h1.453c.415 0 .83 0 1.245-.208s.623-.415 1.038-.623c.208-.208.415-.623.623-1.038s.208-.83.208-1.245v-1.245l2.075.415v.623c.208.83.208 1.453-.208 2.075zm-1.66-10.376c0-.415 0-.83-.208-1.245s-.415-.623-.623-1.038c-.208-.208-.623-.415-1.038-.623s-.83-.208-1.245-.208h-1.453c-.415 0-.83 0-1.245.208s-.623.415-1.038.623c-.208.208-.415.623-.623 1.038s-.208.83-.208 1.245v2.698h7.678v-2.698zm25.733 13.28v-13.28c0-.415 0-.83-.208-1.245s-.415-.623-.623-1.038c-.208-.208-.623-.415-1.038-.623s-.83-.208-1.245-.208h-1.038c-.415 0-.83 0-1.245.208s-.623.415-1.038.623c-.208.208-.415.623-.623 1.038s-.208.83-.208 1.245v13.28h-2.075v-13.28c0-.415 0-.83-.208-1.245s-.415-.623-.623-1.038c-.208-.208-.623-.415-1.038-.623s-.83-.208-1.245-.208h-1.038c-.415 0-.83 0-1.245.208s-.623.415-1.038.623c-.208.208-.415.623-.623 1.038s-.208.83-.208 1.245v13.28h-2.075V777.26h.623l1.245 1.868a4.9 4.9 0 0 1 1.868-1.66c.83-.415 1.66-.623 2.5-.623h.208c1.038 0 1.868.208 2.698.83.83.415 1.453 1.245 1.868 2.075.208-.415.415-.83.83-1.038.415-.415.623-.623 1.038-.83l1.245-.623c.415-.208 1.038-.208 1.453-.208h.208c.83 0 1.453.208 2.075.415s1.245.623 1.66 1.245c.415.415.83 1.038 1.245 1.66.208.623.415 1.245.415 2.075v13.073l-2.5-.208zm17.847 0l-1.245-1.868a4.9 4.9 0 0 1-1.868 1.66c-.83.415-1.66.623-2.5.623h-.623c-.83 0-1.453-.208-2.075-.415s-1.245-.623-1.66-1.245c-.415-.415-.83-1.038-1.245-1.66-.208-.623-.415-1.245-.415-2.075V777.26h2.075v13.28c0 .415 0 .83.208 1.245s.415.623.623 1.038c.208.208.623.415 1.038.623s.83.208 1.245.208h1.453c.415 0 .83 0 1.245-.208s.623-.415 1.038-.623c.208-.208.415-.623.623-1.038s.208-.83.208-1.245v-13.28h2.075v18.054h-.208zm5.8 0v-25.316h2.075v25.316zm18.675 0l-1.245-1.868a4.9 4.9 0 0 1-1.868 1.66c-.83.415-1.66.623-2.5.623h-.623c-.83 0-1.453-.208-2.075-.415s-1.245-.623-1.66-1.245c-.415-.415-.83-1.038-1.245-1.66-.208-.623-.415-1.245-.415-2.075s.208-1.453.415-2.075.623-1.245 1.245-1.66c.415-.415 1.038-.83 1.66-1.245.623-.208 1.245-.415 2.075-.415h4.565v-2.905c0-.415 0-.83-.208-1.245s-.415-.623-.623-1.038c-.208-.208-.623-.415-1.038-.623s-.83-.208-1.245-.208h-1.245c-.415 0-.83 0-1.245.208s-.623.415-1.038.623c-.208.208-.415.623-.623 1.038s-.208.83-.208 1.245v.623l-2.075-.415v-.208c0-.83.208-1.453.415-2.075s.623-1.245 1.245-1.66c.415-.415 1.038-.83 1.66-1.245.623-.208 1.245-.415 2.075-.415h1.245c.83 0 1.453.208 2.075.415s1.245.623 1.66 1.245a4.52 4.52 0 0 1 1.038 1.66c.208.623.415 1.245.415 2.075v13.073h-.623v.208zm-1.453-8.716h-4.565c-.415 0-.83 0-1.245.208s-.623.415-1.038.623c-.208.208-.415.623-.623 1.038s-.208.83-.208 1.245v.83c0 .415 0 .83.208 1.245s.415.623.623 1.038c.208.208.623.415 1.038.623s.83.208 1.245.208h1.453c.415 0 .83 0 1.245-.208s.623-.415 1.038-.623c.208-.208.415-.623.623-1.038s.208-.83.208-1.245v-3.943z"/><use xlink:href="#A"/><path d="M856.25 772.902v-2.905h2.5v2.905zm.208 22.4V777.26h2.075v18.054h-2.075zm19.1-2.904a4.52 4.52 0 0 1-1.038 1.66c-.415.415-1.038.83-1.66 1.245-.623.208-1.245.415-2.075.415h-1.453c-.83 0-1.453-.208-2.075-.415s-1.245-.623-1.66-1.245c-.415-.415-.83-1.038-1.245-1.66-.208-.623-.415-1.245-.415-2.075v-8.093c0-.83.208-1.453.415-2.075s.623-1.245 1.245-1.66c.415-.415 1.038-.83 1.66-1.245.623-.208 1.245-.415 2.075-.415h1.453c.83 0 1.453.208 2.075.415s1.245.623 1.66 1.245a4.52 4.52 0 0 1 1.038 1.66c.208.623.415 1.245.415 2.075v8.093c0 .83-.208 1.453-.415 2.075zm-1.868-10.376c0-.415 0-.83-.208-1.245s-.415-.623-.623-1.038c-.208-.208-.623-.415-1.038-.623s-.83-.208-1.245-.208h-1.453c-.415 0-.83 0-1.245.208s-.623.415-1.038.623c-.208.208-.415.623-.623 1.038s-.208.83-.208 1.245v8.508c0 .415 0 .83.208 1.245s.415.623.623 1.038c.208.208.623.415 1.038.623s.83.208 1.245.208h1.453c.415 0 .83 0 1.245-.208s.623-.415 1.038-.623c.208-.208.415-.623.623-1.038s.208-.83.208-1.245zm16.394 13.28v-13.28c0-.415 0-.83-.208-1.245s-.415-.623-.623-1.038c-.208-.208-.623-.415-1.038-.623s-.83-.208-1.245-.208h-1.453c-.415 0-.83 0-1.245.208s-.623.415-1.038.623c-.208.208-.415.623-.623 1.038s-.208.83-.208 1.245v13.28h-2.075V777.26h.623l1.245 1.868a4.9 4.9 0 0 1 1.868-1.66c.83-.415 1.66-.623 2.5-.623h.623c.83 0 1.453.208 2.075.415s1.245.623 1.66 1.245.83 1.038 1.245 1.66c.208.623.415 1.245.415 2.075v13.073h-2.5zM772.62 821.46c0 .83-.208 1.453-.415 2.075s-.623 1.038-1.245 1.66a4.52 4.52 0 0 1-1.66 1.038c-.623.208-1.453.415-2.075.415h-1.453c-.83 0-1.453-.208-2.075-.415s-1.245-.623-1.66-1.245c-.415-.415-.83-1.038-1.245-1.66-.208-.623-.415-1.245-.415-2.075v-.623l2.075-.415v1.245c0 .415 0 .83.208 1.245s.415.623.83 1.038c.208.208.623.415 1.038.623s.83.208 1.245.208h1.453c.415 0 .83 0 1.245-.208s.83-.415 1.038-.623c.415-.208.623-.623.83-.83.208-.415.208-.83.208-1.245 0-.623-.208-1.245-.415-1.66a2.5 2.5 0 0 0-1.038-1.038c-.415-.208-1.038-.415-1.66-.623l-3.735-1.245c-.623-.208-1.038-.623-1.66-.83s-.83-.83-1.038-1.453-.415-1.245-.415-2.075.208-1.453.415-2.075.623-1.038 1.245-1.66a4.52 4.52 0 0 1 1.66-1.038c.623-.208 1.245-.415 2.075-.415h1.245c.83 0 1.453.208 2.075.415s1.245.623 1.66 1.245c.415.415.83 1.038 1.245 1.66.208.623.415 1.245.415 2.075l-2.075.415v-.623c0-.415 0-.83-.208-1.245s-.415-.623-.623-1.038c-.208-.208-.623-.415-1.038-.623s-.83-.208-1.245-.208h-1.453c-.415 0-.83 0-1.245.208s-.623.415-1.038.623c-.208.208-.415.623-.623.83-.208.415-.208.83-.208 1.245 0 .623.208 1.038.415 1.453a2.5 2.5 0 0 0 1.038 1.038c.415.208 1.038.415 1.66.623l3.735 1.245c.623.208 1.038.623 1.66 1.038.415.415.83.83 1.038 1.453s.208 1.245.208 2.075z"/><use xlink:href="#A" x="-66.404" y="30.712"/><path d="M800.843 826.025l-1.245-1.868a4.9 4.9 0 0 1-1.868 1.66c-.83.415-1.66.623-2.5.623h-.623c-.83 0-1.453-.208-2.075-.415s-1.245-.623-1.66-1.245c-.415-.415-.83-1.038-1.245-1.66-.208-.623-.415-1.245-.415-2.075v-.208c0-.83.208-1.453.415-2.075s.623-1.245 1.245-1.66c.415-.415 1.038-.83 1.66-1.245.623-.208 1.245-.415 2.075-.415h4.565v-2.698c0-.415 0-.83-.208-1.245s-.415-.623-.623-1.038c-.208-.208-.623-.415-1.038-.623s-.83-.208-1.245-.208h-1.245c-.415 0-.83 0-1.245.208s-.623.415-1.038.623c-.208.208-.415.623-.623 1.038s-.208.83-.208 1.245v.623l-2.075-.415v-.208c0-.83.208-1.453.415-2.075s.623-1.245 1.245-1.66c.415-.415 1.038-.83 1.66-1.245.623-.208 1.245-.415 2.075-.415h1.245c.83 0 1.453.208 2.075.415s1.245.623 1.66 1.245c.415.415.83 1.038 1.245 1.66.208.623.415 1.245.415 2.075v13.073l-.83.208zm-1.453-8.716h-4.565c-.415 0-.83 0-1.245.208s-.623.415-1.038.623c-.208.208-.415.623-.623 1.038s-.208.83-.208 1.245v.83c0 .415 0 .83.208 1.245s.415.623.623 1.038c.208.208.623.415 1.038.623s.83.208 1.245.208h1.453c.415 0 .83 0 1.245-.208s.623-.415 1.038-.623c.208-.208.415-.623.623-1.038s.208-.83.208-1.245V817.3z"/><use xlink:href="#A" x="-37.352" y="30.712"/><path d="M819.104 803.613v-2.905h2.5v2.905zm0 22.4V807.97h2.075v18.054h-2.075zm19.1-2.903c-.208.623-.623 1.245-1.245 1.66-.415.415-1.038.83-1.66 1.245-.623.208-1.245.415-2.075.415h-1.453c-.83 0-1.453-.208-2.075-.415s-1.245-.623-1.66-1.245c-.415-.415-.83-1.038-1.245-1.66-.208-.623-.415-1.245-.415-2.075v-8.093c0-.83.208-1.453.415-2.075s.623-1.245 1.245-1.66c.415-.415 1.038-.83 1.66-1.245.623-.208 1.245-.415 2.075-.415h1.453c.83 0 1.453.208 2.075.415s1.245.623 1.66 1.245c.415.415.83 1.038 1.245 1.66.208.623.415 1.245.415 2.075v8.093c0 .83-.208 1.453-.415 2.075zm-1.868-10.376c0-.415 0-.83-.208-1.245s-.415-.623-.623-1.038c-.208-.208-.623-.415-1.038-.623s-.83-.208-1.245-.208h-1.453c-.415 0-.83 0-1.245.208s-.623.415-1.038.623c-.208.208-.415.623-.623 1.038s-.208.83-.208 1.245v8.508c0 .415 0 .83.208 1.245s.415.623.623 1.038c.208.208.623.415 1.038.623s.83.208 1.245.208h1.453c.415 0 .83 0 1.245-.208s.623-.415 1.038-.623c.208-.208.415-.623.623-1.038s.208-.83.208-1.245zm16.6 13.28v-13.28c0-.415 0-.83-.208-1.245s-.415-.623-.623-1.038c-.208-.208-.623-.415-1.038-.623s-.83-.208-1.245-.208h-1.453c-.415 0-.83 0-1.245.208s-.623.415-1.038.623c-.208.208-.415.623-.623 1.038s-.208.83-.208 1.245v13.28h-2.075V807.97h.623l1.245 1.868a4.9 4.9 0 0 1 1.868-1.66c.83-.415 1.66-.623 2.5-.623h.623c.83 0 1.453.208 2.075.415s1.245.623 1.66 1.245a4.52 4.52 0 0 1 1.038 1.66c.208.623.415 1.245.415 2.075v13.073h-2.283z"/></g></svg>