<svg xmlns="http://www.w3.org/2000/svg" width="230" height="230"><g clip-path="url(#A)" transform="translate(0 1)" fill-rule="evenodd"><path d="M224.66 114.06c0-60.598-49.124-109.72-109.72-109.72S5.22 53.464 5.22 114.06s49.124 109.72 109.72 109.72 109.72-49.124 109.72-109.72z" fill="#cbcb00"/><path d="M150.25 176.656a11.57 11.57 0 0 0 9.14 4.484h16.822c6.388 0 11.565-5.178 11.564-11.566v-53.238c.002-6.388-5.176-11.567-11.564-11.566h-16.82c-2.767.001-5.442.994-7.54 2.8h-6.233c-.72-.047-2.727-2.097-3.284-2.754-4.844-5.7-9.9-16.802-12.864-24.53-1.98-5.16-5.875-8.68-10.216-11.858a15.62 15.62 0 0 1-3.935-4.287c-3.48-5.787-4.9-17.298-5.263-24.675-.233-4.877-4.653-7.566-9.347-7.553-6.2.017-13.216 3.53-16.897 8.816a27.66 27.66 0 0 0-4.712 15.048c-.26 5.38.635 10.756 2.62 15.764l5.794 11.975c.612 1.33 1.146 2.697 1.598 4.1a360.53 360.53 0 0 0-24.606.331c-2.504.118-6.873.694-9.186 1.538a17.91 17.91 0 0 0-5.504 3.896l.106-.1c-3.68 3.725-8.1 10.47-7.816 16.176.156 3.25 2.44 5.83 4.238 8.316l-2.43 4.114a13.47 13.47 0 0 0-1.804 5.594c-.283 4.34 3.278 7.594 5.76 10.603l-1.66 4.27c-.612 1.53-1.1 3.436-1.117 5.084.117 2.587 1.048 5.07 2.66 7.097l-.108-.136a30.17 30.17 0 0 0 3.391 3.711c.772.685 1.488 1.43 2.142 2.23l-.06 3.55c-.045 1.564.178 3.483.782 4.922 1.914 4.555 9.1 11.36 14.954 13.328 4.775 1.602 13.422 1.76 18.476 1.83a383.68 383.68 0 0 0 32.25-1.586l30.665-5.705z"/><g fill="#fff"><path d="M52.74 117.1c-.303-2.293-4.53-5.692-4.663-8.002-.248-4.207 5.433-12.43 9.333-14.007 4.546-1.84 22.7-1.7 32.052-1.494 1.114.024 8.282-1.376 5.53-7.17-1.778-5.977-6.15-13.224-7.73-17.072-3.46-8.404-2.876-19.562 1.495-25.287 5.34-7 15.14-7.47 15.344-4.333 1.457 22.717 5.807 29.02 11.63 33.513 3.498 2.695 6.556 5.06 8.167 9.168 9.927 25.275 17.28 31.126 21.487 31.126h.983c.806 0 2.064 1.702 2.4 4.58 1.178 10.112 3.434 34.75-.188 51.2-.125.566-1 1.783-4.647 2.46l-25.164 4.68s-36.523 3.46-48.022 0c-3.618-1.084-9.86-6.517-11.34-10.004-.842-2 .33-6.742-.666-8.672-1.474-2.865-7.677-6.45-7.67-10.34.006-2.77 3.24-7.57 3.003-10.338s-6.012-6.566-6.006-9.338c.017-2.9 5.06-7.78 4.674-10.67zm101.06 52.978a5.61 5.61 0 0 0 5.581 5.102h16.82a5.6 5.6 0 0 0 5.603-5.605v-53.24c0-3.097-2.507-5.605-5.603-5.605h-16.8a5.6 5.6 0 0 0-5.603 5.605v.13c0 .13 4.338 28.135.022 53.612z"/></g><path d="M224.13 114.06c0-60.306-48.888-109.2-109.2-109.2S5.75 53.758 5.75 114.06s48.888 109.2 109.2 109.2 109.2-48.888 109.2-109.2zm5.742 0c0-63.477-51.458-114.94-114.94-114.94S-.008 50.578-.008 114.06 51.45 229 114.932 229s114.94-51.458 114.94-114.94z" fill="#f2f250"/></g><defs><clipPath id="A"><path d="M0 229V-.87h229.87V229z"/></clipPath></defs></svg>